<svg width="159" height="172" viewBox="0 0 159 172" fill="none" xmlns="http://www.w3.org/2000/svg">
<g id="Group 1">
<path id="path96754" d="M133.627 2.68524C124.36 0.46924 114.227 0.143893 106.8 0.571893C82.28 1.95723 60.316 16.6119 46.0627 35.9612C32.1507 54.8612 11.7588 73.6719 2.98142 95.7386C-4.77324 115.208 3.5374 144.643 18.8934 157.807C38.6747 174.768 67.3427 175.003 90.0133 164.073C102.96 157.829 118.84 147.377 128 136.149C142.093 118.896 146.587 97.2279 149.827 75.7706C152.187 60.0466 164.413 27.9119 153.92 13.9799C149.533 8.15457 141.92 4.66391 133.627 2.68524" fill="#C0C0C0"/>
<path id="path96758" d="M57.7947 171.543C43.7853 171.541 29.9494 167.287 18.8934 157.807C7.54138 148.076 0.0400492 129.452 0.0320492 112.536C0.0293825 106.569 0.958731 100.815 2.9814 95.7386C2.9934 95.7079 3.00534 95.6786 3.01734 95.6479C8.272 82.4973 17.6533 70.5093 27.3133 58.9599C25.8413 62.0239 23.8161 65.2039 21.0481 68.4653C-0.322601 93.6879 -0.00662435 141.141 56.0267 150.928C59.964 151.616 63.8107 151.945 67.5494 151.945C100.707 151.945 125.307 126.045 127.92 94.6586C131.72 49.2133 138.613 66.5266 152.213 36.4519C160.12 18.9599 150.267 9.36926 136.827 3.62393C143.827 5.69859 150.107 8.92125 153.92 13.9799C156.987 18.0479 158.107 23.6679 158.107 29.9786C158.12 45.2786 151.493 64.6386 149.827 75.7706C146.587 97.2279 142.093 118.896 128 136.149C118.84 147.377 102.96 157.829 90.0133 164.073C80.0133 168.893 68.8507 171.543 57.7947 171.543" fill="#C0C0C0"/>
<path id="path96760" d="M53.876 53.564C49.592 53.564 48.5694 50.6107 53.1094 43.2427C76.4267 5.40801 111.4 5.40798 111.4 5.40798C112.173 5.35464 112.88 5.32933 113.533 5.32933C127.64 5.32933 117.053 17.388 100.773 29.4466C84.4933 41.5053 62.5307 53.564 53.876 53.564Z" fill="white"/>
<path id="path96762" d="M32.2345 76.2439C31.4425 76.2439 30.7145 76.0412 30.1025 75.6106C27.6878 73.9106 27.9879 69.3399 30.7719 65.3945C32.8466 62.4572 35.7186 60.6972 38.0426 60.6972C38.8333 60.6972 39.5599 60.9012 40.1706 61.3306C42.5853 63.0306 42.2825 67.5999 39.5065 71.5466C37.4319 74.4852 34.5612 76.2439 32.2345 76.2439Z" fill="white"/>
</g>
</svg>
