<svg width="704" height="331" viewBox="0 0 704 331" fill="none" xmlns="http://www.w3.org/2000/svg">
<g id="g10">
<g id="g12">
<path id="path14" d="M566.006 303.248C566.006 318.429 470.187 330.743 351.99 330.743C233.794 330.743 137.979 318.429 137.979 303.248C137.979 288.057 233.794 234.69 351.99 234.69C470.187 234.69 566.006 288.057 566.006 303.248Z" fill="#2F3436"/>
<path id="path16" d="M559.967 301.071C559.967 315.435 466.849 327.083 351.99 327.083C237.132 327.083 144.023 315.435 144.023 301.071C144.023 286.701 237.132 236.218 351.99 236.218C466.849 236.218 559.967 286.701 559.967 301.071" fill="#4B4F73"/>
<path id="path18" d="M579.543 258.694C579.543 280.658 548.524 304.355 351.99 304.355C155.456 304.355 124.438 280.658 124.438 258.694C124.438 236.728 226.317 218.92 351.99 218.92C477.664 218.92 579.543 236.728 579.543 258.694Z" fill="#2F3436"/>
<g id="g20">
<path id="path22" d="M674.976 59.1279C672.229 58.9935 669.022 58.9534 665.208 59.0278C642.407 59.477 613.628 71.3155 613.628 71.3155C613.628 71.3155 611.788 73.8646 610.025 77.3177C609.81 77.2148 609.575 77.1175 609.418 76.9859C601.876 70.7891 613.628 54.6163 613.628 54.6163C613.628 54.6163 642.407 42.7749 665.208 42.3286C687.33 41.8937 690.116 45.1638 690.116 50.3077C690.116 51.804 683.928 55.2085 674.976 59.1279" fill="#6E7274"/>
</g>
<path id="path24" d="M29.0009 59.1291C31.7495 58.9922 34.9562 58.9524 38.7718 59.027C61.5704 59.4749 90.351 71.3139 90.351 71.3139C90.351 71.3139 92.1919 73.8643 93.9505 77.3154C94.1695 77.2134 94.4002 77.1164 94.561 76.987C102.106 70.7889 90.351 54.6154 90.351 54.6154C90.351 54.6154 61.5704 42.774 38.7718 42.3262C16.6437 41.8932 13.8589 45.1627 13.8589 50.3083C13.8589 51.8038 20.0533 55.2076 29.0009 59.1291" fill="#6E7274"/>
<g id="g26">
<path id="path28" d="M616.967 33.1845V241.921C616.967 241.921 616.854 242.626 616.716 243.937C616.716 244.574 616.378 245.517 615.984 246.627C615.65 247.801 614.923 248.943 614.135 250.257C610.848 255.599 602.205 262.103 588.755 267.866C585.473 269.294 581.883 270.67 578.064 272.034L578.007 272.051C571.3 274.37 563.86 276.607 555.663 278.722C549.458 280.317 542.867 281.845 535.874 283.293C534.782 283.524 533.683 283.746 532.591 283.962C511.958 288.097 488.297 291.459 462.328 294.029C459.076 294.348 455.789 294.652 452.481 294.938C427.859 297.12 401.28 298.483 373.35 298.971C341.577 299.506 308.171 298.919 273.7 296.652C256.495 295.525 239.062 293.947 221.575 291.81C212.706 290.753 203.835 289.543 194.965 288.147C186.347 286.786 177.758 285.256 169.225 283.512C162.179 282.066 155.162 280.486 148.227 278.685C141.099 276.856 134.081 274.791 127.26 272.437C124.51 271.496 121.787 270.486 119.092 269.446C118.445 269.177 117.773 268.923 117.127 268.657C110.055 265.716 103.315 262.322 97.7022 258.169C94.5866 255.935 92.0876 253.365 90.0679 250.625C88.1587 247.871 87.1762 244.83 87.0367 241.769V33.1845H616.967Z" fill="#C0C0C0"/>
</g>
<path id="path30" d="M127.26 272.436C124.51 271.496 121.787 270.486 119.092 269.446C118.446 269.177 117.774 268.923 117.127 268.657C114.769 227.285 115.358 185.715 116.566 144.256C117.521 110.312 118.222 76.3201 120.159 42.4081C120.186 42.0747 120.214 41.7537 120.214 41.4178H130.433C128.245 118.446 120.916 195.727 127.26 272.436" fill="#FFFAFA"/>
<path id="path32" d="M189.465 184.485C188.93 219.151 190.586 253.852 194.965 288.147C186.347 286.786 177.758 285.256 169.226 283.512C162.18 282.066 155.162 280.486 148.228 278.684C140.539 200.044 148.117 120.312 153.308 41.4179H180.958C187.472 43.5503 193.983 45.516 200.551 47.3C198.615 61.6844 196.566 76.0514 195.022 90.483C191.682 121.655 189.969 153.129 189.465 184.485Z" fill="#FFFAFA"/>
<path id="path34" d="M588.451 41.4178C588.422 44.3912 588.422 47.3846 588.422 50.3555C588.314 76.0513 587.777 101.76 587.187 127.453C586.094 174.587 584.382 221.707 582.416 268.806C582.108 269.043 581.825 269.279 581.518 269.51C580.396 270.354 579.244 271.207 578.064 272.033L578.01 272.051C571.301 274.37 563.861 276.607 555.665 278.722C554.04 234.374 555.723 190.012 557.66 145.687C558.699 121.79 559.593 97.878 560.465 73.9836C560.856 63.1275 561.114 52.2739 560.885 41.4178H588.451" fill="#808080"/>
<path id="path36" d="M532.592 283.962C511.959 288.097 488.297 291.459 462.331 294.029C459.077 294.348 455.789 294.651 452.481 294.938C452.954 256.843 454.53 218.781 455.71 180.703C456.579 152.44 457.028 124.176 457.028 95.8949C456.999 82.3516 456.687 68.741 455.54 55.2474C474.821 51.3658 492.732 46.7452 508.817 41.4179H536.578C536.491 79.5275 532.871 117.639 532.172 155.734C531.358 198.484 532.255 241.214 532.592 283.962" fill="#808080"/>
<g id="g38">
<path id="path40" d="M606.074 33.1663V33.1925C606.035 33.3913 605.996 33.6895 605.93 34.1237L605.843 34.4219C605.843 34.5449 605.825 34.6443 605.742 34.6809C605.637 34.83 605.537 34.966 605.41 35.1177C605.288 35.2878 605.345 35.4133 605.061 35.6618C604.851 35.8973 604.58 36.1327 604.331 36.3943C603.007 37.7362 599.813 39.4862 594.525 41.3853C591.559 42.4395 587.993 43.5434 583.636 44.6394C582.395 44.9481 581.106 45.2698 579.76 45.5811C574.574 46.7844 568.605 47.9641 561.989 49.1072C553.63 50.559 544.257 51.9977 533.914 53.3135C513.298 55.9817 488.868 58.2051 461.811 59.9447C434.789 61.7444 404.931 62.7489 373.308 63.1203C365.386 63.2432 357.359 63.2955 349.249 63.2825C340.995 63.2432 332.87 63.1334 324.575 63.0104C307.985 62.7358 291.084 62.2649 273.936 61.5325C256.91 60.7373 239.637 59.67 222.427 58.3045C205.277 56.9521 188.107 55.2754 171.434 53.1304C163.139 52.0579 154.928 50.9043 147.049 49.5519C139.851 48.3356 132.801 47.0564 126.312 45.568C125.69 45.4294 125.067 45.2829 124.445 45.1338C119.551 44.0037 114.989 42.7507 111.091 41.3853C109.391 40.7863 107.793 40.1794 106.362 39.5594C103.937 38.5314 102.278 37.438 100.888 36.3707C99.7056 35.327 99.2709 34.2833 99.1262 33.2553V33.1794L99.1878 32.8812L99.2914 32.2717C99.3325 32.099 99.3325 31.8008 99.436 31.7511L99.6654 31.4529C99.8713 31.2437 99.7694 31.0946 100.101 30.8094L100.888 30.0142C102.278 28.947 103.937 27.8535 106.362 26.8229C111.05 24.7616 117.414 22.8861 124.445 21.2355C131.454 19.5718 139.168 18.1592 147.049 16.8304C154.928 15.478 163.139 14.3087 171.434 13.2545C188.107 11.1069 205.277 9.43018 222.427 8.07779C239.637 6.71233 256.91 5.64505 273.936 4.84984C291.084 4.1174 307.985 3.64657 324.575 3.37452C332.87 3.23588 341.124 3.13648 349.249 3.09986C357.276 3.07631 365.526 3.13646 373.343 3.26202C404.887 3.63347 434.789 4.62749 461.811 6.44026C488.868 8.17718 513.298 10.4007 533.914 13.0688C544.257 14.3846 553.63 15.8128 561.989 17.2646C570.322 18.7164 577.641 20.2205 583.636 21.7456C595.727 24.8009 602.238 27.9032 604.331 29.9881C606.363 31.9866 605.97 33.08 606.074 33.1663" fill="#1B282D"/>
</g>
<g id="g42">
<path id="path44" d="M131.125 46.6224C131.539 36.347 132.02 24.8125 132.525 19.8469C129.077 20.7189 125.701 21.6512 122.465 22.6363C122.254 26.4912 122.014 30.3637 121.777 34.2185C121.658 36.0806 121.55 41.0738 121.45 46.6224H131.125Z" fill="#353F45"/>
</g>
<g id="g46">
<path id="path48" d="M195.34 46.6208C196.207 36.2145 197.362 16.5328 198.865 10.1922C199.079 9.32784 199.27 8.4764 199.508 7.6146C188.261 9.05611 177.084 10.7124 166.123 12.6534C162.01 13.3781 157.896 14.1519 153.853 14.9567C153.004 20.715 152.214 35.4097 151.553 46.6208H195.34" fill="#353F45"/>
</g>
<g id="g50">
<path id="path52" d="M583.368 46.6221C583.644 36.7576 583.895 26.2236 584.121 21.9367C581.267 20.5289 577.751 20.9566 573.583 19.503C568.761 17.8 563.033 16.1224 556.607 14.5135C556.157 19.7321 555.68 24.938 555.183 30.1465C555.004 32.0074 554.834 39.6597 554.673 46.6221H583.368Z" fill="#131D20"/>
</g>
<g id="g54">
<path id="path56" d="M456.09 46.6226H530.596C531.09 34.5477 531.823 17.7886 532.517 11.7172C529.903 11.2156 526.739 11.4925 523.981 11.0066C504.316 7.50067 481.615 5.95932 455.976 3.62377C456.212 6.62028 456.286 9.61417 456.312 12.6185C456.321 17.8539 456.234 39.4539 456.09 46.6226" fill="#131D20"/>
</g>
<path id="path58" d="M579.76 45.5806C574.577 46.7825 568.608 47.9644 561.991 49.1065C553.632 50.5571 544.259 51.9978 533.914 53.3116C513.298 55.9814 488.87 58.2059 461.812 59.9427C434.791 61.7441 404.931 62.7494 373.308 63.1201C365.386 63.2445 357.36 63.2943 349.251 63.2818C340.996 63.2445 332.87 63.1325 324.575 63.0081C307.985 62.7369 291.085 62.2642 273.936 61.5326C256.911 60.7364 239.638 59.6689 222.427 58.3054C205.277 56.9518 188.107 55.2747 171.434 53.1299C163.139 52.0575 154.929 50.9054 147.049 49.5518C139.852 48.3351 132.802 47.0562 126.312 45.5682C131.87 44.3266 138.381 43.0974 146.53 41.7314C153.766 40.4897 161.772 39.3103 171.02 38.1309C186.49 36.1329 203.223 34.4434 222.158 32.9554C238.85 31.6143 256.207 30.5219 273.792 29.7133C290.588 28.9942 307.654 28.499 324.533 28.2129C333.39 28.0909 341.453 28.0014 349.23 27.964C356.737 27.9516 364.43 27.9889 373.387 28.1009C406.423 28.499 436.241 29.5665 462.041 31.2933C489.681 33.0923 514.005 35.3267 534.325 37.9318C544.176 39.1984 553.653 40.6266 562.531 42.1668C569.061 43.3089 574.843 44.451 579.76 45.5806" fill="#ECB671"/>
<g id="g60">
<path id="path62" d="M602.933 34.1049L602.858 34.4028C602.858 34.5267 602.823 34.6269 602.748 34.6664C602.638 34.8035 602.532 34.9432 602.422 35.0908C602.277 35.2542 602.347 35.3781 602.061 35.6312C601.845 35.8552 601.594 36.0951 601.339 36.3587C599.274 38.4121 592.84 41.4778 580.899 44.4986C574.972 46.0143 567.733 47.4904 559.486 48.9191C551.243 50.3583 541.978 51.7765 531.741 53.0787C511.376 55.7094 487.25 57.8972 460.522 59.6291C433.83 61.4057 404.31 62.3995 373.051 62.7738C365.244 62.8739 357.283 62.9372 349.29 62.9108C341.152 62.8739 333.084 62.7843 324.908 62.6604C308.523 62.3836 291.811 61.9092 274.883 61.1948C258.027 60.404 240.99 59.3523 223.987 58C207.024 56.6583 190.058 55.0056 173.6 52.8889C165.393 51.8371 157.286 50.6878 149.51 49.3435C141.694 48.0413 134.102 46.6416 127.157 44.9994C120.21 43.3704 113.915 41.5173 109.284 39.4744C106.9 38.4622 105.234 37.3867 103.897 36.3323C102.702 35.2937 102.269 34.2657 102.125 33.2535V33.1744L102.196 32.8766L102.305 32.2861C102.34 32.1095 102.34 31.809 102.451 31.7589L102.665 31.4716C102.883 31.2607 102.774 31.1237 103.1 30.8337L103.897 30.0455C105.234 28.9911 106.9 27.9157 109.284 26.8982C113.915 24.858 120.21 23.0049 127.157 21.3758C134.102 19.7336 141.694 18.3339 149.51 17.0291C157.286 15.69 165.393 14.5381 173.6 13.4864C190.058 11.3671 207.024 9.71693 223.987 8.37522C240.99 7.02297 258.027 5.97123 274.883 5.18307C291.811 4.46609 308.523 3.9916 324.908 3.71746C333.117 3.59357 341.26 3.50131 349.29 3.46704C357.208 3.44068 365.39 3.50131 373.091 3.60411C404.275 3.98106 433.83 4.96955 460.522 6.7462C487.25 8.47803 511.376 10.6685 531.741 13.3019C541.978 14.6014 551.243 16.0195 559.486 17.4561C567.733 18.8875 574.972 20.3636 580.899 21.8793C592.84 24.8975 599.274 27.9631 601.339 30.0192C603.364 31.9988 602.968 33.0743 603.078 33.1639V33.1903C603.038 33.388 603.003 33.6779 602.933 34.1049V34.1049ZM616.715 31.896C616.675 31.4716 616.354 30.947 615.949 30.346C615.663 29.716 614.94 29.0439 614.139 28.2794C610.854 25.198 602.202 21.4259 588.754 18.0967C575.289 14.7385 557.244 11.7466 535.867 9.17919C514.489 6.59858 489.676 4.53197 462.328 2.9662C434.979 1.40044 405.072 0.422508 373.307 0.108828C341.659 -0.204853 308.127 0.135172 273.69 1.45052C256.505 2.10161 239.071 3.0163 221.565 4.24203C204.093 5.45721 186.515 6.99925 169.222 9.05267C151.971 11.0955 134.825 13.6234 119.086 17.182C111.277 18.985 103.825 21.0753 97.7148 23.706C94.6004 24.995 92.1033 26.487 90.0804 28.0659C89.2116 28.8804 88.3046 29.6844 87.8726 30.6202C87.1853 31.6113 87.2927 32.1965 87.0413 33.1903C87.1852 34.9537 88.1615 36.7093 90.0804 38.3093C92.1033 39.8882 94.6004 41.3829 97.7148 42.6692C103.825 45.3025 111.277 47.3929 119.086 49.1959C134.825 52.7518 151.971 55.285 169.222 57.3252C186.515 59.376 204.093 60.918 221.565 62.1332C239.071 63.3616 256.505 64.2736 273.69 64.9274C308.162 66.2401 341.588 66.5801 373.342 66.2691C405.032 65.9527 434.979 64.9774 462.328 63.409C489.676 61.8459 514.489 59.7793 535.867 57.1987C557.244 54.6286 575.289 51.6368 588.754 48.2785C602.202 44.9493 610.854 41.1772 614.139 38.0984C614.94 37.3366 615.663 36.6697 615.988 35.9949C616.385 35.3544 616.715 34.8035 616.715 34.4397C616.856 33.6779 616.962 33.2772 616.962 33.2772V33.1903C616.962 33.1903 616.891 32.75 616.715 31.896" fill="#DBDCD9"/>
</g>
<g id="g64">
<path id="path66" d="M586.788 92.8437C586.788 92.8437 606.088 78.5611 630.297 72.2599C654.506 65.9587 686.789 54.9286 686.789 48.5226C686.789 42.9202 662.225 38.2292 616.964 54.4045V52.7244C616.964 52.7244 641.173 41.3798 668.894 41.3798C696.614 41.3798 703.978 46.6299 703.978 59.6545C703.978 72.6792 662.93 85.7009 645.385 91.1636C627.841 96.6233 603.865 107.126 596.205 114.685C596.205 114.685 583.981 108.177 586.788 92.8437" fill="#DBDCD9"/>
</g>
<g id="g68">
<path id="path70" d="M600.155 90.0461C597.965 90.0461 596.192 94.0292 596.192 98.9387C596.192 103.848 597.965 107.829 600.155 107.829H604.121V90.0461H600.155" fill="#A7A9A8"/>
</g>
<g id="g72">
<path id="path74" d="M608.085 98.9373C608.085 103.847 606.314 107.83 604.121 107.83C601.928 107.83 600.153 103.847 600.153 98.9373C600.153 94.0305 601.928 90.0477 604.121 90.0477C606.314 90.0477 608.085 94.0305 608.085 98.9373Z" fill="white"/>
</g>
<path id="path76" d="M117.193 92.6925C117.193 92.6925 97.8941 78.4101 73.6844 72.1075C49.4731 65.8048 17.1923 54.7795 17.1923 48.3724C17.1923 42.7714 41.7545 38.0811 87.0175 54.257V52.5725C87.0175 52.5725 62.8061 41.2312 35.088 41.2312C7.36773 41.2312 0 46.4813 0 59.5047C0 72.5305 41.0529 85.5513 58.5961 91.013C76.1392 96.4746 100.114 106.975 107.775 114.539C107.775 114.539 120 108.027 117.193 92.6925" fill="#DBDCD9"/>
<path id="path78" d="M103.822 90.0475C106.012 90.0475 107.787 94.0287 107.787 98.9379C107.787 103.847 106.012 107.828 103.822 107.828H99.8572V90.0475H103.822" fill="#A7A9A8"/>
<path id="path80" d="M95.8923 98.9379C95.8923 103.847 97.6667 107.828 99.8572 107.828C102.047 107.828 103.822 103.847 103.822 98.9379C103.822 94.0287 102.047 90.0475 99.8572 90.0475C97.6667 90.0475 95.8923 94.0287 95.8923 98.9379Z" fill="white"/>
<path id="path82" d="M150.55 293.693C150.226 293.158 149.024 292.84 147.863 292.992C146.697 293.138 146.015 293.691 146.335 294.228L152.345 304.313C152.615 304.763 153.498 305.057 154.449 305.057C154.646 305.057 154.839 305.042 155.038 305.02C156.197 304.87 156.882 304.315 156.562 303.78L150.55 293.693" fill="#222849"/>
<path id="path84" d="M199.286 301.151C198.099 301.253 197.318 301.783 197.545 302.328L201.502 311.924C201.698 312.407 202.619 312.746 203.644 312.746L204.057 312.726C205.246 312.624 206.022 312.096 205.801 311.549L201.841 301.952C201.619 301.407 200.479 301.054 199.286 301.151Z" fill="#222849"/>
<path id="path86" d="M247.933 305.938C246.738 305.998 245.877 306.503 246.015 307.055L248.756 317.906C248.89 318.421 249.834 318.794 250.926 318.794L251.185 318.789C252.385 318.722 253.242 318.225 253.099 317.672L250.357 306.824C250.225 306.269 249.168 305.876 247.933 305.938" fill="#222849"/>
<path id="path88" d="M300.081 310.735C298.888 310.815 298.049 311.325 298.216 311.872L300.969 321.074C301.117 321.581 302.048 321.947 303.129 321.947L303.431 321.937C304.624 321.862 305.462 321.355 305.295 320.8L302.548 311.598C302.381 311.046 301.302 310.65 300.081 310.735" fill="#222849"/>
<path id="path90" d="M351.504 310.225C350.298 310.225 349.317 310.673 349.317 311.233V319.807C349.317 320.362 350.298 320.812 351.504 320.812C352.713 320.812 353.694 320.362 353.694 319.807V311.233C353.694 310.673 352.713 310.225 351.504 310.225Z" fill="#222849"/>
<path id="path92" d="M557.901 292.992C556.737 292.84 555.536 293.158 555.216 293.693L549.201 303.78C548.881 304.315 549.563 304.87 550.727 305.02C550.922 305.042 551.117 305.057 551.309 305.057C552.273 305.057 553.15 304.763 553.412 304.313L559.426 294.228C559.746 293.691 559.064 293.138 557.901 292.992Z" fill="#222849"/>
<path id="path94" d="M506.477 301.151C505.28 301.054 504.145 301.407 503.917 301.952L499.968 311.549C499.739 312.096 500.517 312.624 501.705 312.726L502.117 312.746C503.144 312.746 504.062 312.407 504.262 311.924L508.214 302.328C508.451 301.783 507.67 301.253 506.477 301.151Z" fill="#222849"/>
<path id="path96" d="M457.826 305.938C456.591 305.876 455.544 306.269 455.398 306.824L452.659 317.672C452.518 318.225 453.378 318.722 454.58 318.789L454.833 318.794C455.93 318.794 456.878 318.421 457.003 317.906L459.746 307.055C459.887 306.503 459.027 305.998 457.826 305.938" fill="#222849"/>
<path id="path98" d="M405.683 310.735C404.461 310.65 403.38 311.046 403.218 311.598L400.467 320.8C400.3 321.355 401.14 321.862 402.337 321.937L402.632 321.947C403.709 321.947 404.648 321.581 404.798 321.074L407.549 311.872C407.716 311.325 406.876 310.815 405.683 310.735" fill="#222849"/>
<path id="path100" d="M159.231 290.608V290.67C159.145 290.931 159.059 291.195 158.929 291.454C157.877 293.591 154.901 295.487 149.262 296.983C147.471 297.448 145.766 297.789 144.148 298.03H144.101C143.402 298.112 142.662 298.194 141.964 298.252H141.87C111.61 300.369 107.454 259.406 107.72 259.042C107.72 259.042 162.293 278.343 159.231 290.608" fill="#54B5E9"/>
<path id="path102" d="M159.231 290.608V290.67C159.145 290.931 159.059 291.195 158.929 291.454C157.877 293.591 154.901 295.487 149.262 296.983C147.471 297.448 145.766 297.789 144.148 298.03H144.101C143.402 298.112 142.662 298.194 141.964 298.252H141.87C121.842 296.356 119.004 267.995 119.18 267.734C119.18 267.734 156.873 281.085 159.231 290.608Z" fill="#75C2ED"/>
<path id="path104" d="M158.929 291.454C157.877 293.591 154.901 295.487 149.262 296.983C147.471 297.448 145.766 297.789 144.148 298.03H144.101C130.024 295.229 127.965 274.736 128.102 274.554C128.102 274.554 155.165 284.131 158.929 291.454Z" fill="#C7E5F8"/>
<path id="path106" d="M213.922 298.69L213.908 298.749C213.765 299.008 213.627 299.267 213.443 299.521C211.969 301.603 208.626 303.365 202.713 304.609C200.831 304.995 199.065 305.261 197.402 305.435L197.362 305.43C196.646 305.482 195.892 305.532 195.182 305.562L195.096 305.555C164.54 306.371 168.648 265.405 168.992 265.054C168.992 265.054 219.436 286.609 213.922 298.69Z" fill="#54B5E9"/>
<path id="path108" d="M213.922 298.69L213.908 298.749C213.765 299.008 213.627 299.267 213.444 299.521C211.969 301.603 208.626 303.365 202.713 304.609C200.831 304.995 199.065 305.261 197.402 305.435L197.362 305.43C196.646 305.483 195.892 305.532 195.183 305.562L195.097 305.555C175.535 302.813 178.417 274.454 178.643 274.203C178.643 274.203 213.488 289.11 213.922 298.69Z" fill="#75C2ED"/>
<path id="path110" d="M213.444 299.521C211.969 301.603 208.626 303.365 202.713 304.609C200.831 304.995 199.065 305.261 197.402 305.435L197.362 305.43C183.905 302.039 185.985 281.543 186.157 281.372C186.157 281.372 211.175 292.068 213.444 299.521Z" fill="#C7E5F8"/>
<path id="path112" d="M261.888 304.211L261.871 304.273C261.71 304.525 261.547 304.781 261.34 305.035C259.675 307.088 256.171 308.782 250.147 309.904C248.231 310.255 246.44 310.491 244.77 310.631L244.728 310.626C244.011 310.663 243.25 310.695 242.539 310.713L242.451 310.708C211.849 310.922 219.721 270.075 220.086 269.729C220.086 269.729 268.513 292.255 261.888 304.211" fill="#54B5E9"/>
<path id="path114" d="M261.887 304.211L261.871 304.273C261.71 304.525 261.547 304.781 261.34 305.035C259.675 307.088 256.171 308.782 250.147 309.904C248.231 310.255 246.44 310.491 244.77 310.631L244.728 310.626C244.011 310.663 243.25 310.695 242.539 310.713L242.451 310.708C223.161 307.58 228.647 279.304 228.892 279.055C228.892 279.055 262.337 294.634 261.887 304.211Z" fill="#75C2ED"/>
<path id="path116" d="M261.34 305.035C259.675 307.087 256.171 308.782 250.147 309.904C248.231 310.255 246.44 310.491 244.77 310.631L244.728 310.626C231.596 306.971 235.554 286.537 235.734 286.368C235.734 286.368 259.754 297.545 261.34 305.035Z" fill="#C7E5F8"/>
<path id="path118" d="M286.742 271.702C286.199 272.009 258.554 311.681 290.369 314.435L290.46 314.453C291.205 314.505 292.013 314.545 292.769 314.579L292.811 314.587C294.618 314.612 296.579 314.555 298.73 314.393C305.516 313.863 309.953 312.524 312.663 310.651C312.992 310.424 313.283 310.188 313.57 309.954L313.613 309.894C326.186 298.697 286.742 271.702 286.742 271.702" fill="#54B5E9"/>
<path id="path120" d="M313.612 309.894L313.57 309.954C313.283 310.188 312.992 310.424 312.663 310.651C309.953 312.524 305.516 313.863 298.73 314.393C296.579 314.555 294.618 314.612 292.811 314.587L292.769 314.579C292.013 314.545 291.205 314.505 290.46 314.453L290.369 314.435C271.869 309.474 291.041 282.014 291.418 281.792C291.418 281.792 318.652 300.451 313.612 309.894" fill="#75C2ED"/>
<path id="path122" d="M312.663 310.651C309.953 312.524 305.516 313.863 298.73 314.393C296.579 314.555 294.618 314.612 292.811 314.587L292.769 314.579C280.9 309.685 294.753 289.842 295.025 289.692C295.025 289.692 314.592 303.086 312.663 310.651Z" fill="#C7E5F8"/>
<path id="path124" d="M347.43 271.887C346.832 272.173 313.21 310.85 344.533 314.632L344.621 314.647C345.352 314.721 346.15 314.791 346.898 314.848L346.944 314.856C348.74 314.94 350.706 314.945 352.875 314.856C359.725 314.545 364.355 313.358 367.34 311.579C367.706 311.36 368.03 311.131 368.358 310.909L368.408 310.85C382.66 300.091 347.43 271.887 347.43 271.887" fill="#54B5E9"/>
<path id="path126" d="M368.408 310.85L368.358 310.909C368.03 311.131 367.706 311.36 367.34 311.579C364.355 313.358 359.725 314.545 352.875 314.856C350.706 314.945 348.74 314.94 346.944 314.856L346.898 314.848C346.15 314.791 345.352 314.721 344.62 314.647L344.533 314.632C326.831 309.078 350.144 282.302 350.556 282.101C350.556 282.101 374.871 301.596 368.408 310.85" fill="#75C2ED"/>
<path id="path128" d="M367.34 311.579C364.355 313.358 359.725 314.545 352.875 314.856C350.706 314.945 348.74 314.94 346.944 314.856L346.898 314.848C335.809 309.583 352.651 290.237 352.946 290.095C352.946 290.095 370.424 304.092 367.34 311.579" fill="#C7E5F8"/>
<g id="g130">
<path id="path132" d="M544.741 290.609V290.671C544.834 290.932 544.922 291.196 545.052 291.455C546.095 293.592 549.068 295.488 554.715 296.983C556.506 297.449 558.214 297.79 559.832 298.031H559.874C560.577 298.113 561.317 298.195 562.019 298.252H562.103C592.361 300.37 596.52 259.406 596.255 259.043C596.255 259.043 541.684 278.344 544.741 290.609" fill="#54B5E9"/>
</g>
<path id="path134" d="M544.745 290.608V290.67C544.837 290.931 544.924 291.195 545.053 291.454C546.096 293.591 549.072 295.487 554.717 296.983C556.508 297.448 558.217 297.789 559.833 298.03H559.879C560.577 298.112 561.321 298.194 562.02 298.252H562.107C582.133 296.356 584.98 267.995 584.801 267.734C584.801 267.734 547.111 281.085 544.745 290.608Z" fill="#75C2ED"/>
<path id="path136" d="M545.053 291.454C546.096 293.591 549.072 295.487 554.717 296.983C556.508 297.448 558.217 297.789 559.833 298.03H559.879C573.953 295.229 576.015 274.736 575.882 274.554C575.882 274.554 548.811 284.131 545.053 291.454Z" fill="#C7E5F8"/>
<path id="path138" d="M490.059 298.69L490.076 298.749C490.209 299.008 490.35 299.267 490.533 299.521C492.004 301.603 495.354 303.365 501.269 304.609C503.148 304.995 504.914 305.261 506.577 305.435L506.623 305.43C507.329 305.482 508.081 305.532 508.792 305.562L508.884 305.555C539.438 306.371 535.323 265.405 534.99 265.054C534.99 265.054 484.544 286.609 490.059 298.69" fill="#54B5E9"/>
<path id="path140" d="M490.059 298.69L490.076 298.749C490.209 299.008 490.35 299.267 490.533 299.521C492.004 301.603 495.355 303.365 501.269 304.609C503.148 304.995 504.914 305.261 506.577 305.435L506.623 305.43C507.329 305.483 508.082 305.532 508.792 305.562L508.884 305.555C528.444 302.813 525.564 274.454 525.335 274.203C525.335 274.203 490.491 289.11 490.059 298.69Z" fill="#75C2ED"/>
<path id="path142" d="M490.533 299.521C492.004 301.603 495.354 303.365 501.269 304.609C503.148 304.995 504.914 305.261 506.577 305.435L506.623 305.43C520.073 302.039 517.995 281.543 517.824 281.372C517.824 281.372 492.802 292.068 490.533 299.521Z" fill="#C7E5F8"/>
<path id="path144" d="M442.089 304.211L442.106 304.273C442.268 304.525 442.43 304.781 442.638 305.035C444.305 307.088 447.805 308.782 453.831 309.904C455.743 310.255 457.535 310.491 459.214 310.631L459.256 310.626C459.966 310.663 460.731 310.695 461.442 310.713L461.525 310.708C492.129 310.922 484.261 270.075 483.891 269.729C483.891 269.729 435.468 292.255 442.089 304.211" fill="#54B5E9"/>
<path id="path146" d="M442.089 304.211L442.106 304.273C442.268 304.525 442.43 304.781 442.638 305.035C444.305 307.088 447.804 308.782 453.831 309.904C455.743 310.255 457.535 310.491 459.214 310.631L459.256 310.626C459.966 310.663 460.731 310.695 461.442 310.713L461.525 310.708C480.819 307.58 475.337 279.304 475.083 279.055C475.083 279.055 441.645 294.634 442.089 304.211Z" fill="#75C2ED"/>
<path id="path148" d="M442.638 305.035C444.305 307.087 447.805 308.782 453.831 309.904C455.743 310.255 457.535 310.491 459.214 310.631L459.256 310.626C472.386 306.971 468.429 286.537 468.238 286.368C468.238 286.368 444.218 297.545 442.638 305.035Z" fill="#C7E5F8"/>
<path id="path150" d="M417.242 271.702C417.782 272.009 445.427 311.681 413.601 314.435L413.522 314.453C412.774 314.505 411.968 314.545 411.207 314.579L411.17 314.587C409.361 314.612 407.395 314.555 405.247 314.393C398.459 313.863 394.028 312.524 391.318 310.651C390.986 310.424 390.699 310.188 390.408 309.954L390.366 309.894C377.785 298.697 417.242 271.702 417.242 271.702Z" fill="#54B5E9"/>
<path id="path152" d="M390.367 309.894L390.408 309.954C390.699 310.188 390.986 310.424 391.318 310.651C394.028 312.524 398.459 313.863 405.247 314.393C407.396 314.555 409.362 314.612 411.17 314.587L411.207 314.579C411.968 314.545 412.774 314.505 413.522 314.453L413.601 314.435C432.106 309.474 412.94 282.014 412.562 281.792C412.562 281.792 385.329 300.451 390.367 309.894" fill="#75C2ED"/>
<path id="path154" d="M391.318 310.651C394.028 312.524 398.459 313.863 405.247 314.393C407.396 314.555 409.362 314.612 411.17 314.587L411.207 314.579C423.078 309.685 409.224 289.842 408.95 289.692C408.95 289.692 389.39 303.086 391.318 310.651Z" fill="#C7E5F8"/>
<path id="path156" d="M208.739 36.5957C208.415 36.5708 207.951 36.5807 207.272 36.6131C203.71 36.7873 198.152 40.2832 197.115 41.8334C195.436 44.3465 199.934 45.8469 204.179 46.2649C208.271 46.668 214.42 46.8994 217.973 45.6379C222.24 44.12 220.888 42.8934 216.524 42.3833C209.773 41.5895 210.485 41.0695 209.636 37.9567C209.384 37.0361 209.704 36.6678 208.739 36.5957Z" fill="#F4675E"/>
<path id="path158" d="M324.184 50.9701C323.861 50.9453 323.396 50.9552 322.719 50.9876C319.156 51.1592 313.598 54.6552 312.56 56.2079C310.882 58.7185 315.379 60.2239 319.626 60.6394C323.716 61.0425 329.865 61.2739 333.419 60.0124C337.687 58.4945 336.337 57.2678 331.972 56.7553C325.218 55.9615 325.931 55.4415 325.082 52.3312C324.83 51.4081 325.152 51.0398 324.184 50.9701Z" fill="#F4675E"/>
<path id="path160" d="M449.367 34.018C445.905 33.5875 435.161 33.6024 431.628 34.6176C430.954 34.8117 430.518 34.9486 430.26 35.0605C429.491 35.3915 430.385 35.4736 431.644 35.9936C435.909 37.7602 437.405 37.7951 432.525 40.2559C429.366 41.8459 430.123 42.8586 436.478 42.2788C441.769 41.7961 447.011 39.7906 450.095 38.3375C453.299 36.8271 454.97 34.7171 449.367 34.018" fill="#F4675E"/>
<path id="path162" d="M466.164 51.6693C463.1 50.7014 452.88 48.8801 448.997 49.1562C448.258 49.211 447.767 49.2558 447.468 49.3105C446.566 49.4673 447.368 49.6887 448.295 50.3605C451.425 52.6298 452.834 52.9134 446.911 54.2222C443.083 55.0682 443.274 56.0759 449.617 56.6607C454.895 57.1459 460.918 56.2949 464.605 55.5584C468.437 54.792 471.126 53.2369 466.164 51.6693" fill="#F4675E"/>
<path id="path164" d="M277.539 32.6692C275.201 35.9661 270.018 36.4786 260.743 36.4786C251.467 36.4786 246.229 35.2295 243.947 32.6692C243.947 29.0986 251.467 26.2023 260.743 26.2023C270.018 26.2023 277.539 29.0986 277.539 32.6692Z" fill="#FEF0C0"/>
<path id="path166" d="M245.7 31.2783C245.699 31.2783 245.747 31.1215 245.961 30.915C246.2 30.711 246.536 30.487 247.143 30.1934C247.445 30.0516 247.772 29.8949 248.132 29.7456C248.48 29.5789 248.881 29.4768 249.278 29.3375C249.68 29.2131 250.069 29.0563 250.514 28.9543C250.941 28.8399 251.375 28.7204 251.796 28.5861C252.68 28.3895 253.496 28.0859 254.3 27.8495C255.094 27.5858 255.87 27.3992 256.559 27.2972C257.931 27.0832 258.916 27.2225 258.916 27.2225C259.523 27.3071 259.897 27.6729 259.754 28.0362C259.688 28.2054 259.515 28.3472 259.295 28.4393C259.295 28.4393 259.095 28.5214 258.738 28.6308C258.382 28.7378 257.846 28.8399 257.218 28.9344C256.585 29.0315 255.815 29.0713 255 29.136C254.162 29.1782 253.321 29.3201 252.526 29.5341C251.759 29.7704 251.013 30.0342 250.415 30.3552C250.113 30.5094 249.787 30.6438 249.571 30.8031C249.338 30.9573 249.105 31.0892 248.889 31.2086C248.451 31.44 248.124 31.7834 247.804 31.9103C247.486 32.0571 247.234 32.1044 247.234 32.1044C246.591 32.2188 245.918 31.9999 245.728 31.6167L245.7 31.2783" fill="white"/>
<path id="path168" d="M287.412 52.2913C285.074 55.5882 279.89 56.1033 270.616 56.1033C261.34 56.1033 256.103 54.8542 253.82 52.2913C253.82 48.7207 261.34 45.8244 270.616 45.8244C279.89 45.8244 287.412 48.7207 287.412 52.2913Z" fill="#FEF0C0"/>
<path id="path170" d="M255.572 50.9004C255.572 50.9004 255.62 50.7436 255.834 50.5371C256.073 50.3331 256.409 50.1092 257.017 49.8155C257.317 49.6737 257.643 49.517 258.005 49.3677C258.353 49.2035 258.754 49.0989 259.15 48.9596C259.553 48.8352 259.941 48.676 260.387 48.5789C260.814 48.462 261.248 48.3425 261.668 48.2082C262.553 48.0141 263.37 47.7081 264.174 47.4717C264.967 47.2079 265.742 47.0238 266.432 46.9218C267.802 46.7078 268.788 46.8471 268.788 46.8471C269.395 46.9342 269.77 47.2975 269.627 47.6608C269.561 47.8275 269.387 47.9693 269.168 48.0614C269.168 48.0614 268.968 48.146 268.611 48.2555C268.255 48.3649 267.719 48.462 267.089 48.5565C266.458 48.6536 265.688 48.6934 264.872 48.7581C264.036 48.8004 263.194 48.9472 262.399 49.1562C261.631 49.3926 260.886 49.6588 260.286 49.9773C259.986 50.134 259.66 50.2684 259.442 50.4276C259.21 50.5794 258.976 50.7138 258.76 50.8307C258.324 51.0621 257.997 51.403 257.677 51.5324C257.359 51.6842 257.106 51.7265 257.106 51.7265C256.465 51.8409 255.791 51.6219 255.601 51.2388L255.572 50.9004" fill="white"/>
<path id="path172" d="M415.035 31.9849C412.695 35.2843 407.516 35.7969 398.239 35.7969C388.966 35.7969 383.724 34.5478 381.443 31.9849C381.443 28.4168 388.966 25.5205 398.239 25.5205C407.516 25.5205 415.035 28.4168 415.035 31.9849Z" fill="#FEF0C0"/>
<path id="path174" d="M383.192 30.5941C383.192 30.5941 383.242 30.4398 383.454 30.2358C383.695 30.0268 384.032 29.8028 384.639 29.5117C384.938 29.3674 385.266 29.2131 385.628 29.0613C385.977 28.8971 386.376 28.7926 386.771 28.6533C387.174 28.5289 387.565 28.3721 388.01 28.2725C388.438 28.1556 388.87 28.0362 389.294 27.9043C390.175 27.7077 390.99 27.4041 391.796 27.1653C392.59 26.9015 393.363 26.7174 394.053 26.6154C395.425 26.4014 396.414 26.5407 396.414 26.5407C397.017 26.6278 397.391 26.9911 397.25 27.3544C397.183 27.5211 397.008 27.6629 396.792 27.755C396.792 27.755 396.589 27.8371 396.231 27.9491C395.878 28.0586 395.342 28.1556 394.71 28.2526C394.078 28.3497 393.309 28.387 392.495 28.4542C391.655 28.494 390.815 28.6408 390.021 28.8498C389.253 29.0862 388.509 29.3525 387.91 29.6734C387.611 29.8277 387.282 29.9596 387.066 30.1188C386.833 30.2756 386.601 30.4075 386.38 30.5294C385.944 30.7558 385.62 31.0992 385.3 31.2261C384.984 31.3779 384.73 31.4227 384.73 31.4227C384.086 31.5346 383.413 31.3181 383.221 30.935L383.192 30.5941" fill="white"/>
<path id="path176" d="M500.072 41.505C497.736 44.7994 492.553 45.3169 483.276 45.3169C474.003 45.3169 468.766 44.0678 466.484 41.505C466.484 37.9319 474.003 35.0381 483.276 35.0381C492.553 35.0381 500.072 37.9319 500.072 41.505Z" fill="#FEF0C0"/>
<path id="path178" d="M468.238 40.114C468.238 40.114 468.283 39.9572 468.5 39.7507C468.737 39.5492 469.073 39.3228 469.68 39.0291C469.983 38.8873 470.308 38.7306 470.665 38.5813C471.014 38.4121 471.417 38.31 471.812 38.1732C472.215 38.0463 472.602 37.8895 473.051 37.7925C473.479 37.6731 473.907 37.5536 474.331 37.4243C475.216 37.2277 476.035 36.9216 476.837 36.6853C477.631 36.4165 478.409 36.2349 479.094 36.1354C480.466 35.9214 481.451 36.0582 481.451 36.0582C482.058 36.1478 482.436 36.5111 482.291 36.8719C482.22 37.0411 482.05 37.1804 481.834 37.275C481.834 37.275 481.63 37.3571 481.272 37.4665C480.915 37.5735 480.383 37.6731 479.755 37.7701C479.119 37.8671 478.35 37.907 477.536 37.9741C476.7 38.014 475.857 38.1583 475.063 38.3698C474.294 38.6062 473.546 38.8724 472.951 39.1909C472.652 39.3451 472.319 39.4795 472.107 39.6412C471.875 39.793 471.642 39.9224 471.422 40.0443C470.985 40.2757 470.661 40.6166 470.337 40.746C470.021 40.8953 469.767 40.9401 469.767 40.9401C469.127 41.0545 468.454 40.8356 468.263 40.4524C468.209 40.3379 468.2 40.221 468.238 40.114" fill="white"/>
<path id="path180" d="M365.307 39.4098C362.967 42.7067 357.784 43.2192 348.511 43.2192C339.234 43.2192 333.997 41.9727 331.715 39.4098C331.715 35.8392 339.234 32.9429 348.511 32.9429C357.784 32.9429 365.307 35.8392 365.307 39.4098Z" fill="#FEF0C0"/>
<path id="path182" d="M333.465 38.019C333.465 38.019 333.514 37.8623 333.726 37.6557C333.967 37.4517 334.304 37.2278 334.911 36.9342C335.21 36.7923 335.539 36.6356 335.9 36.4863C336.245 36.3196 336.648 36.2175 337.043 36.0782C337.446 35.9513 337.837 35.7946 338.282 35.695C338.706 35.5781 339.142 35.4611 339.562 35.3267C340.447 35.1327 341.262 34.8241 342.068 34.5902C342.862 34.3265 343.635 34.1424 344.325 34.0379C345.697 33.8239 346.682 33.9632 346.682 33.9632C347.289 34.0478 347.663 34.4136 347.522 34.7769C347.455 34.9461 347.281 35.0879 347.06 35.18C347.06 35.18 346.861 35.2621 346.503 35.3716C346.15 35.481 345.614 35.5781 344.982 35.6751C344.35 35.7697 343.581 35.812 342.767 35.8767C341.927 35.919 341.088 36.0608 340.294 36.2748C339.525 36.5112 338.781 36.7774 338.182 37.0959C337.879 37.2502 337.554 37.3845 337.338 37.5438C337.106 37.698 336.873 37.8299 336.657 37.9518C336.216 38.1807 335.892 38.5241 335.572 38.651C335.252 38.7978 335.002 38.8451 335.002 38.8451C334.358 38.9596 333.685 38.7406 333.494 38.3574L333.465 38.019" fill="white"/>
<path id="path184" d="M304.199 52.6621L303.721 52.57C301.518 51.6295 299.893 50.3754 298.325 49.1637C296.727 47.932 295.074 46.658 292.809 45.7175C290.474 44.7496 287.57 43.5428 287.417 41.9677C287.33 41.0446 288.153 40.1389 289.934 39.2008C291.463 38.3971 293.66 37.9518 295.785 37.5188C298.93 36.8793 301.9 36.2747 302.898 34.6449C303.895 33.0176 302.583 32.622 299.763 31.9477C299.094 31.7859 298.416 31.6242 297.791 31.4301C297.386 31.3082 297.227 31.0121 297.435 30.7683C297.644 30.5294 298.138 30.4349 298.542 30.5568C299.124 30.7359 299.753 30.8852 300.374 31.032C302.895 31.6367 306.034 32.3856 304.443 34.9858C303.173 37.056 299.685 37.7651 296.313 38.4494C294.251 38.8699 292.304 39.2655 291.02 39.9423C289.661 40.6564 289.003 41.3208 289.06 41.908C289.159 42.9257 291.241 43.8687 293.746 44.9063C296.219 45.9315 297.95 47.2677 299.624 48.559C301.19 49.7683 302.669 50.9129 304.678 51.7689C305.046 51.9281 305.134 52.2341 304.869 52.4581C304.709 52.5899 304.455 52.6621 304.199 52.6621" fill="#FEF0C0"/>
<path id="path186" d="M243.123 47.3496L242.82 47.3148C235.325 45.5307 230.786 43.9308 228.944 42.4279C226.949 40.7982 227.796 39.8999 228.616 39.0291C229.017 38.6036 229.433 38.1656 229.65 37.5635C229.915 36.832 229.72 36.2597 229.056 35.8168C227.473 34.7568 223.026 34.3462 217.159 34.7095C216.694 34.7319 216.301 34.5378 216.254 34.2691C216.207 33.9979 216.536 33.7541 216.988 33.7292C220.798 33.4903 227.592 33.3634 230.282 35.1599C231.308 35.8466 231.638 36.7225 231.259 37.77C230.988 38.519 230.467 39.0714 230.05 39.5143C229.287 40.3229 228.904 40.731 230.271 41.8457C231.902 43.1769 236.329 44.7096 243.427 46.3991C243.849 46.5011 244.057 46.7873 243.89 47.0411C243.76 47.2327 243.451 47.3496 243.123 47.3496" fill="#FEF0C0"/>
<path id="path188" d="M200.448 51.8359L200.299 51.8285C199.471 51.7389 198.185 51.6991 196.696 51.6543C192.645 51.5299 187.604 51.3781 185.796 50.0245C184.701 49.2084 184.998 48.2604 185.259 47.4218C185.469 46.7525 185.649 46.1753 185.181 45.7299C184.866 45.4313 183.337 44.6773 175.937 44.1125C173.482 43.9234 171.3 44.2792 168.992 44.6574C166.961 44.9859 164.855 45.3243 162.571 45.2695C162.116 45.2571 161.764 45.0307 161.783 44.757C161.801 44.4857 162.24 44.2792 162.639 44.2867C164.688 44.3389 166.565 44.0279 168.56 43.7069C170.924 43.3213 173.368 42.9256 176.144 43.1371C182.263 43.6049 185.576 44.2618 186.573 45.2048C187.386 45.9762 187.115 46.8396 186.876 47.606C186.652 48.3226 186.457 48.9471 187.079 49.4099C188.425 50.4152 193.452 50.5694 196.779 50.669C198.326 50.7163 199.661 50.7561 200.594 50.8581C201.041 50.9103 201.338 51.1641 201.255 51.4304C201.184 51.6692 200.838 51.8359 200.448 51.8359" fill="#FEF0C0"/>
<path id="path190" d="M311.192 48.7432C310.826 48.7432 310.459 48.7357 310.091 48.7133C309.638 48.6859 309.309 48.4446 309.352 48.1734C309.396 47.9047 309.796 47.7081 310.25 47.733C313.225 47.9071 316.113 47.2229 319.168 46.5038C321.479 45.9589 323.869 45.394 326.324 45.2273C330.468 44.9437 334.371 45.5433 338.141 46.1256C341.162 46.5909 344.288 47.0736 347.463 47.0736C347.921 47.0736 348.286 47.295 348.286 47.5662C348.286 47.8375 347.921 48.0589 347.463 48.0589C344.08 48.0589 340.851 47.5613 337.729 47.0786C333.938 46.4938 330.356 45.9414 326.51 46.2052C324.268 46.3595 322.085 46.872 319.772 47.4194C317.008 48.0713 314.161 48.7432 311.192 48.7432" fill="#FEF0C0"/>
<path id="path192" d="M393.829 41.8383L393.38 41.7586C389.481 40.2383 386.339 39.4645 382.178 38.9942C381.538 38.9221 380.819 38.8574 380.063 38.7902C376.28 38.4443 371.571 38.0164 369.302 36.2174C367.689 34.9385 367.917 33.0773 369.888 31.4724C371.874 29.8576 374.813 29.1708 377.378 29.7182C377.806 29.8128 378.026 30.0939 377.876 30.3527C377.722 30.6065 377.249 30.7384 376.825 30.6463C374.555 30.1586 372.386 31.1017 371.213 32.0571C369.958 33.0748 369.293 34.5727 370.615 35.6227C372.481 37.1007 376.825 37.4963 380.308 37.8148C381.093 37.8845 381.825 37.9517 382.482 38.0263C386.875 38.524 390.179 39.3401 394.278 40.9326C394.66 41.0794 394.764 41.3879 394.519 41.6168C394.357 41.7586 394.095 41.8383 393.829 41.8383" fill="#FEF0C0"/>
<path id="path194" d="M400.113 52.4132L399.939 52.4008C397.258 52.0524 394.207 52.0126 390.977 51.9728C386.58 51.9156 382.029 51.8608 378.392 50.9427C375.848 50.3032 374.281 48.7904 372.897 47.4543C372.602 47.1631 372.303 46.8795 372.007 46.6108C371.754 46.3818 371.858 46.0783 372.236 45.9265C372.618 45.7772 373.125 45.8394 373.375 46.0659C373.687 46.3445 373.99 46.6357 374.298 46.9367C375.611 48.2057 376.97 49.517 379.032 50.037C382.378 50.878 386.767 50.9327 391.015 50.9875C394.178 51.0273 397.453 51.0671 400.288 51.4378C400.733 51.4976 401.015 51.7588 400.92 52.0251C400.832 52.2565 400.492 52.4132 400.113 52.4132" fill="#FEF0C0"/>
<path id="path196" d="M421.64 43.8662L421.357 43.8363C419.665 43.4656 418.136 43.0675 416.656 42.6868C411.589 41.368 407.583 40.3304 401.61 41.5397C401.186 41.6343 400.716 41.4924 400.566 41.2361C400.421 40.9749 400.654 40.6962 401.082 40.6091C407.657 39.2754 412.13 40.4374 417.313 41.7835C418.768 42.1593 420.276 42.5524 421.922 42.9107C422.35 43.0053 422.567 43.2889 422.413 43.5427C422.292 43.7418 421.972 43.8662 421.64 43.8662" fill="#FEF0C0"/>
<path id="path198" d="M350.481 59.7137C350.174 59.7137 349.874 59.6092 349.737 59.4326C349.542 59.1838 349.721 58.8901 350.132 58.7757L351.574 58.3651C356.895 56.8498 361.932 55.4265 368.192 55.6032C372.244 55.7226 376.139 56.2004 379.909 56.6657C384.19 57.1907 388.625 57.7381 393.259 57.7455C393.712 57.7455 394.082 57.9645 394.078 58.2382C394.078 58.5095 393.712 58.7284 393.259 58.7284H393.255C388.454 58.7209 383.941 58.1661 379.576 57.6311C375.869 57.1733 372.037 56.7005 368.113 56.586C362.24 56.4119 357.41 57.7928 352.281 59.2559L350.83 59.664L350.481 59.7137" fill="#FEF0C0"/>
<path id="path200" d="M405.733 54.7472C405.313 54.7472 404.956 54.5556 404.914 54.3018C404.873 54.0331 405.205 53.7917 405.658 53.7668C407.454 53.6648 409.129 53.3314 410.904 52.9805C413.098 52.5426 415.351 52.1022 417.886 52.1196C420.002 52.1395 422.03 52.2291 423.992 52.3112C427.908 52.4804 431.611 52.6397 435.784 52.2913C436.237 52.2515 436.649 52.4431 436.715 52.7118C436.778 52.9805 436.462 53.2269 436.013 53.2667C431.669 53.63 427.883 53.4682 423.872 53.2965C421.935 53.2095 419.927 53.1224 417.862 53.1049C415.667 53.085 413.58 53.4882 411.419 53.9161C409.636 54.267 407.795 54.6352 405.812 54.7472H405.733Z" fill="#FEF0C0"/>
<path id="path202" d="M501.261 50.9327C500.899 50.9327 500.571 50.7934 500.467 50.5769C500.342 50.3157 500.591 50.042 501.028 49.9673C505.995 49.1089 513.423 47.8996 520.617 47.3248C521.075 47.2949 521.482 47.4816 521.54 47.7503C521.602 48.019 521.287 48.2678 520.834 48.3002C513.751 48.8675 506.398 50.0643 501.489 50.9153L501.261 50.9327" fill="#FEF0C0"/>
<path id="path204" d="M541.138 44.2395C535.531 44.2395 530.352 43.2741 525.339 42.341C520.401 41.4203 515.301 40.4723 509.835 40.4624C509.387 40.4624 509.017 40.2409 509.017 39.9672C509.017 39.6985 509.387 39.477 509.84 39.477H509.844C515.555 39.4845 520.779 40.4599 525.829 41.4004C531.021 42.3684 535.963 43.2915 541.366 43.2517H541.375C541.828 43.2517 542.193 43.4706 542.198 43.7394C542.202 44.0156 541.836 44.2345 541.379 44.237L541.138 44.2395" fill="#FEF0C0"/>
<path id="path206" d="M313.637 31.8333C312.723 31.8333 311.84 31.7238 311.021 31.4426C310.627 31.3082 310.49 31.0072 310.718 30.7708C310.945 30.5344 311.447 30.4548 311.84 30.5891C313.501 31.1589 315.84 30.6787 318.104 30.2159C319.276 29.9745 320.383 29.7506 321.424 29.6585C327.255 29.146 333.643 29.8526 339.279 30.4722L339.824 30.5319C340.269 30.5792 340.568 30.8355 340.485 31.1067C340.402 31.3729 339.982 31.5546 339.525 31.4998L338.984 31.4401C333.473 30.833 327.222 30.1462 321.662 30.6364C320.771 30.7135 319.734 30.9251 318.636 31.149C317.032 31.4774 315.288 31.8333 313.637 31.8333" fill="#FEF0C0"/>
<path id="path208" d="M276.539 40.8779L276.526 40.8829C273.612 41.8234 271.032 41.6642 268.541 41.5124C267.305 41.4377 266.029 41.3581 264.693 41.4104C262.818 41.4825 261.196 41.9254 259.48 42.3982C258.936 42.5475 258.385 42.6968 257.822 42.8386C257.405 42.9431 256.923 42.8237 256.747 42.5748C256.573 42.3235 256.776 42.0274 257.19 41.9279C257.736 41.7936 258.267 41.6467 258.796 41.5024C260.572 41.0147 262.409 40.5096 264.586 40.425C266.06 40.3703 267.404 40.4524 268.707 40.532C271.158 40.6813 273.275 40.8132 275.745 40.017C276.145 39.8851 276.643 39.9772 276.859 40.216C277.073 40.4524 276.928 40.746 276.539 40.8779" fill="#FEF0C0"/>
<path id="path210" d="M287.222 61.0325C285.327 61.0325 283.469 60.9379 281.731 60.6866C281.29 60.6194 281.02 60.3532 281.127 60.0894C281.236 59.8232 281.683 59.6614 282.121 59.7286C286.182 60.3208 290.929 59.9774 295.519 59.6465C296.852 59.5495 298.156 59.4549 299.403 59.3852C299.853 59.3628 300.255 59.5619 300.296 59.8331C300.336 60.1043 300.003 60.3432 299.55 60.3681C298.32 60.4353 297.034 60.5273 295.717 60.6244C293.002 60.8185 290.073 61.0325 287.222 61.0325" fill="#FEF0C0"/>
<path id="path212" d="M225.54 55.0035C223.593 55.0035 222.309 54.3367 221.055 53.6848C220.273 53.2817 219.463 52.8612 218.454 52.5875C216.225 51.9853 214.358 52.463 211.968 53.2045C211.564 53.3289 211.067 53.2369 210.859 52.9955C210.649 52.7542 210.807 52.4581 211.21 52.3312C213.83 51.5175 216.235 50.9054 219.133 51.6917C220.359 52.0251 221.3 52.5128 222.131 52.9408C223.882 53.8515 225.039 54.4487 227.97 53.635C228.384 53.5181 228.871 53.6276 229.063 53.8714C229.254 54.1202 229.074 54.4138 228.663 54.5283C227.447 54.8667 226.425 55.0035 225.54 55.0035" fill="#FEF0C0"/>
</g>
</g>
</svg>
