<svg width="102" height="103" viewBox="0 0 102 103" fill="none" xmlns="http://www.w3.org/2000/svg">
<g id="Group 1">
<path id="path782" d="M23.5956 8.22397C-0.0516502 23.587 -6.9095 55.4297 8.28089 79.343C23.4729 103.259 54.9611 110.191 78.6089 94.829C102.256 79.466 109.111 47.6244 93.9194 23.7084C78.729 -0.205362 47.2434 -7.13849 23.5956 8.22397Z" fill="#E1EBE7"/>
<path id="path784" d="M27.8415 14.9077C7.84169 27.9001 2.04489 54.8268 14.8917 75.0498C27.7379 95.2738 54.3634 101.137 74.3632 88.1442C94.3608 75.1523 100.158 48.2262 87.3114 28.0027C74.4651 7.77921 47.8397 1.91533 27.8415 14.9077" fill="#C6C5C3"/>
<path id="path786" d="M29.6609 17.7717C11.2276 29.7472 5.88074 54.5672 17.7231 73.2103C29.5648 91.8528 54.1098 97.2558 72.5437 85.2803C90.977 73.3053 96.3212 48.4847 84.4799 29.8427C72.6371 11.1991 48.0947 5.7967 29.6609 17.7717" fill="#E1EBE7"/>
<path id="path788" d="M57.0304 75.0903L56.1599 75.0805L56.1588 75.0789L24.9155 74.7173L24.9161 74.7184L24.0344 74.7076C24.3754 77.9018 25.9029 80.8991 28.5081 83.3345C31.6592 86.3117 37.1358 88.277 42.4575 88.339L42.4591 88.3401C45.1363 88.3704 47.6363 87.9019 49.6911 86.9843C52.0582 85.9291 53.8339 84.3157 54.9659 82.1907C56.1124 80.0204 56.8051 77.5715 57.0304 75.0903" fill="#555658"/>
<path id="path790" d="M68.4842 69.5373C68.4842 69.5373 68.6528 69.7305 68.853 70.1305C68.5269 70.3415 68.3604 70.6038 68.2835 70.7765C68.0551 70.4937 67.7535 70.1186 67.4557 69.7116C66.844 68.8793 66.9641 68.9937 66.9374 68.8016C66.9123 68.6105 66.9124 68.6105 66.9124 68.6105C66.9124 68.6105 68.1356 69.004 68.4842 69.5373V69.5373ZM71.884 74.028L71.8845 74.0291L71.8813 74.0296L71.884 74.028ZM66.4923 77.4803C66.6786 77.8651 65.9057 77.8721 65.9057 77.8721C61.3445 74.9321 60.0081 71.0227 59.7033 69.8886C60.5471 69.3316 62.9649 68.0254 66.5468 68.5004C66.5468 68.5004 66.9647 68.861 66.6893 68.9851C66.6893 68.9851 66.6097 69.235 65.9154 69.2615C65.9154 69.2615 64.1999 69.5837 63.6518 69.8665C63.6518 69.8665 62.7141 70.1439 62.5774 70.9563C62.5774 70.9563 62.5337 71.584 63.599 71.231C63.599 71.231 62.8486 71.6558 62.9115 72.5226C62.9115 72.5226 63.0535 72.602 63.1821 72.4546C63.1821 72.4546 63.3332 73.2799 63.4223 73.3636C63.4223 73.3636 63.5926 73.4246 63.829 73.4084C63.9203 73.6194 64.0068 73.756 64.0068 73.756C64.3462 74.5618 65.9041 76.4753 65.9041 76.4753C66.6311 77.1386 66.4923 77.4803 66.4923 77.4803V77.4803ZM77.8287 17.8991C76.3332 16.4304 74.5206 17.0587 74.5206 17.0587C72.4055 20.043 69.1839 16.6932 69.1839 16.6932C66.7528 15.4847 66.4373 17.579 66.4373 17.579C65.4739 20.4521 61.6418 19.6354 61.6418 19.6354C56.9637 18.7573 57.5353 20.7527 57.5353 20.7527C57.6656 24.3691 56.5645 25.5436 56.5645 25.5436C54.4472 26.5761 53.3952 27.2827 52.8802 27.7533C51.5741 24.1084 52.6608 22.4216 52.6608 22.4216C55.8754 12.2689 49.6223 13.4175 49.6223 13.4175C46.611 12.2921 47.2616 10.3479 47.2616 10.3479C45.7357 7.46885 44.5588 9.39362 44.5588 9.39362C42.5216 8.94563 41.309 10.4451 41.309 10.4451C41.0704 14.1078 36.5844 12.9808 36.5844 12.9808C33.8891 13.2512 34.7116 15.1992 34.7116 15.1992C35.3926 18.1533 31.7115 19.5048 31.7115 19.5048C27.2784 21.2542 28.8064 22.6424 28.8064 22.6424C30.8015 25.6467 30.4796 27.2319 30.4796 27.2319C28.6703 30.1099 28.3741 31.252 28.4056 31.7065C26.5717 29.9118 26.5488 28.4993 26.5488 28.4993C23.569 18.2726 19.0334 22.7763 19.0334 22.7763C15.9164 23.5573 15.3736 21.5791 15.3736 21.5791C12.5112 20.0635 12.6084 22.3256 12.6084 22.3256C10.6736 23.1093 10.5039 25.04 10.5039 25.04C12.3415 28.2078 8.00498 29.8228 8.00498 29.8228C5.92451 31.5807 7.68901 32.7223 7.68901 32.7223C9.89277 34.7804 7.59775 37.9887 7.59775 37.9887C4.9051 41.9542 6.93966 42.236 6.93966 42.236C10.2568 43.5875 10.8732 45.0805 10.8732 45.0805C11.0382 50.5612 11.9423 50.1137 11.9423 50.1137C15.7349 52.7347 16.2793 54.7119 16.2793 54.7119C18.5845 60.3426 20.5497 61.109 23.2151 61.8053C25.8816 62.5005 27.2592 63.3258 27.2592 63.3258C29.9545 65.5717 31.5711 65.1755 31.5711 65.1755C38.1066 64.3017 39.1692 68.0249 39.1692 68.0249C40.2767 69.0558 41.3026 69.3764 42.1859 69.3521C46.5315 71.6115 51.7657 67.7426 51.7657 67.7426C58.3919 63.8358 62.1696 65.1502 62.1696 65.1502C63.6577 65.3596 64.9867 65.4319 66.1822 65.4082C66.3247 65.7444 66.4784 66.139 66.4966 66.3198C66.4966 66.3198 66.8499 67.1019 67.0351 67.3038C67.0351 67.3038 67.2321 67.7296 66.9022 67.9126C66.9022 67.9126 66.748 68.0999 66.6417 68.1247C66.6417 68.1247 62.5577 67.3907 59.3761 69.5551L58.9454 69.5508C58.9662 69.6377 58.9956 69.7176 59.0169 69.8045L58.9982 69.8179L59.0266 69.8417C60.3934 75.2975 65.6704 78.3633 65.6704 78.3633C65.7648 78.4875 65.7616 78.8313 65.7616 78.8313C65.9538 79.3327 65.3624 79.6074 65.3624 79.6074C64.9829 79.6576 63.9011 80.1774 63.9011 80.1774C63.5595 80.5169 61.9759 81.2478 61.9759 81.2478C60.7115 81.7044 60.5599 82.8184 60.5599 82.8184C60.6726 83.0187 61.3306 83.0867 61.3306 83.0867C61.6418 83.0338 61.5127 83.1493 61.5127 83.1493C60.3966 83.7015 60.7142 84.5673 60.7142 84.5673C60.8337 84.6779 61.1481 84.625 61.1481 84.625C61.0446 85.324 61.4043 85.5393 61.4043 85.5393C63.0145 85.799 63.782 84.7383 63.782 84.7383C64.2939 84.2283 64.5496 83.4705 64.5496 83.4705C64.936 82.8708 64.7252 83.5552 64.7252 83.5552C64.2523 84.2143 63.8317 85.7175 63.8317 85.7175C63.4373 86.8866 64.1578 87.4333 64.1578 87.4333C64.9552 87.5494 65.1158 86.9432 65.1158 86.9432C65.2535 86.6 65.2525 86.8736 65.2525 86.8736C64.9349 87.6109 65.411 88.006 65.411 88.006C65.6784 88.4886 65.8737 88.0497 65.8737 88.0497C66.0098 87.8473 66.3247 88.2538 66.3247 88.2538C66.7117 88.9139 66.9214 88.0956 66.9214 88.0956C67.0554 88.3693 67.2123 88.2403 67.2123 88.2403C67.5464 88.1275 67.6057 87.483 67.6057 87.483C67.6761 87.1419 67.714 87.3621 67.714 87.3621C67.9654 87.9531 68.3475 87.6967 68.3475 87.6967C69.1076 86.9276 68.1277 85.0088 68.1277 85.0088C68.8268 86.3517 69.4812 85.8216 69.4812 85.8216C69.628 85.989 69.7395 85.8664 69.7395 85.8664C70.2433 85.378 69.8537 84.2564 69.8537 84.2564C70.1638 84.4107 70.1991 84.1025 70.1991 84.1025C70.4739 82.8919 68.0412 81.0632 68.0412 81.0632C66.8622 80.0598 66.2847 78.6219 66.2847 78.6219C66.9668 78.8135 67.8181 79.1783 67.8181 79.1783C68.4393 79.4158 68.9976 79.8374 68.9976 79.8374C69.2319 80.0808 70.0656 81.4917 70.0656 81.4917C70.6041 82.1119 71.6887 83.5196 71.6887 83.5196C72.6985 84.9467 73.6651 85.1669 73.6651 85.1669C74.1145 85.0476 73.8134 84.6676 73.8134 84.6676C73.6437 84.4274 73.8609 84.5257 73.8609 84.5257C74.8633 85.2409 74.9097 84.7043 74.9097 84.7043C74.8974 84.5403 75.0335 84.5413 75.0335 84.5413C75.6292 84.4517 75.3772 83.8612 75.3772 83.8612C75.1627 83.5574 75.2849 83.5304 75.2849 83.5304C75.5753 83.7452 75.5715 83.4235 75.5715 83.4235C75.5987 82.6079 74.4304 82.0439 74.4304 82.0439C73.1185 81.7033 73.5082 81.4264 73.5082 81.4264C73.6597 81.1117 75.1136 82.235 75.1136 82.235C76.2499 83.1547 77.1188 82.2657 77.1188 82.2657C77.249 82.0811 76.8594 81.6256 76.8594 81.6256C76.5648 81.3627 76.8471 81.3924 76.8471 81.3924C77.5516 81.3169 77.6958 80.565 77.6958 80.565C77.8436 79.7235 76.9667 79.3737 76.9667 79.3737C76.5819 79.309 76.8599 79.221 76.8599 79.221C77.3611 79.1433 77.4598 78.6526 77.4598 78.6526C77.4348 77.864 76.062 78.2349 76.062 78.2349C75.239 78.5916 74.3386 78.5771 74.3386 78.5771C73.5604 78.4659 74.2852 78.3304 74.2852 78.3304C76.6934 78.0416 76.7842 77.0436 76.7842 77.0436C76.9283 76.7489 76.5957 76.7948 76.5957 76.7948C76.8413 76.6728 76.8519 76.1735 76.8519 76.1735C76.8124 76.0219 76.1891 75.9231 76.1891 75.9231C76.2307 75.867 76.3417 75.6759 76.3417 75.6759C75.6463 75.3904 74.9994 75.8292 74.9994 75.8292C75.2801 75.5361 75.2347 75.0643 75.2347 75.0643C74.0451 74.9715 72.3841 76.526 72.3841 76.526C70.4478 78.3029 68.9208 78.5296 68.9208 78.5296C68.0647 78.7827 66.3994 78.088 66.3994 78.088C66.3994 78.088 66.3995 78.088 66.5953 77.9072C66.7939 77.7232 66.5622 77.7361 67.9697 77.3977C69.3728 77.0598 70.6895 76.852 70.6895 76.852C71.0418 76.7462 70.9623 76.581 70.9623 76.581C71.9096 76.7262 72.5789 76.0202 72.5789 76.0202C72.627 75.8767 72.5699 75.718 72.3388 75.7304C72.1087 75.7423 72.3398 75.5237 72.3398 75.5237C73.1297 74.9974 73.1036 74.2774 73.1036 74.2774C72.7118 73.9708 72.3073 73.9681 72.0884 73.9946L72.097 73.9789C72.097 73.9789 72.184 73.8429 72.1541 73.5687C72.2891 73.4715 72.4044 73.3744 72.493 73.281C72.6953 73.4764 72.9771 73.6583 73.1927 73.4154C73.1927 73.4154 73.3614 73.1007 73.1249 72.8276C73.1249 72.8276 73.0112 72.6522 73.2509 72.7958C73.2509 72.7958 73.886 73.0095 74.1854 72.4816C74.1854 72.4816 74.4475 72.0066 74.0974 71.6396C74.0974 71.6396 73.9292 71.5252 74.2095 71.5165C74.2095 71.5165 74.6268 71.4496 74.6386 71.2899C74.6386 71.2899 74.5671 70.4047 73.5332 70.3798C73.5332 70.3798 72.2341 70.3188 72.2929 70.0786C72.2929 70.0786 72.2069 69.7483 73.0758 70.1682C73.0758 70.1682 73.9666 70.4003 74.3205 69.9426C74.3205 69.9426 74.4662 69.7694 74.2116 69.7548C74.2116 69.7548 74.1582 69.6825 74.4117 69.6172C74.4117 69.6172 74.8152 69.4104 74.5302 69.0877C74.5302 69.0877 74.456 69.024 74.5393 68.9398C74.5393 68.9398 74.756 68.6272 73.8855 68.5528C73.8855 68.5528 73.7238 68.5069 73.9234 68.4551C73.9234 68.4551 74.2596 68.386 74.0675 68.115C74.0675 68.115 73.4436 67.7874 72.2486 68.0977C72.2486 68.0977 71.0215 68.3622 70.4477 68.4524C70.4477 68.4524 69.3568 68.8361 69.1183 68.8593C69.1183 68.8593 68.6235 68.8313 68.1783 68.6737C68.1783 68.6737 67.5512 68.4799 67.0928 68.2678C67.0928 68.2678 68.0551 67.7518 69.1503 67.7496C69.1503 67.7496 71.3033 67.8781 71.7009 67.0917C71.7009 67.0917 71.821 66.9071 71.5808 66.8498C71.5808 66.8498 72.2998 66.4175 72.2443 65.9182C72.2443 65.9182 72.2421 65.8006 72.0852 65.8238C72.0852 65.8238 71.9683 65.2327 70.9815 65.6408C70.9815 65.6408 72.382 65.0481 72.3153 64.2795C72.3153 64.2795 72.2907 64.1953 72.2112 64.1424C74.6391 63.0063 75.5032 61.5225 75.5032 61.5225C79.2799 56.5055 82.1844 57.0225 82.1844 57.0225C92.6769 55.9927 89.1607 50.6383 89.1607 50.6383C88.9905 47.395 91.0149 47.2287 91.0149 47.2287C93.0238 44.673 90.811 44.3427 90.811 44.3427C90.4118 42.2743 88.5726 41.7405 88.5726 41.7405C85.1503 42.9695 84.3978 38.3557 84.3978 38.3557C83.0837 35.9608 81.6437 37.4948 81.6437 37.4948C79.2297 39.2965 76.5445 36.4121 76.5445 36.4121C76.3412 36.201 76.1453 36.0137 75.9622 35.8421C76.8194 33.8137 77.9178 33.2891 77.9178 33.2891C85.945 26.3786 80.033 24.0182 80.033 24.0182C78.0603 21.4555 79.6284 20.1509 79.6284 20.1509C79.8323 16.8908 77.8287 17.8991 77.8287 17.8991" fill="#555658"/>
<path id="path792" d="M57.7573 74.3049C57.5342 76.6566 56.8756 78.9678 55.8001 81C51.3211 89.3959 36.554 87.4495 30.6953 81.916C28.1531 79.5421 26.8391 76.7538 26.5135 73.9427L57.7573 74.3049Z" fill="#FDFEFD"/>
<path id="path794" d="M27.392 73.9546C27.7368 76.655 29.0647 79.1962 31.2882 81.2748C34.0983 83.9314 39.2402 85.7526 44.0752 85.8082H44.0774C49.238 85.8675 53.2313 83.9638 55.0337 80.5866C56.0494 78.6618 56.6739 76.4942 56.8905 74.2963L58.6284 74.3157C58.4037 76.798 57.7103 79.2485 56.5634 81.4167C55.4308 83.5428 53.6551 85.155 51.2896 86.2103C49.2342 87.1289 46.7348 87.5963 44.0571 87.565L44.056 87.5656C38.7342 87.5035 33.2577 85.5377 30.1049 82.5604C27.5014 80.1272 25.9739 77.1273 25.6323 73.9341L27.392 73.9546" fill="#F3C90C"/>
<path id="path796" d="M38.5347 74.0825C36.056 75.9231 32.4043 77.422 29.9918 76.3414C29.4368 76.0904 29.0349 75.1561 28.839 73.9703L38.5347 74.0825" fill="#E9D23D"/>
<path id="path798" d="M38.4514 75.6208C38.7385 75.3909 39.5845 74.713 40.4977 74.1047L43.2982 74.1387C42.6417 78.9425 40.598 87.2406 34.4666 81.7519C31.1276 78.6591 36.1644 76.9972 38.4514 75.6208Z" fill="#D8BA12"/>
<path id="path800" d="M54.327 74.266C54.8394 74.5365 55.2077 74.9299 55.3433 75.5231C56.0921 78.7584 52.134 78.7428 50.6155 77.5046C49.6591 76.8542 47.8076 75.4416 46.7866 74.1786L54.327 74.266Z" fill="#EACB45"/>
<path id="path802" d="M45.3124 74.1624C47.0428 75.766 49.9494 79.1616 50.584 81.0788C51.4583 84.2029 46.2598 85.7099 45.3193 83.7916L45.3439 83.7689C44.7317 83.5881 44.4472 76.1849 44.8523 74.1565L45.3124 74.1624Z" fill="#F9DD22"/>
<path id="path804" d="M43.0191 61.3222C43.0191 61.3222 46.8363 60.9692 47.2195 54.3157C47.2195 54.3157 47.1389 52.6349 49.8321 50.3814C49.8321 50.3814 50.8899 49.168 52.0694 46.6523C53.249 44.1359 54.3629 42.3321 60.2653 41.1025C60.2653 41.1025 62.2898 40.9347 65.5508 37.6637C65.5508 37.6637 65.2866 36.6814 70.6399 37.5504C70.6399 37.5504 72.2053 37.2228 74.1444 34.1813C74.1444 34.1813 74.8024 32.2122 78.143 35.6375C78.143 35.6375 80.8271 38.522 83.2417 36.7197C83.2417 36.7197 84.6833 35.1852 85.9952 37.5822C85.9952 37.5822 86.7494 42.1934 90.17 40.9676C90.17 40.9676 92.0103 41.4998 92.4085 43.5703C92.4085 43.5703 94.6218 43.8995 92.6124 46.4569C92.6124 46.4569 90.5879 46.6215 90.7593 49.8643C90.7593 49.8643 94.2749 55.2192 83.7813 56.2491C83.7813 56.2491 80.8773 55.7325 77.1001 60.749C77.1001 60.749 74.1454 65.8437 63.7677 64.3761C63.7677 64.3761 59.9899 63.0608 53.3632 66.9697C53.3632 66.9697 46.6399 71.9435 42.1074 67.3281C42.1074 67.3281 39.3379 64.0777 43.0191 61.3222" fill="#563123"/>
<path id="path806" d="M44.854 60.6329C44.854 60.6329 48.3835 60.3042 48.7384 54.1511C48.7384 54.1511 48.6648 52.5949 51.1546 50.5104C51.1546 50.5104 52.1329 49.3877 53.2255 47.0608C54.3164 44.7334 55.3481 43.0618 60.8081 41.9256C60.8081 41.9256 62.681 41.7723 65.6965 38.7443C65.6965 38.7443 65.4526 37.8365 70.4061 38.6402C70.4061 38.6402 71.8552 38.3384 73.6474 35.5236C73.6474 35.5236 74.2543 33.7019 77.3451 36.8708C77.3451 36.8708 79.8306 39.5399 82.0632 37.8726C82.0632 37.8726 83.3981 36.4531 84.6123 38.6682C84.6123 38.6682 85.3083 42.9355 88.4722 41.8004C88.4722 41.8004 90.1764 42.2932 90.5457 44.2061C90.5457 44.2061 92.5937 44.5138 90.7325 46.8795C90.7325 46.8795 88.8613 47.0312 89.0182 50.0317C89.0182 50.0317 92.2729 54.9855 82.566 55.9393C82.566 55.9393 79.876 55.46 76.3833 60.1013C76.3833 60.1013 73.649 64.815 64.0473 63.4586C64.0473 63.4586 60.5535 62.2403 54.4215 65.8567C54.4215 65.8567 48.201 70.4592 44.0085 66.1881C44.0085 66.1881 41.4483 63.1817 44.854 60.6329" fill="#EEE4E1"/>
<path id="path808" d="M49.2097 60.8375C49.2097 60.8375 48.8147 54.9445 53.5558 50.9757C53.5558 50.9757 54.1296 51.1516 55.9394 48.217C55.9394 48.217 57.6596 43.7198 61.8958 43.886C61.8958 43.886 64.4908 45.2079 66.9374 43.0516C66.9374 43.0516 69.3397 41.3702 72.8586 42.9004C72.8586 42.9004 75.4183 44.578 78.4173 42.8335C78.4173 42.8335 81.1367 41.5375 82.9257 45.1744C82.9257 45.1744 84.165 47.0857 82.2538 48.5754C82.2538 48.5754 81.0278 49.0563 82.384 50.9778C82.384 50.9778 85.0574 51.4701 80.6302 53.3198C80.6302 53.3198 77.9252 53.1816 74.4277 57.7469C74.4277 57.7469 74.3087 61.5586 63.1095 60.0117C63.1095 60.0117 59.0671 59.0293 54.9088 60.5444C54.9088 60.5444 50.7164 62.4163 49.2097 60.8375Z" fill="#D1B385"/>
<path id="path810" d="M53.313 53.5811C53.313 53.5811 55.37 53.0591 58.9075 49.3359C58.9075 49.3359 62.6505 44.6751 65.6581 46.635C65.6581 46.635 68.561 44.6406 71.1277 45.0055C71.1277 45.0055 78.476 44.7512 77.8841 49.8314C77.8841 49.8314 78.412 54.3022 73.1078 54.1559C73.1078 54.1559 71.4148 54.5909 72.1887 55.1442C72.1887 55.1442 73.5316 58.4955 67.1125 57.647C67.1125 57.647 55.0951 56.0213 53.4293 57.416C53.4293 57.416 50.2494 56.038 53.313 53.5811" fill="#C5B155"/>
<path id="path812" d="M57.7605 50.1715C58.2211 48.9376 59.588 47.8046 60.877 47.4943C61.6071 47.2865 62.3004 47.2778 63.0455 47.0026C63.5669 46.6846 63.512 46.5713 63.7964 46.276L63.789 46.3106C64.5282 45.4421 66.4565 45.2198 67.8682 45.4853C69.7261 45.8416 70.935 47.6028 71.0183 49.2204C71.2467 53.369 68.1436 55.9776 63.8808 56.139C61.8729 56.1757 60.4863 55.7719 59.1658 54.1969C58.2879 53.1244 57.3496 51.5532 57.7605 50.1715" fill="#DDC37E"/>
<path id="path814" d="M62.286 48.1803C62.286 48.1803 63.6369 48.3692 64.3088 47.2454C64.3088 47.2454 65.5391 45.5987 67.4567 46.452C67.4567 46.452 65.736 46.6107 65.4836 47.5375C65.4836 47.5375 64.9979 49.7418 63.1026 49.1697C63.1026 49.1697 60.2306 48.4847 59.7567 49.7861C59.7567 49.7861 59.8095 48.265 62.286 48.1803Z" fill="#FFFEFF"/>
<path id="path816" d="M48.9359 60.2405C48.9359 60.2405 51.8671 57.7453 48.4203 52.0627C48.4203 52.0627 47.4073 50.7301 48.3413 47.3269C48.3413 47.3269 48.5234 45.7201 48.0697 42.9727C47.6155 40.2265 47.5098 38.0999 51.6584 33.6793C51.6584 33.6793 53.226 32.3731 54.0511 27.8041C54.0511 27.8041 53.2794 27.151 58.1614 24.7701C58.1614 24.7701 59.2641 23.5945 59.1333 19.9809C59.1333 19.9809 58.5595 17.9849 63.2392 18.8636C63.2392 18.8636 67.0725 19.6781 68.0343 16.805C68.0343 16.805 68.3497 14.7113 70.7813 15.9198C70.7813 15.9198 74.005 19.2706 76.1191 16.2841C76.1191 16.2841 77.9311 15.6574 79.4256 17.125C79.4256 17.125 81.4308 16.1179 81.2253 19.3785C81.2253 19.3785 79.6583 20.6815 81.6325 23.2448C81.6325 23.2448 87.5425 25.6056 79.5152 32.5161C79.5152 32.5161 76.8397 33.7705 76.576 40.0699C76.576 40.0699 77.0318 45.9603 67.6852 50.7544C67.6852 50.7544 63.844 51.8571 60.6144 58.8939C60.6144 58.8939 57.9079 66.8639 51.5821 65.6974C51.5821 65.6974 47.4724 64.6303 48.9359 60.2405" fill="#563123"/>
<path id="path818" d="M50.0493 58.6159C50.0493 58.6159 52.7617 56.3068 49.5732 51.0496C49.5732 51.0496 48.6349 49.8152 49.5011 46.6657C49.5011 46.6657 49.6682 45.1809 49.2487 42.6397C48.8281 40.098 48.7294 38.1328 52.569 34.0415C52.569 34.0415 54.0197 32.834 54.7824 28.6056C54.7824 28.6056 54.0677 28.0022 58.5889 25.7973C58.5889 25.7973 59.6056 24.7124 59.4861 21.3664C59.4861 21.3664 58.9545 19.5199 63.283 20.3328C63.283 20.3328 66.8291 21.089 67.7199 18.4302C67.7199 18.4302 68.0113 16.4935 70.2604 17.6097C70.2604 17.6097 73.2429 20.709 75.1974 17.9482C75.1974 17.9482 76.8765 17.3669 78.2578 18.7276C78.2578 18.7276 80.1135 17.7933 79.9235 20.8094C79.9235 20.8094 78.4745 22.0163 80.2971 24.3885C80.2971 24.3885 85.7689 26.5707 78.3416 32.9641C78.3416 32.9641 75.8656 34.1273 75.6222 39.9539C75.6222 39.9539 76.0428 45.4027 67.397 49.8373C67.397 49.8373 63.8429 50.8586 60.854 57.3701C60.854 57.3701 58.3509 64.7416 52.4975 63.661C52.4975 63.661 48.6957 62.6754 50.0493 58.6159" fill="#EEE4E1"/>
<path id="path820" d="M53.7421 56.2653C53.7421 56.2653 50.0855 51.6579 51.7331 45.6607C51.7331 45.6607 52.3032 45.4724 52.1297 42.0185C52.1297 42.0185 50.9982 37.3345 54.571 35.0217C54.571 35.0217 57.4467 34.6077 58.2355 31.4242C58.2355 31.4242 59.2544 28.6553 63.006 27.8769C63.006 27.8769 66.0562 27.7733 67.5304 24.6087C67.5304 24.6087 69.0301 21.9737 72.5527 23.9238C72.5527 23.9238 74.6498 24.7766 73.9249 27.1024C73.9249 27.1024 73.19 28.2051 75.389 28.9986C75.389 28.9986 77.8601 27.8586 75.2732 31.9348C75.2732 31.9348 72.9765 33.3824 72.6862 39.1518C72.6862 39.1518 74.7432 42.3488 64.6808 47.5531C64.6808 47.5531 60.806 49.0833 58.251 52.7288C58.251 52.7288 55.8695 56.6868 53.7421 56.2653" fill="#D1B385"/>
<path id="path822" d="M53.0061 47.938C53.0061 47.938 54.3997 46.3219 55.1971 41.2207C55.1971 41.2207 55.6347 35.2343 59.2096 35.1053C59.2096 35.1053 60.4644 31.7896 62.7765 30.6049C62.7765 30.6049 68.663 26.1481 71.0487 30.6599C71.0487 30.6599 74.0087 34.0242 69.5729 36.9685C69.5729 36.9685 68.4297 38.3055 69.376 38.3104C69.376 38.3104 72.3729 40.2853 66.6262 43.2972C66.6262 43.2972 55.8461 48.9122 55.268 51.0194C55.268 51.0194 51.8799 51.7259 53.0061 47.938Z" fill="#C5B155"/>
<path id="path824" d="M54.7273 42.569C54.4087 41.2893 54.8907 39.5702 55.7734 38.5716C56.2543 37.9795 56.8212 37.5698 57.2732 36.9162C57.5235 36.3532 57.4115 36.2911 57.4792 35.8853L57.4936 35.9155C57.61 34.7761 59.0639 33.4801 60.3736 32.8821C62.0981 32.101 64.0884 32.8459 65.0704 34.1251C67.5998 37.3993 66.5296 41.3335 63.1239 43.9292C61.4971 45.1177 60.1308 45.5889 58.1555 45.0627C56.8292 44.6881 55.173 43.9427 54.7273 42.569" fill="#DDC37E"/>
<path id="path826" d="M57.317 38.3195C57.317 38.3195 58.5328 37.694 58.4464 36.384C58.4464 36.384 58.5253 34.3232 60.5818 33.9135C60.5818 33.9135 59.2598 35.0395 59.5768 35.943C59.5768 35.943 60.4244 38.0351 58.5467 38.6617C58.5467 38.6617 55.8002 39.7601 56.1481 41.1009C56.1481 41.1009 55.331 39.8228 57.317 38.3195" fill="#FFFEFF"/>
<path id="path828" d="M42.7361 61.5155C42.7361 61.5155 43.928 57.8316 38.0356 54.843C38.0356 54.843 36.4793 54.2498 35.4977 50.8613C35.4977 50.8613 34.8146 49.3975 32.9962 47.3075C31.1789 45.2144 29.9774 43.4672 31.1986 37.498C31.1986 37.498 31.8492 35.5506 30.1658 31.2293C30.1658 31.2293 29.1688 31.0874 32.0776 26.4579C32.0776 26.4579 32.4005 24.8727 30.4039 21.8695C30.4039 21.8695 28.8758 20.4818 33.3084 18.7324C33.3084 18.7324 36.9916 17.3804 36.3106 14.4257C36.3106 14.4257 35.486 12.4783 38.1819 12.2074C38.1819 12.2074 42.6678 13.3355 42.9064 9.67106C42.9064 9.67106 44.1212 8.17054 46.1557 8.62016C46.1557 8.62016 47.3342 6.69539 48.8591 9.57498C48.8591 9.57498 48.209 11.5176 51.2197 12.6446C51.2197 12.6446 57.4739 11.4949 54.2593 21.6476C54.2593 21.6476 52.64 24.1424 55.702 29.636C55.702 29.636 59.16 34.3961 53.7197 43.4548C53.7197 43.4548 51.0324 46.4407 51.9573 54.1419C51.9573 54.1419 53.8152 62.3564 47.8322 64.7399C47.8322 64.7399 43.7844 66.0251 42.7361 61.5155" fill="#563123"/>
<path id="path830" d="M42.8375 59.5394C42.8375 59.5394 43.9354 56.1319 38.4861 53.3652C38.4861 53.3652 37.0455 52.8184 36.1393 49.6814C36.1393 49.6814 35.5063 48.3298 33.824 46.3937C32.1406 44.4587 31.032 42.8416 32.1609 37.3183C32.1609 37.3183 32.7635 35.5198 31.2066 31.5208C31.2066 31.5208 30.2848 31.387 32.9748 27.1051C32.9748 27.1051 33.2732 25.6397 31.4275 22.8605C31.4275 22.8605 30.0132 21.5769 34.1143 19.9588C34.1143 19.9588 37.5216 18.7092 36.8897 15.9743C36.8897 15.9743 36.1275 14.1726 38.6216 13.9227C38.6216 13.9227 42.7703 14.9644 42.9913 11.5753C42.9913 11.5753 44.1142 10.1887 45.9999 10.6048C45.9999 10.6048 47.0871 8.82256 48.4993 11.4862C48.4993 11.4862 47.8983 13.2858 50.6849 14.3253C50.6849 14.3253 56.4695 13.2642 53.495 22.657C53.495 22.657 51.9984 24.9628 54.8293 30.0451C54.8293 30.0451 58.0285 34.4517 52.9965 42.8297C52.9965 42.8297 50.5077 45.5922 51.3681 52.7191C51.3681 52.7191 53.084 60.3177 47.5487 62.5205C47.5487 62.5205 43.8052 63.7117 42.8375 59.5394" fill="#EEE4E1"/>
<path id="path832" d="M44.7456 55.5744C44.7456 55.5744 39.2381 53.6108 37.5126 47.6352C37.5126 47.6352 37.8979 47.1715 35.9487 44.3297C35.9487 44.3297 32.5457 40.9546 34.371 37.0846C34.371 37.0846 36.5988 35.1976 35.6093 32.0735C35.6093 32.0735 35.0313 29.1772 37.8136 26.5146C37.8136 26.5146 40.3509 24.7987 39.9517 21.3233C39.9517 21.3233 39.853 18.2844 43.8612 18.0637C43.8612 18.0637 46.0885 17.6697 46.6857 20.0327C46.6857 20.0327 46.6361 21.3605 48.9167 20.8634C48.9167 20.8634 50.4245 18.5764 50.3519 23.4164C50.3519 23.4164 49.1558 25.8739 51.9162 30.9309C51.9162 30.9309 55.3326 32.5485 49.4974 42.3386C49.4974 42.3386 47.0049 45.7034 46.7348 50.1655C46.7348 50.1655 46.777 54.7971 44.7456 55.5744" fill="#D1B385"/>
<path id="path834" d="M39.7798 48.8928C39.7798 48.8928 40.1209 46.7753 38.1375 42.0169C38.1375 42.0169 35.3873 36.696 38.3574 34.6784C38.3574 34.6784 37.694 31.1937 39.0411 28.9548C39.0411 28.9548 41.7156 22.0287 46.0975 24.5877C46.0975 24.5877 50.3673 25.8674 48.1337 30.7333C48.1337 30.7333 47.8615 32.4789 48.668 31.9785C48.668 31.9785 52.245 32.0584 48.9306 37.6853C48.9306 37.6853 42.7014 48.2046 43.3078 50.3031C43.3078 50.3031 40.7987 52.7104 39.7798 48.8928" fill="#C5B155"/>
<path id="path836" d="M38.4428 43.4116C37.5056 42.4951 37.0162 40.7787 37.2462 39.4595C37.3439 38.699 37.6129 38.0502 37.6561 37.2498C37.576 36.6398 37.448 36.6469 37.2948 36.2647L37.3231 36.2841C36.8256 35.2548 37.385 33.377 38.1872 32.1707C39.244 30.5849 41.3234 30.1601 42.8247 30.7214C46.6841 32.1523 47.8241 36.0672 46.2843 40.0899C45.5227 41.9677 44.609 43.0969 42.6555 43.7009C41.3335 44.0911 39.5359 44.3421 38.4428 43.4116" fill="#DDC37E"/>
<path id="path838" d="M38.4258 38.421C38.4258 38.421 39.1319 37.2422 38.3761 36.173C38.3761 36.173 37.3679 34.3799 38.9024 32.9361C38.9024 32.9361 38.3649 34.5974 39.1073 35.196C39.1073 35.196 40.9167 36.5206 39.6491 38.0556C39.6491 38.0556 37.8883 40.451 38.8832 41.4059C38.8832 41.4059 37.5227 40.7555 38.4258 38.421" fill="#FFFEFF"/>
<path id="path840" d="M40.7656 67.2503C40.7656 67.2503 39.7051 63.5282 33.1696 64.4026C33.1696 64.4026 31.5535 64.7977 28.8571 62.5507C28.8571 62.5507 27.479 61.7287 24.8141 61.0324C22.1476 60.3361 20.1841 59.5702 17.8778 53.9395C17.8778 53.9395 17.334 51.9591 13.5402 49.3413C13.5402 49.3413 12.6361 49.7866 12.4701 44.3065C12.4701 44.3065 11.8558 42.8141 8.5371 41.462C8.5371 41.462 6.50305 41.1813 9.1973 37.2163C9.1973 37.2163 11.4918 34.0064 9.28752 31.9488C9.28752 31.9488 7.52302 30.8067 9.60349 29.0509C9.60349 29.0509 13.9405 27.4343 12.1029 24.266C12.1029 24.266 12.2726 22.3364 14.2074 21.551C14.2074 21.551 14.1103 19.2895 16.9732 20.8045C16.9732 20.8045 17.5149 22.7827 20.6313 22.0033C20.6313 22.0033 25.168 17.4985 28.1473 27.7253C28.1473 27.7253 28.1932 30.7079 33.7786 33.5109C33.7786 33.5109 39.2829 35.4864 39.8172 46.0699C39.8172 46.0699 39.252 50.0678 44.2978 55.9112C44.2978 55.9112 50.3988 61.6515 46.7722 67.0226C46.7722 67.0226 44.1377 70.3858 40.7656 67.2503" fill="#563123"/>
<path id="path842" d="M39.7505 65.5587C39.7505 65.5587 38.7657 62.1167 32.7229 62.9237C32.7229 62.9237 31.2258 63.2912 28.7327 61.2116C28.7327 61.2116 27.4582 60.4521 24.9913 59.8055C22.5245 59.1621 20.7082 58.4529 18.5733 53.2448C18.5733 53.2448 18.0726 51.4134 14.5623 48.9905C14.5623 48.9905 13.727 49.405 13.5733 44.3324C13.5733 44.3324 13.0044 42.9512 9.93491 41.7032C9.93491 41.7032 8.05084 41.4436 10.546 37.7738C10.546 37.7738 12.6681 34.8036 10.6261 32.9015C10.6261 32.9015 8.99608 31.8436 10.9191 30.2195C10.9191 30.2195 14.9306 28.7227 13.2301 25.7946C13.2301 25.7946 13.3897 24.0096 15.1782 23.2825C15.1782 23.2825 15.088 21.1894 17.7364 22.5927C17.7364 22.5927 18.2386 24.4203 21.1213 23.7003C21.1213 23.7003 25.3174 19.5313 28.0763 28.9926C28.0763 28.9926 28.12 31.7513 33.2838 34.3469C33.2838 34.3469 38.3782 36.1735 38.8719 45.9646C38.8719 45.9646 38.3489 49.663 43.0179 55.0702C43.0179 55.0702 48.6594 60.3809 45.3049 65.3488C45.3049 65.3488 42.8701 68.4594 39.7505 65.5587" fill="#EEE4E1"/>
<path id="path844" d="M39.1271 61.1932C39.1271 61.1932 33.4797 62.6997 28.7312 58.7384C28.7312 58.7384 28.7931 58.135 25.6009 56.8925C25.6009 56.8925 20.911 56.0343 20.2721 51.7929C20.2721 51.7929 21.0669 48.9684 18.5135 46.9459C18.5135 46.9459 16.424 44.8786 17.2454 41.0928C17.2454 41.0928 18.3929 38.2343 16.1315 35.5857C16.1315 35.5857 14.3616 33.1282 17.5544 30.6675C17.5544 30.6675 19.1764 29.0752 20.9852 30.6923C20.9852 30.6923 21.6817 31.8188 23.2941 30.1094C23.2941 30.1094 23.2663 27.3636 25.8965 31.4102C25.8965 31.4102 26.2733 34.1203 31.3678 36.7327C31.3678 36.7327 35.0916 36.1308 35.7032 47.545C35.7032 47.545 35.5121 51.7465 37.7682 55.59C37.7682 55.59 40.376 59.398 39.1271 61.1932Z" fill="#D1B385"/>
<path id="path846" d="M31.308 58.488C31.308 58.488 30.4108 56.5443 26.1276 53.7349C26.1276 53.7349 20.8977 50.8969 22.2331 47.5407C22.2331 47.5407 19.7491 45.0341 19.6183 42.4146C19.6183 42.4146 17.9835 35.1652 23.0278 34.7949C23.0278 34.7949 27.2725 33.4267 28.1297 38.7211C28.1297 38.7211 28.8721 40.3209 29.2622 39.4471C29.2622 39.4471 32.265 37.4824 32.6503 44.0177C32.6503 44.0177 33.3404 56.2588 35.0089 57.6508C35.0089 57.6508 34.2696 61.0691 31.308 58.488" fill="#C5B155"/>
<path id="path848" d="M27.1561 54.7162C25.8709 54.49 24.5136 53.3468 23.9682 52.1248C23.6298 51.4393 23.49 50.7522 23.0822 50.0646C22.676 49.6069 22.5735 49.6835 22.2346 49.4563L22.2683 49.4547C21.2857 48.8863 20.705 47.0155 20.6991 45.5619C20.6927 43.6518 22.1759 42.1156 23.7307 41.727C27.7165 40.7198 30.8362 43.3085 31.7964 47.5121C32.2105 49.4973 32.0797 50.9519 30.8009 52.5609C29.924 53.6345 28.5753 54.863 27.1561 54.7162" fill="#DDC37E"/>
<path id="path850" d="M24.369 50.5962C24.369 50.5962 24.2991 49.2182 23.079 48.7654C23.079 48.7654 21.2489 47.8543 21.7148 45.7892C21.7148 45.7892 22.1941 47.4667 23.1398 47.5407C23.1398 47.5407 25.3735 47.6092 25.1771 49.5982C25.1771 49.5982 25.0527 52.5809 26.4068 52.8044C26.4068 52.8044 24.9188 53.0408 24.369 50.5962" fill="#FFFEFF"/>
<path id="path852" d="M60.5455 68.7762L61.2218 68.7827C61.2218 68.7827 62.1136 73.627 67.5032 77.0998C67.5032 77.0998 68.2765 77.0911 68.0892 76.7074C68.0892 76.7074 68.228 76.3652 67.5016 75.7018C67.5016 75.7018 65.9447 73.7878 65.6042 72.982C65.6042 72.982 64.8431 71.8264 65.4201 70.8235C65.4201 70.8235 65.9346 70.11 66.7666 71.4631C66.7666 71.4631 66.3397 70.3183 67.1808 69.4412C67.1808 69.4412 67.4018 69.4849 67.4108 69.764C67.4108 69.764 68.3107 69.0094 68.4836 69.0018C68.4836 69.0018 68.9699 69.1708 69.2608 69.717C69.2608 69.717 69.3445 69.2663 69.4758 69.5848C69.4758 69.5848 69.5618 70.029 69.8153 70.1839C69.8153 70.1839 69.9957 69.3532 71.0535 69.1017C71.0535 69.1017 71.4495 69.5373 71.4474 69.8789C71.4474 69.8789 72.1066 68.8718 72.5704 69.1697C72.5704 69.1697 72.7652 69.3289 72.6339 69.5826C72.6339 69.5826 73.5578 69.262 73.6981 69.5842C73.6981 69.5842 73.7974 69.8255 73.7275 69.9621C73.7275 69.9621 74.0696 69.69 74.0323 69.9982C74.0323 69.9982 74.3007 70.4797 73.8476 71.0788C73.8476 71.0788 73.878 71.2494 74.2799 71.0702C74.2799 71.0702 74.5932 70.9476 74.6669 71.1333C74.6669 71.1333 74.4603 71.4059 74.472 71.8447C74.472 71.8447 74.4182 72.5356 73.2269 73.1083C73.2269 73.1083 72.8415 73.3166 73.5183 73.2546C73.5183 73.2546 74.1278 73.0543 74.6999 73.5034C74.6999 73.5034 74.7277 74.2229 73.9378 74.7513C73.9378 74.7513 73.7056 74.9688 73.9378 74.9575C74.1673 74.9451 74.226 75.1032 74.1774 75.2462C74.1774 75.2462 73.5087 75.9522 72.5613 75.8076C72.5613 75.8076 72.6408 75.9733 72.2875 76.0802C72.2875 76.0802 70.9703 76.2869 69.5676 76.6237C68.1607 76.9616 68.3908 76.9497 68.1938 77.1338C67.9969 77.3151 67.9969 77.3151 67.9969 77.3151C67.9969 77.3151 69.6632 78.0092 70.5198 77.7561C70.5198 77.7561 72.0452 77.5294 73.9837 75.7515C73.9837 75.7515 75.6436 74.197 76.8333 74.2903C76.8333 74.2903 76.8781 74.7616 76.5979 75.0557C76.5979 75.0557 77.2442 74.6164 77.9402 74.9035C77.9402 74.9035 77.8297 75.093 77.7886 75.148C77.7886 75.148 78.411 75.2495 78.4488 75.4006C78.4488 75.4006 78.4398 75.8999 78.1932 76.0224C78.1932 76.0224 78.5273 75.9755 78.3832 76.2702C78.3832 76.2702 78.2908 77.2692 75.8843 77.5569C75.8843 77.5569 75.1595 77.6935 75.9376 77.8036C75.9376 77.8036 76.8359 77.8176 77.6605 77.4609C77.6605 77.4609 79.0333 77.0895 79.0578 77.8775C79.0578 77.8775 78.9591 78.3714 78.4574 78.4481C78.4574 78.4481 78.1793 78.5339 78.5647 78.6003C78.5647 78.6003 79.4421 78.95 79.2937 79.791C79.2937 79.791 79.1507 80.5423 78.4462 80.62C78.4462 80.62 78.1633 80.5882 78.4585 80.8521C78.4585 80.8521 78.8459 81.3077 78.7168 81.4917C78.7168 81.4917 77.8473 82.3813 76.7126 81.461C76.7126 81.461 75.2588 80.3388 75.1066 80.6519C75.1066 80.6519 74.7181 80.9304 76.0295 81.2704C76.0295 81.2704 77.1978 81.8345 77.1684 82.6501C77.1684 82.6501 77.1727 82.9717 76.8818 82.7575C76.8818 82.7575 76.7601 82.7839 76.9758 83.0862C76.9758 83.0862 77.2277 83.6777 76.6299 83.769C76.6299 83.769 76.4965 83.7668 76.5072 83.9314C76.5072 83.9314 76.4612 84.4663 75.4589 83.7511C75.4589 83.7511 75.2422 83.6534 75.4109 83.8953C75.4109 83.8953 75.7119 84.2747 75.2646 84.394C75.2646 84.394 74.2986 84.1732 73.2872 82.7456C73.2872 82.7456 72.2027 81.3379 71.6636 80.7166C71.6636 80.7166 70.8304 79.3068 70.5945 79.0661C70.5945 79.0661 70.0384 78.6418 69.4155 78.4043C69.4155 78.4043 68.5653 78.0389 67.8832 77.8479C67.8832 77.8479 68.4612 79.2863 69.6376 80.2892C69.6376 80.2892 72.0735 82.1184 71.797 83.328C71.797 83.328 71.7629 83.6367 71.4517 83.4813C71.4517 83.4813 71.8418 84.604 71.3359 85.0924C71.3359 85.0924 71.2265 85.2144 71.0802 85.0482C71.0802 85.0482 70.4237 85.5782 69.7251 84.2353C69.7251 84.2353 70.7045 86.1547 69.946 86.9222C69.946 86.9222 69.5639 87.1797 69.3125 86.5881C69.3125 86.5881 69.273 86.3684 69.202 86.7106C69.202 86.7106 69.1433 87.3535 68.8108 87.4668C68.8108 87.4668 68.6523 87.5964 68.5194 87.3211C68.5194 87.3211 68.3107 88.1404 67.9227 87.4798C67.9227 87.4798 67.6078 87.0728 67.4712 87.2768C67.4712 87.2768 67.2758 87.7151 67.01 87.2331C67.01 87.2331 66.5318 86.8375 66.8515 86.1007C66.8515 86.1007 66.8542 85.826 66.7149 86.1682C66.7149 86.1682 66.5542 86.7759 65.7563 86.6588C65.7563 86.6588 65.0358 86.112 65.4323 84.9435C65.4323 84.9435 65.8518 83.4408 66.3247 82.7801C66.3247 82.7801 66.5339 82.0963 66.1491 82.6954C66.1491 82.6954 65.8913 83.4554 65.3795 83.9654C65.3795 83.9654 64.6114 85.026 63.0012 84.7648C63.0012 84.7648 62.6441 84.5505 62.7455 83.8526C62.7455 83.8526 62.4328 83.9055 62.3127 83.7938C62.3127 83.7938 61.9951 82.9275 63.1106 82.3759C63.1106 82.3759 63.2398 82.262 62.9291 82.3122C62.9291 82.3122 62.2711 82.2447 62.1584 82.0455C62.1584 82.0455 62.3106 80.9299 63.5734 80.4743C63.5734 80.4743 65.158 79.7424 65.499 79.4034C65.499 79.4034 66.5814 78.8853 66.9609 78.8335C66.9609 78.8335 67.5507 78.5593 67.3596 78.0573C67.3596 78.0573 67.3628 77.7156 67.2683 77.5904C67.2683 77.5904 61.7896 74.4183 60.5455 68.7762" fill="#8CC425"/>
<path id="path854" d="M60.5952 69.0445L60.9661 69.3532C60.9661 69.3532 63.6422 67.1289 68.1452 67.7275C68.1452 67.7275 68.561 68.0864 68.2872 68.2106C68.2872 68.2106 68.2082 68.4615 67.5139 68.4874C67.5139 68.4874 65.7985 68.8102 65.2514 69.0909C65.2514 69.0909 64.3131 69.3705 64.1754 70.1823C64.1754 70.1823 64.1327 70.8095 65.198 70.4581C65.198 70.4581 64.4465 70.8823 64.5079 71.7481C64.5079 71.7481 64.6504 71.8291 64.7796 71.6812C64.7796 71.6812 64.9306 72.507 65.0208 72.5901C65.0208 72.5901 65.3614 72.724 65.767 72.5599C65.767 72.5599 65.6095 72.8443 65.8252 72.7304C65.8252 72.7304 66.0712 72.5297 66.2799 72.5626C66.2799 72.5626 66.0018 73.0969 66.4656 73.723C66.4656 73.723 66.8787 73.668 67.0303 73.4823C67.0303 73.4823 66.9348 74.3357 67.3228 74.3859C67.3228 74.3859 67.5011 74.3891 67.5427 74.1926C67.5427 74.1926 67.9013 74.7945 68.1223 74.6822C68.1223 74.6822 68.2862 74.5974 68.3096 74.49C68.3096 74.49 68.3737 74.7972 68.4932 74.6131C68.4932 74.6131 68.8556 74.4733 68.8807 73.9384C68.8807 73.9384 68.9752 73.8596 69.1134 74.1441C69.1134 74.1441 69.2276 74.353 69.3515 74.286C69.3515 74.286 69.3616 74.0431 69.5655 73.8089C69.5655 73.8089 69.8495 73.4068 69.4588 72.5475C69.4588 72.5475 69.3429 72.2528 69.6829 72.6004C69.6829 72.6004 69.9274 72.9901 70.4403 73.0111C70.4403 73.0111 70.7813 72.6317 70.5887 71.9786C70.5887 71.9786 70.5614 71.7535 70.6815 71.8652C70.8011 71.9791 70.9041 71.9214 70.9431 71.8204C70.9431 71.8204 70.8993 71.1252 70.317 70.7668C70.317 70.7668 70.4344 70.7139 70.2903 70.4932C70.2903 70.4932 69.6658 69.7715 69.0553 68.9387C68.442 68.1069 68.561 68.2197 68.5365 68.0287C68.5109 67.8381 68.5109 67.8381 68.5109 67.8381C68.5109 67.8381 69.7331 68.2311 70.0832 68.7638C70.0832 68.7638 70.8128 69.5912 71.0647 71.4561C71.0647 71.4561 71.2676 73.0683 71.9577 73.5692C71.9577 73.5692 72.193 73.3307 72.1749 73.043C72.1749 73.043 72.3281 73.5806 72.8367 73.7457C72.8367 73.7457 72.8634 73.5919 72.8655 73.5417C72.8655 73.5417 73.2509 73.7738 73.34 73.7112C73.34 73.7112 73.5599 73.4321 73.4809 73.2545C73.4809 73.2545 73.6416 73.4321 73.6965 73.2049C73.6965 73.2049 74.0979 72.6203 72.9152 71.3535C72.9152 71.3535 72.5843 70.9412 73.0561 71.2413C73.0561 71.2413 73.5546 71.6493 73.8396 72.2236C73.8396 72.2236 74.4213 73.0586 74.7918 72.6419C74.7918 72.6419 74.9604 72.3267 74.7218 72.0547C74.7218 72.0547 74.6098 71.8782 74.8483 72.0223C74.8483 72.0223 75.4845 72.236 75.7839 71.7071C75.7839 71.7071 76.046 71.2326 75.6959 70.8645C75.6959 70.8645 75.5256 70.7512 75.8069 70.7436C75.8069 70.7436 76.2259 70.6767 76.2371 70.5153C76.2371 70.5153 76.1661 69.6301 75.1307 69.6069C75.1307 69.6069 73.8316 69.5464 73.8908 69.3046C73.8908 69.3046 73.8054 68.9748 74.6733 69.3953C74.6733 69.3953 75.5651 69.6274 75.9179 69.1697C75.9179 69.1697 76.0636 68.997 75.8106 68.9802C75.8106 68.9802 75.7551 68.909 76.0108 68.8426C76.0108 68.8426 76.4148 68.6375 76.1303 68.3131C76.1303 68.3131 76.0551 68.251 76.1373 68.1657C76.1373 68.1657 76.3529 67.8538 75.484 67.7793C75.484 67.7793 75.3228 67.7339 75.5214 67.68C75.5214 67.68 75.8571 67.6125 75.6676 67.341C75.6676 67.341 75.0421 67.0139 73.846 67.3227C73.846 67.3227 72.619 67.5888 72.0473 67.6794C72.0473 67.6794 70.9553 68.0621 70.7173 68.0853C70.7173 68.0853 70.2214 68.0589 69.7763 67.9002C69.7763 67.9002 69.1481 67.7053 68.6913 67.4938C68.6913 67.4938 69.6541 66.9783 70.7488 66.9751C70.7488 66.9751 72.9008 67.1046 73.2984 66.3198C73.2984 66.3198 73.419 66.1347 73.1804 66.0742C73.1804 66.0742 73.8972 65.6446 73.8449 65.1448C73.8449 65.1448 73.8396 65.0271 73.6843 65.0498C73.6843 65.0498 73.5668 64.4582 72.5784 64.8673C72.5784 64.8673 73.9805 64.2736 73.9138 63.5061C73.9138 63.5061 73.8214 63.1881 73.4163 63.396C73.4163 63.396 73.2984 63.4963 73.4121 63.2767C73.4121 63.2767 73.672 62.8983 73.5423 62.6829C73.5423 62.6829 73.5135 62.5415 73.3165 62.63C73.3165 62.63 73.5732 62.0854 73.0641 62.2662C73.0641 62.2662 72.7081 62.3429 72.7262 62.168C72.7262 62.168 72.8175 61.8415 72.4546 61.9812C72.4546 61.9812 72.0164 61.9732 71.8563 62.5226C71.8563 62.5226 71.7346 62.6732 71.812 62.4239C71.812 62.4239 71.9993 62.018 71.5131 61.7114C71.5131 61.7114 70.8731 61.6779 70.5614 62.4973C70.5614 62.4973 70.1104 63.5088 70.0709 64.0874C70.0709 64.0874 69.8756 64.5553 69.9364 64.0517C69.9364 64.0517 70.1393 63.5212 70.0891 63.0073C70.0891 63.0073 70.1499 62.0735 69.1577 61.4706C69.1577 61.4706 68.8647 61.4242 68.6048 61.8512C68.6048 61.8512 68.4575 61.6784 68.3417 61.6838C68.3417 61.6838 67.7781 62.0072 68.1378 62.8238C68.1378 62.8238 68.1559 62.9463 68.0076 62.7742C68.0076 62.7742 67.6211 62.5059 67.4679 62.5636C67.4679 62.5636 67.0485 63.24 67.5293 64.0723C67.5293 64.0723 68.0609 65.2025 68.0951 65.5452C68.0951 65.5452 68.45 66.3268 68.6336 66.5298C68.6336 66.5298 68.83 66.954 68.4996 67.1391C68.4996 67.1391 68.347 67.327 68.2408 67.3513C68.2408 67.3513 63.8215 66.5476 60.5952 69.0445" fill="#69952C"/>
</g>
</svg>
