<svg width="283" height="157" viewBox="0 0 283 157" fill="none" xmlns="http://www.w3.org/2000/svg">
<g id="Component 2">
<path id="path14" d="M282.177 100.695C282.177 131.532 219.107 156.533 141.307 156.533C63.5052 156.533 0.4375 131.532 0.4375 100.695C0.4375 69.852 63.5052 44.8534 141.307 44.8534C219.107 44.8534 282.177 69.852 282.177 100.695Z" fill="#D2D4D1"/>
<path id="path16" d="M282.177 97.8867C282.177 128.727 219.107 153.727 141.307 153.727C63.5052 153.727 0.4375 128.727 0.4375 97.8867C0.4375 67.048 63.5052 42.0467 141.307 42.0467C219.107 42.0467 282.177 67.048 282.177 97.8867Z" fill="#F1F1EF"/>
<path id="path18" d="M237.38 92.1347C237.38 113.169 194.369 130.217 141.307 130.217C88.2448 130.217 45.2318 113.169 45.2318 92.1347C45.2318 71.1 88.2448 54.0493 141.307 54.0493C194.369 54.0493 237.38 71.1 237.38 92.1347Z" fill="#E6E5E3"/>
<path id="path20" d="M234.041 92.8333C234.041 112.789 192.524 128.968 141.307 128.968C90.0912 128.968 48.5703 112.789 48.5703 92.8333C48.5703 72.876 90.0912 56.6987 141.307 56.6987C192.524 56.6987 234.041 72.876 234.041 92.8333" fill="#F1F1EF"/>
<path id="path22" d="M141.307 44.2907C65.4271 44.2907 3.91928 68.0454 3.91928 97.348C3.91928 126.649 65.4271 150.407 141.307 150.407C217.183 150.407 278.696 126.649 278.696 97.348C278.696 68.0454 217.183 44.2907 141.307 44.2907V44.2907ZM141.307 46.2747C177.765 46.2747 212.011 51.7494 237.74 61.684C250.125 66.468 259.82 72.012 266.557 78.1627C273.292 84.3107 276.708 90.7654 276.708 97.348C276.708 103.929 273.292 110.384 266.557 116.531C259.82 122.685 250.125 128.229 237.74 133.013C212.011 142.948 177.765 148.419 141.307 148.419C104.846 148.419 70.6016 142.948 44.8751 133.013C32.4869 128.229 22.7917 122.685 16.0547 116.531C9.31775 110.384 5.90365 103.929 5.90365 97.348C5.90365 90.7654 9.31775 84.3107 16.0547 78.1627C22.7917 72.012 32.4869 66.468 44.8751 61.684C70.6016 51.7494 104.846 46.2747 141.307 46.2747Z" fill="#376EBF"/>
<path id="path24" d="M141.307 47.5107C68.5312 47.5107 9.53641 69.58 9.53641 96.8067C9.53641 124.032 68.5312 146.101 141.307 146.101C214.081 146.101 273.079 124.032 273.079 96.8067C273.079 69.58 214.081 47.5107 141.307 47.5107V47.5107ZM141.307 48.504C176.388 48.504 209.355 53.6093 234.133 62.8773C246.123 67.3627 255.519 72.5733 262.063 78.3613C268.713 84.244 272.085 90.448 272.085 96.8067C272.085 103.164 268.713 109.371 262.063 115.249C255.519 121.039 246.123 126.249 234.133 130.733C209.355 140.003 176.388 145.108 141.307 145.108C106.224 145.108 73.2579 140.003 48.4792 130.733C36.4921 126.249 27.0937 121.039 20.5495 115.249C13.8984 109.371 10.5287 103.164 10.5287 96.8067C10.5287 90.448 13.8984 84.244 20.5495 78.3613C27.0937 72.5733 36.4921 67.3627 48.4792 62.8773C73.2579 53.6093 106.224 48.504 141.307 48.504Z" fill="#376EBF"/>
<path id="path26" d="M135.669 127.653C125.579 127.653 122.975 120.097 122.482 118.216C123.616 121.061 126.834 126.267 135.204 126.267C135.277 126.267 135.348 126.267 135.421 126.265C146.695 126.147 149.071 117.765 148.613 113.779C148.613 113.549 148.593 113.317 148.553 113.081C148.588 113.152 148.621 113.223 148.653 113.295C148.929 113.921 149.063 114.532 149.071 115.121C149.549 119.092 147.195 127.532 135.883 127.652C135.811 127.653 135.74 127.653 135.669 127.653" fill="#C7C8C6"/>
<path id="path28" d="M161.005 129.78C160.181 129.78 159.417 129.715 158.709 129.595C161.392 129.4 164.039 129.161 166.639 128.88C166.488 128.936 166.336 128.992 166.183 129.044C164.237 129.559 162.52 129.78 161.005 129.78Z" fill="#C7C8C6"/>
<path id="path30" d="M158.709 129.595C157.484 129.388 156.425 129.019 155.511 128.547C156.676 128.476 157.832 128.399 158.984 128.312C159.477 128.365 159.996 128.395 160.541 128.395C161.983 128.395 163.605 128.195 165.435 127.732C166.949 127.573 168.448 127.4 169.932 127.213C168.941 127.864 167.841 128.428 166.639 128.88C164.039 129.161 161.392 129.4 158.709 129.595Z" fill="#BFBFBD"/>
<path id="path32" d="M155.511 128.547C151.661 126.557 150.373 122.737 150.041 121.461C150.987 123.815 153.381 127.697 158.984 128.312C157.832 128.399 156.676 128.476 155.511 128.547V128.547ZM165.435 127.732C165.528 127.708 165.624 127.684 165.719 127.659C173.108 125.113 176.824 118.401 175.344 112.847C175.389 113.004 175.427 113.164 175.459 113.325L175.497 113.279C177.313 117.985 175.123 123.801 169.932 127.213C168.448 127.4 166.949 127.573 165.435 127.732Z" fill="#C7C8C6"/>
<path id="path34" d="M99.899 123.929C99.7584 123.929 99.6167 123.924 99.474 123.915C96.276 123.685 93.8698 120.904 94.1016 117.707C94.3203 114.649 96.8688 112.316 99.8844 112.316C100.025 112.316 100.167 112.321 100.31 112.332C103.508 112.561 105.914 115.343 105.685 118.539C105.464 121.596 102.915 123.929 99.899 123.929Z" fill="#C7C8C6"/>
<path id="path36" d="M115.853 127.848C115.712 127.848 115.57 127.843 115.427 127.832C114.695 127.78 114.005 127.593 113.378 127.3C114.595 127.449 115.825 127.589 117.063 127.72C116.672 127.804 116.267 127.848 115.853 127.848" fill="#BFBFBD"/>
<path id="path38" d="M117.063 127.72C115.825 127.589 114.595 127.449 113.378 127.3C111.265 126.308 109.875 124.089 110.052 121.623C110.122 120.676 110.419 119.799 110.88 119.036C110.743 119.045 110.606 119.051 110.467 119.051C110.381 119.051 110.295 119.048 110.208 119.044C107.003 118.877 104.542 116.145 104.708 112.944C104.737 112.38 104.847 111.839 105.024 111.329C108.338 111.171 111.891 110.993 115.777 110.803C116.163 111.633 116.357 112.568 116.307 113.545C116.255 114.537 115.956 115.457 115.474 116.252C115.623 116.243 115.773 116.236 115.925 116.236C116.037 116.236 116.149 116.24 116.263 116.248C119.461 116.479 121.867 119.259 121.638 122.459C121.447 125.096 119.525 127.195 117.063 127.72" fill="#C7C8C6"/>
<path id="path40" d="M216.528 68.44C216.027 68.1893 215.517 67.9427 215.001 67.6987C214.857 67.4613 214.719 67.232 214.587 67.0107C215.984 63.5827 217.369 60.4374 218.693 57.9227C219.527 58.1507 220.351 58.3827 221.171 58.6187C219.695 61.1373 218.123 64.584 216.528 68.44ZM221.703 57.7453C220.867 57.504 220.024 57.2667 219.172 57.0333C219.401 56.62 219.628 56.228 219.853 55.8574C220.739 56.0987 221.615 56.344 222.487 56.5947C222.229 56.9427 221.967 57.328 221.703 57.7453V57.7453ZM223.976 54.9667C223.001 54.6827 222.007 54.4014 221.012 54.1267C221.473 53.516 221.921 53.0227 222.353 52.6667C222.636 52.696 222.92 52.74 223.205 52.8027C224.357 53.056 225.495 53.3827 226.623 53.736C225.989 54.0107 225.375 54.2587 224.817 54.4667C224.545 54.568 224.264 54.7373 223.976 54.9667" fill="#C7C8C6"/>
<path id="path42" d="M218.101 72.5706C218.04 72.536 217.977 72.4986 217.915 72.464C217.207 71.3186 216.537 70.2253 215.927 69.224C215.6 68.6867 215.291 68.176 215.001 67.6986C215.517 67.9426 216.027 68.1893 216.528 68.44C216.403 68.7427 216.277 69.0493 216.151 69.3587L216.251 69.5253L216.292 69.5907C216.383 69.744 216.476 69.8987 216.573 70.056L216.615 70.1253C216.708 70.2813 216.804 70.44 216.901 70.6026L216.961 70.696C217.057 70.856 217.156 71.02 217.257 71.1867L217.32 71.2893C217.571 71.7013 217.832 72.1293 218.101 72.5706" fill="#BFBFBD"/>
<path id="path44" d="M176.34 112.228C175.94 112.228 175.544 112.225 175.152 112.22C175.115 112.111 175.076 112.003 175.033 111.895C175.023 111.909 175.012 111.923 175 111.937C174.909 111.464 174.755 111.008 174.531 110.577C174.404 110.332 174.263 110.1 174.107 109.88C174.328 109.883 174.549 109.884 174.773 109.884C175.347 109.884 175.929 109.877 176.52 109.865C195.14 109.491 221.573 103.295 226.928 97.5493C226.929 97.548 226.931 97.5467 226.932 97.544C226.941 97.5347 226.951 97.5253 226.96 97.516C226.972 97.5013 226.984 97.488 226.997 97.4747C227.005 97.464 227.015 97.4547 227.024 97.444C227.039 97.4267 227.053 97.4107 227.068 97.3934C227.071 97.3907 227.073 97.388 227.075 97.3854C227.099 97.3574 227.123 97.3293 227.145 97.3013C227.153 97.2933 227.161 97.284 227.168 97.2747C229.744 94.152 230.007 91.94 229.005 89.5653C229.005 89.5653 229.005 89.5653 229.005 89.564C229.001 89.556 228.997 89.548 228.995 89.54C228.992 89.5333 228.989 89.5267 228.985 89.52C228.985 89.5187 228.985 89.5187 228.984 89.5173C228.787 89.0547 228.541 88.5867 228.256 88.1053C228.697 88.7227 229.101 89.3053 229.459 89.8667L229.513 89.948L229.68 90.216L229.751 90.3347C229.836 90.4773 229.916 90.6174 229.995 90.756L230.081 90.9107L230.197 91.132L230.287 91.3067L230.437 91.6214L230.533 91.832L230.615 92.028L230.693 92.2294L230.771 92.4413L230.864 92.736L230.912 92.908L230.967 93.132L231.003 93.2907L231.057 93.632L231.079 93.7894L231.099 94.032L231.107 94.1813V94.5373L231.099 94.68L231.076 94.9453L231.06 95.0894C231.041 95.2107 231.021 95.336 230.995 95.4627L230.964 95.5894L230.891 95.8867L230.852 96.0227C230.809 96.1547 230.763 96.288 230.713 96.424L230.667 96.532L230.527 96.8667L230.464 97.0013C230.396 97.1427 230.323 97.2867 230.245 97.4333L230.197 97.5187C230.128 97.644 230.049 97.7733 229.975 97.9027L229.891 98.0347C229.792 98.1893 229.691 98.3453 229.58 98.5053L229.547 98.552C229.443 98.6987 229.333 98.852 229.219 99.0027L229.117 99.1373C228.987 99.304 228.855 99.4747 228.708 99.648C223.748 105.643 195.268 112.228 176.34 112.228V112.228ZM78.5271 112.211C72.7713 112.211 69.7208 111.577 68.1563 111.031C68.0307 111.035 67.9073 111.036 67.786 111.036C66.4964 111.036 65.4307 110.849 64.1953 110.673C61.1693 110.241 57.9973 109.304 57.6355 107.935C57.6355 107.935 57.5364 107.583 57.4776 106.928C58.7599 107.583 60.7245 108.055 62.6328 108.327C63.8672 108.503 64.9328 108.692 66.2224 108.692C66.3427 108.692 66.4656 108.689 66.5907 108.687C68.1541 109.232 71.2052 109.863 76.9521 109.864C76.9536 109.864 76.9557 109.864 76.9573 109.864H76.9579C77.2297 109.864 77.5052 109.863 77.7891 109.86C86.7625 109.771 95.2927 109.385 106.742 108.824C105.968 109.484 105.368 110.344 105.024 111.329C95.1828 111.804 87.4495 112.125 79.3541 112.207C79.0724 112.208 78.7969 112.211 78.5271 112.211V112.211ZM115.777 110.803C115.343 109.868 114.666 109.063 113.822 108.476C114.022 108.467 114.221 108.456 114.422 108.447C120.18 108.165 124.611 107.347 127.918 106.261C128.427 106.255 128.925 106.252 129.412 106.252C131.859 106.252 134.051 106.323 136.065 106.392C138.081 106.461 139.92 106.531 141.663 106.531C144.801 106.531 147.625 106.304 150.597 105.444C152.939 106.529 155.753 107.489 159.056 108.239C158.171 108.612 157.328 109.027 156.533 109.475C154.927 108.961 153.471 108.393 152.161 107.787C149.68 108.505 147.301 108.783 144.756 108.856C143.145 108.195 141.16 107.888 139.043 107.888C137.529 107.888 135.949 108.044 134.393 108.34C133.945 108.425 133.503 108.517 133.065 108.616C132.389 108.607 131.695 108.6 130.977 108.6C130.487 108.6 129.985 108.604 129.473 108.609C126.164 109.693 121.74 110.512 115.984 110.793C115.915 110.796 115.846 110.8 115.777 110.803V110.803ZM224.212 82.292C223.897 81.8374 223.576 81.3653 223.252 80.8733C221.46 78.144 219.581 75.1613 217.915 72.464C217.977 72.4987 218.04 72.536 218.101 72.5707C219.891 75.4973 222.088 79.0267 224.212 82.292Z" fill="#C7C8C6"/>
<path id="path46" d="M222.487 56.5947C221.615 56.344 220.739 56.0987 219.853 55.8574C220.248 55.208 220.635 54.628 221.012 54.1267C222.007 54.4014 223.001 54.6827 223.976 54.9667C223.497 55.3493 223 55.8987 222.487 56.5947Z" fill="#2C62B3"/>
<path id="path48" d="M221.171 58.6187C220.351 58.3827 219.527 58.1507 218.693 57.9227C218.853 57.6173 219.013 57.32 219.172 57.0333C220.024 57.2666 220.867 57.504 221.703 57.7453C221.527 58.0226 221.349 58.3133 221.171 58.6187" fill="#2C62B3"/>
<path id="path50" d="M105.024 111.329C105.368 110.344 105.968 109.484 106.742 108.824C108.982 108.715 111.334 108.599 113.822 108.476C114.666 109.063 115.343 109.868 115.777 110.803C111.891 110.993 108.338 111.171 105.024 111.329" fill="#A6A9A7"/>
<path id="path52" d="M216.967 24.684C216.967 24.684 223.284 23.1547 225.831 22.9507C228.38 22.7467 229.805 15.6147 233.068 15.1053C236.328 14.5947 239.079 18.5707 237.755 21.016C236.429 23.4613 236.836 24.9894 237.959 26.8227C239.079 28.656 239.588 30.4907 237.959 32.5294C236.328 34.568 226.033 37.42 226.033 37.42L217.68 34.2614C217.68 34.2614 214.927 27.8427 216.967 24.684Z" fill="#CAB698"/>
<path id="path54" d="M218.064 24.4254C218.064 24.4254 218.064 24.4254 218.063 24.4254C218.359 24.356 218.701 24.2774 219.079 24.1947C218.703 24.2787 218.359 24.3574 218.064 24.4254Z" fill="#CAB698"/>
<path id="path56" d="M230.908 34.2133C230.871 33.324 230.447 32.724 229.907 32.1827C229.484 31.7614 229.119 31.5254 228.575 31.5254C228.048 31.5254 227.355 31.7467 226.281 32.232C226.281 32.232 224.543 32.5867 220.829 33.1627C220.647 32.46 220.192 31.716 219.361 31.1507C218.459 30.5347 218.093 29.684 218.095 28.7733C218.095 28.0853 218.301 27.364 218.643 26.6827C218.644 26.68 218.645 26.6773 218.647 26.6747C218.648 26.6733 218.649 26.6707 218.649 26.6693C218.649 26.668 218.651 26.668 218.651 26.6667C218.952 26.0413 218.644 25.216 218.064 24.4254C218.359 24.3574 218.703 24.2787 219.079 24.1947C219.153 24.5254 219.281 24.8733 219.448 25.2373C219.893 26.1987 220.748 27.252 220.175 28.3307C219.825 28.9867 220.237 29.7973 220.599 30.3453C221.227 31.2973 222.059 31.604 222.967 31.604C224.381 31.604 225.981 30.8587 227.281 30.652C227.365 30.6387 227.452 30.632 227.543 30.632C228.165 30.632 228.941 30.9254 229.736 31.2187C230.531 31.5107 231.343 31.804 232.037 31.804C232.471 31.804 232.86 31.6894 233.169 31.3907C234.419 30.1854 233.612 28.4733 233.237 27.0333C232.227 23.132 236.024 21.928 238.052 19.5574L238.091 19.5067C238.103 19.836 238.065 20.16 237.976 20.4693C238.055 20.1947 238.091 19.9094 238.091 19.6174C237.705 20.9 237.136 22.22 236.328 22.8494C234.495 24.276 233.576 26.5174 234.391 28.352C234.847 29.376 235.969 30.084 236.356 31.272C234.513 32.3947 232.421 33.4707 230.908 34.2133V34.2133ZM237.975 20.4773C237.975 20.4747 237.975 20.4733 237.976 20.472C237.975 20.4733 237.975 20.4747 237.975 20.4773Z" fill="#A08461"/>
<path id="path58" d="M237.755 21.016C237.848 20.8427 237.92 20.6627 237.975 20.4773C237.921 20.6627 237.848 20.8427 237.755 21.016ZM237.976 20.472C237.976 20.4706 237.976 20.4706 237.976 20.4693C237.976 20.4706 237.976 20.4706 237.976 20.472Z" fill="#977F5D"/>
<path id="path60" d="M236.356 31.272C235.969 30.084 234.847 29.376 234.391 28.352C233.576 26.5173 234.495 24.276 236.328 22.8493C237.136 22.22 237.705 20.9 238.091 19.6173C238.091 19.9093 238.055 20.1946 237.976 20.4693C237.976 20.4706 237.976 20.4706 237.976 20.472C237.975 20.4733 237.975 20.4746 237.975 20.4773C237.92 20.6626 237.848 20.8426 237.755 21.016C237.175 22.0853 236.927 22.98 236.925 23.8013C236.923 24.856 237.327 25.792 237.959 26.8227C238.492 27.6973 238.888 28.572 238.979 29.468C238.261 30.0533 237.345 30.6693 236.356 31.272Z" fill="#7B5D3D"/>
<path id="path62" d="M228.812 35.208C228.812 35.208 237.336 31.3587 239.812 28.7013C242.287 26.044 242.651 22.928 245.768 22.1947C248.883 21.4614 250.992 25.952 249.617 27.6947C248.243 29.4347 247.787 32.3667 248.427 35.3013C249.068 38.232 249.161 41.0747 246.503 43.0894C243.847 45.1067 242.927 43.5494 240.085 43.0894C237.245 42.632 236.328 42.54 231.013 45.9307C231.013 45.9307 227.896 39.0573 228.812 35.208" fill="#DECCAE"/>
<path id="path64" d="M246.495 43.096C246.496 43.0947 246.497 43.0947 246.499 43.0934C246.5 43.092 246.501 43.0907 246.503 43.0894C248.243 41.7707 248.804 40.0987 248.804 38.2787C248.804 40.0987 248.243 41.7707 246.503 43.0894L246.495 43.096Z" fill="#DECCAE"/>
<path id="path66" d="M246.499 43.0934C248.316 41.5134 246.831 39.8427 247.14 38.2853C247.573 36.1227 244.656 35.0413 244.44 32.772C244.224 30.5027 245.519 28.5574 248.437 27.26C249.177 26.9307 249.688 26.5053 250.036 26.052C250.079 26.6853 249.951 27.2707 249.617 27.6947C248.656 28.9107 248.144 30.7107 248.141 32.6867C248.141 33.536 248.235 34.4187 248.427 35.3013C248.648 36.3147 248.804 37.3173 248.804 38.2787C248.804 40.0987 248.243 41.7707 246.503 43.0893C246.501 43.0907 246.5 43.092 246.499 43.0934" fill="#C3A57C"/>
<path id="path68" d="M184.989 26.756C184.989 26.756 188.807 26.1067 195.943 25.892C203.076 25.6747 207.257 25.4587 209.852 24.2333C212.445 23.008 213.093 21.4947 214.677 21.856C216.265 22.2147 219.435 25.0974 218.643 26.6827C217.849 28.2694 217.779 30.0707 219.361 31.1507C220.948 32.232 221.164 33.9614 220.732 34.8254C220.3 35.692 197.096 39.4373 197.096 39.4373L184.989 26.756" fill="#BE511E"/>
<path id="path70" d="M218.095 28.7733C218.095 28.0853 218.301 27.364 218.643 26.6827C218.644 26.68 218.645 26.6773 218.647 26.6747C218.645 26.6773 218.644 26.68 218.643 26.6827C218.301 27.364 218.095 28.0853 218.095 28.7733Z" fill="#8B5336"/>
<path id="path72" d="M187.403 26.4453C187.637 26.42 187.888 26.3933 188.156 26.368H188.157C187.889 26.3946 187.637 26.42 187.403 26.4453Z" fill="#DA9B78"/>
<path id="path74" d="M218.649 26.6693C218.649 26.6683 218.65 26.6683 218.65 26.6673C218.65 26.6683 218.649 26.6683 218.649 26.6693Z" fill="#8B5336"/>
<path id="path76" d="M200.2 35.78C199.839 35.5147 199.42 35.2067 198.945 34.856C198.945 34.8573 198.944 34.8573 198.944 34.8573C196.525 33.08 192.641 30.24 187.403 26.4453C187.637 26.42 187.889 26.3947 188.157 26.368C189.329 27.5187 190.711 28.432 192.133 29.2667C193.325 29.9653 194.727 30.2987 195.967 30.9093C197.125 31.48 198.052 32.4733 199.047 33.28C200.14 34.1693 201.42 34.3907 202.743 34.3907C203.301 34.3907 203.867 34.352 204.429 34.3067C206.812 34.116 209.192 33.7133 211.571 33.468C213.617 33.2587 217.471 33.608 216.869 30.5987C216.563 29.0547 216.516 27.996 217.331 26.6187C217.727 25.9453 217.948 25.22 218.088 24.4653C218.652 25.2467 218.945 26.0533 218.651 26.6667C218.651 26.668 218.649 26.668 218.649 26.6693C218.649 26.6707 218.648 26.6733 218.647 26.6747C218.645 26.6773 218.644 26.68 218.643 26.6827C218.301 27.364 218.095 28.0853 218.095 28.7733C218.093 29.684 218.459 30.5347 219.361 31.1507C220.192 31.716 220.647 32.46 220.829 33.1627C216.613 33.8173 209.853 34.756 200.2 35.78" fill="#A4371F"/>
<path id="path78" d="M57.1432 100.657C57.1432 100.657 57.3203 96.1666 58.5781 92.484C59.836 88.8013 59.836 87.2747 58.4869 82.9627C57.1432 78.6507 56.1536 76.0453 59.7448 73.0826C63.3385 70.1186 71.638 66.532 75.2396 59.616C78.8437 52.696 89.2213 25.3133 120.565 14.0733C136.781 8.66796 159.625 8.15198 178.784 20.2253C193.745 30.984 201.88 37.0226 201.88 37.0226C201.88 37.0226 160.776 100.977 152.347 104.868C147.019 106.831 142.417 106.611 136.065 106.392C132.625 106.273 128.671 106.153 123.81 106.381C109.974 107.028 57.1432 100.657 57.1432 100.657" fill="#E86828"/>
<path id="path80" d="M80.1964 57.0907C79.3917 57.0907 81.4104 51.8747 82.4973 49.9627C84.953 45.64 87.9297 41.5293 90.8202 37.484C93.7734 33.352 97.0599 29.2093 100.943 25.9067C103.177 24.004 105.547 22.432 108.029 21.1187C109.029 20.4493 110.047 19.8067 111.086 19.196C116.01 16.3147 121.291 14.128 126.825 12.868C127.439 13.7426 128.21 14.5213 128.792 15.42C129.697 16.8267 130.388 18.42 131.461 19.7107C131.729 17.6467 130.476 15.8413 130.211 13.7986C130.195 13.668 130.376 13.3427 130.543 13.3427C130.56 13.3427 130.577 13.3467 130.593 13.3547C131.86 13.9307 132.841 15 134.237 15.2947C135.367 15.5333 136.539 15.7 137.697 15.7013C137.704 15.7013 137.711 15.7013 137.717 15.7013C140.011 15.7013 142.351 15.2293 144.141 13.7707C143.133 14.0093 142.055 14.1026 140.996 14.1026C140.4 14.1026 139.812 14.0733 139.248 14.0227C137.964 13.9107 135.808 13.74 135.304 12.2787C135.243 12.0987 135.461 11.796 135.64 11.7787C135.787 11.7627 135.932 11.756 136.075 11.756C137.289 11.756 138.375 12.26 139.591 12.38C139.916 12.4133 140.244 12.428 140.573 12.428C141.805 12.428 143.048 12.208 144.216 11.8306C144.675 11.6826 145.125 11.5173 145.569 11.3373C148.648 11.408 151.707 11.6346 154.669 12.036C160.779 12.864 166.745 14.8387 172.083 17.9453C175.151 19.7333 191.167 27.7493 189.088 31.9107C188.159 33.776 186.107 34.48 183.497 34.48C177.045 34.48 167.184 30.1827 162.417 28.5227C155.469 26.108 147.052 23.2387 139.521 22.6587C137.899 22.5333 136.341 22.4733 134.839 22.4733C124.722 22.4733 117.084 25.2453 108.776 29.8973C99.4713 35.1106 93.0937 41.824 86.5729 49.528C85.362 50.96 83.4426 53.932 80.7994 56.672C80.5188 56.9626 80.3229 57.0907 80.1964 57.0907V57.0907ZM121.968 14.6787C121.935 14.6787 121.897 14.6827 121.854 14.692C116.552 15.776 111.479 18.9813 107.042 21.948C104.612 23.5733 102.37 25.3773 100.216 27.3533C98.1797 29.2227 96.5703 31.3867 94.6667 33.3533C94.5751 33.4453 94.5958 33.5653 94.6792 33.5653C94.7073 33.5653 94.7427 33.552 94.7839 33.5187C96.6016 31.9933 98.086 30.0067 99.8333 28.38C102.075 26.2947 104.469 24.408 107.073 22.7933C109.354 21.3773 111.698 20.0627 114.159 18.9947C116.615 17.928 119.232 17.2 121.589 15.92C121.841 15.7827 122.515 14.6787 121.968 14.6787V14.6787ZM182.44 27.9773C182.071 27.9773 181.421 28.7213 181.779 28.9427C182.552 29.416 183.12 30.064 183.771 30.68C184.409 31.2827 184.909 32.068 185.745 32.3933C185.795 32.412 185.847 32.4213 185.899 32.4213C186.425 32.4213 187.063 31.532 186.883 31.0893C186.544 30.2613 185.74 29.7413 185.055 29.2093C184.32 28.6413 183.391 28.2307 182.5 27.984C182.481 27.9787 182.46 27.9773 182.44 27.9773ZM148.855 13.02C148.703 13.02 148.44 13.3653 148.623 13.3947C151.159 13.8267 153.716 14.1066 156.237 14.6306C159.033 15.208 161.521 16.532 164.18 17.5133C167.008 18.5587 169.891 20.0707 172.245 21.9627C173.445 22.9293 174.56 23.9853 175.797 24.908C176.915 25.744 177.476 26.9707 178.795 27.66C178.881 27.7053 178.979 27.7253 179.081 27.7253C179.823 27.7253 180.861 26.6533 180.479 25.9973C179.12 23.6813 176.571 22.1626 174.484 20.568C172.099 18.7466 169.325 17.544 166.555 16.4333C163.951 15.3906 161.068 14.4 158.317 13.8587C155.219 13.252 152 13.2853 148.863 13.02C148.86 13.02 148.857 13.02 148.855 13.02V13.02ZM171.976 23.036C171.952 23.036 171.927 23.04 171.901 23.0453C171.659 23.1067 171.527 23.4106 171.505 23.632C171.484 23.844 171.596 24.096 171.776 24.2093C171.841 24.2507 171.908 24.268 171.972 24.268C172.169 24.268 172.349 24.1013 172.44 23.9267C172.531 23.752 172.476 23.5173 172.357 23.3533V23.3493C172.309 23.18 172.148 23.036 171.976 23.036" fill="#F38632"/>
<path id="path82" d="M126.825 12.868C126.717 12.7133 126.613 12.5547 126.516 12.392C131.789 11.1494 137.548 10.4254 143.516 10.4254C144.785 10.4254 146.065 10.4587 147.352 10.5267C146.769 10.82 146.176 11.092 145.569 11.3373C144.855 11.3213 144.139 11.3134 143.423 11.3134C139.624 11.3134 135.824 11.5414 132.169 11.9574C130.364 12.1627 128.583 12.468 126.825 12.868" fill="#DB4D20"/>
<path id="path84" d="M131.461 19.7107C130.388 18.42 129.697 16.8267 128.792 15.42C128.21 14.5213 127.439 13.7427 126.825 12.868C128.583 12.468 130.364 12.1627 132.169 11.9573C135.824 11.5413 139.624 11.3133 143.423 11.3133C144.139 11.3133 144.855 11.3213 145.569 11.3373C145.125 11.5173 144.675 11.6827 144.216 11.8307C143.048 12.208 141.805 12.428 140.573 12.428C140.244 12.428 139.916 12.4133 139.591 12.38C138.375 12.26 137.289 11.756 136.075 11.756C135.932 11.756 135.787 11.7627 135.64 11.7787C135.461 11.796 135.243 12.0987 135.304 12.2787C135.808 13.74 137.964 13.9107 139.248 14.0227C139.812 14.0733 140.4 14.1027 140.996 14.1027C142.055 14.1027 143.133 14.0093 144.141 13.7707C142.351 15.2293 140.011 15.7013 137.717 15.7013C137.711 15.7013 137.704 15.7013 137.697 15.7013C136.539 15.7 135.367 15.5333 134.237 15.2947C132.841 15 131.86 13.9307 130.593 13.3547C130.577 13.3467 130.56 13.3427 130.543 13.3427C130.376 13.3427 130.195 13.668 130.211 13.7987C130.476 15.8413 131.729 17.6467 131.461 19.7107" fill="#E75F24"/>
<path id="path86" d="M136.989 84.64C137.959 80.264 139.399 75.372 141.579 71.5267C145.88 63.94 149.891 56.7853 156.752 51.0506C163.664 45.2773 171.355 40.0253 180.352 38.448C184.743 37.6786 189.137 37.132 193.5 36.164C195.32 35.7573 197.133 35.312 198.945 34.856C200.88 36.28 201.88 37.0227 201.88 37.0227C201.88 37.0227 160.776 100.977 152.347 104.868C147.019 106.831 142.417 106.611 136.065 106.392C132.625 106.273 128.671 106.153 123.81 106.381C109.974 107.028 57.1432 100.657 57.1432 100.657C57.1432 100.657 57.3203 96.1666 58.5781 92.484C58.862 91.6546 59.0781 90.9386 59.2317 90.2706C61.9011 86.788 65.3125 83.8613 67.9948 80.3653C69.6927 78.1493 71.2839 75.8533 72.7527 73.476C74.3568 70.8773 75.5052 67.936 77.4245 65.5453C78.8984 63.7093 80.1093 64.528 80.6068 66.2227C80.7683 66.7827 81.362 66.96 81.8751 66.9373C83.1511 66.8826 84.7136 64.5973 85.586 63.8533C90.5052 59.6613 95.8593 55.468 101.664 52.5573C104.445 51.1627 107.255 49.8386 110.169 48.748C112.182 47.9946 117.516 45.736 119.083 48.284C119.802 49.4546 116.443 52.552 115.781 53.616C114.734 55.3013 115.38 57.5826 115.539 59.408C115.781 62.1693 112.875 63.2053 112.805 65.6866C112.745 67.7706 112.539 69.3853 111.51 71.26C110.852 72.456 110.075 73.588 109.531 74.8466C109.013 76.0493 106.641 79.4427 107.898 80.724C108.604 81.444 110.229 81.5226 111.138 81.652C112.471 81.844 113.773 81.8986 115.078 82.2493C127.18 85.4946 134.396 96.376 136.989 84.64" fill="#BE531E"/>
<path id="path88" d="M212.661 63.796C212.661 63.796 218.281 73.3067 223.252 80.8733C228.224 88.4387 232.333 91.0333 227.145 97.3013C221.956 103.572 191.041 110.488 172.235 109.841C153.427 109.192 143.697 102.923 141.972 97.7347C141.505 96.34 144.289 96.788 149.175 97.2373C162.467 98.4573 191.321 99.6774 212.661 63.796Z" fill="#BE511E"/>
<path id="path90" d="M176.52 109.865C195.139 109.489 221.573 103.295 226.928 97.5493C221.573 103.295 195.14 109.491 176.52 109.865Z" fill="#AA7D62"/>
<path id="path92" d="M226.932 97.544C226.941 97.5347 226.951 97.5253 226.96 97.516C226.951 97.5253 226.941 97.5347 226.932 97.544ZM226.997 97.4747C227.005 97.464 227.015 97.4547 227.024 97.444C227.015 97.4547 227.005 97.464 226.997 97.4747ZM227.068 97.3934C227.071 97.3907 227.073 97.388 227.075 97.3853C227.073 97.388 227.071 97.3907 227.068 97.3934ZM227.145 97.3013C227.153 97.2933 227.16 97.284 227.168 97.2747C227.161 97.284 227.153 97.2933 227.145 97.3013Z" fill="#AA7D62"/>
<path id="path94" d="M229.005 89.5653C229.005 89.5653 229.005 89.5653 229.005 89.564C229.005 89.5653 229.005 89.5653 229.005 89.5653ZM228.995 89.54C228.992 89.5333 228.989 89.5267 228.985 89.52C228.989 89.5267 228.992 89.5333 228.995 89.54Z" fill="#AA7D62"/>
<path id="path96" d="M228.256 88.1053C228.256 88.104 228.255 88.1026 228.255 88.1013C228.028 87.72 227.777 87.328 227.505 86.924V86.9227C227.779 87.328 228.029 87.7213 228.256 88.1053" fill="#CF9473"/>
<path id="path98" d="M228.984 89.5173C228.787 89.0547 228.54 88.5853 228.255 88.1013C228.255 88.1027 228.256 88.104 228.256 88.1053C228.541 88.5867 228.787 89.0547 228.984 89.5173" fill="#AA7D62"/>
<path id="path100" d="M215.001 67.6987L215 67.6973C214.857 67.4613 214.719 67.232 214.587 67.012C214.587 67.0107 214.587 67.012 214.587 67.0107C214.719 67.232 214.857 67.4613 215.001 67.6987" fill="#AA7D62"/>
<path id="path102" d="M215.927 69.224C215.6 68.6867 215.289 68.1746 215 67.6973L215.001 67.6986C215.291 68.176 215.6 68.6867 215.927 69.224" fill="#A2765E"/>
<path id="path104" d="M174.773 109.884C174.549 109.884 174.328 109.883 174.107 109.88C172.549 107.677 169.615 106.705 166.383 106.705C164.076 106.705 161.616 107.201 159.399 108.097C159.284 108.144 159.169 108.191 159.056 108.239C155.753 107.489 152.939 106.529 150.597 105.444C147.403 103.963 145.089 102.249 143.623 100.527C145.955 102.067 149.1 103.189 153.211 103.788C155.445 104.02 157.747 104.137 160.084 104.137C179.453 104.139 201.387 96.0733 210.068 78.7107C211.544 74.7733 213.072 70.7267 214.587 67.012C214.719 67.232 214.857 67.4613 215 67.6973C215.289 68.1747 215.6 68.6867 215.927 69.224C215.579 69.7213 215.273 70.2587 215 70.804C213.528 73.7467 212.651 76.968 211.211 79.936C207.107 88.4 200.016 94.532 191.528 98.368C188.661 99.6627 185.695 100.628 182.696 101.545C180.888 102.096 177.743 102.727 176.599 104.444C174.905 106.992 178.709 107.524 181.92 107.524C183.531 107.524 184.992 107.389 185.533 107.309C191.716 106.4 197.724 104.592 203.749 102.995C209.487 101.471 215.276 100.788 220.631 98.0747C224.585 96.0693 227.229 92.052 227.492 87.592C227.503 87.368 227.503 87.1467 227.505 86.924C227.777 87.328 228.028 87.72 228.255 88.1013C228.54 88.5853 228.787 89.0547 228.984 89.5173C228.985 89.5187 228.985 89.5187 228.985 89.52C228.989 89.5267 228.992 89.5333 228.995 89.54C228.997 89.548 229.001 89.556 229.005 89.564C229.005 89.5653 229.005 89.5653 229.005 89.5653C230.007 91.94 229.743 94.152 227.168 97.2747C227.16 97.284 227.153 97.2933 227.145 97.3013C227.123 97.3293 227.099 97.3573 227.075 97.3853C227.073 97.388 227.071 97.3907 227.068 97.3933C227.053 97.4107 227.039 97.4267 227.024 97.444C227.015 97.4547 227.005 97.464 226.997 97.4747C226.984 97.488 226.972 97.5013 226.96 97.516C226.951 97.5253 226.941 97.5347 226.932 97.544C226.931 97.5467 226.929 97.548 226.928 97.5493C221.573 103.295 195.139 109.489 176.52 109.865C175.929 109.877 175.347 109.884 174.773 109.884" fill="#A4371F"/>
<path id="path106" d="M122.893 8.1187C122.893 8.1187 138.795 15.108 148.109 0.661372C144.596 10.5774 131.74 15.6494 122.893 8.1187Z" fill="#C99866"/>
<path id="path114" d="M133.844 10.0627C133.844 10.0627 146.347 10.3933 150.164 7.81068C146.292 11.68 135.549 12.488 133.844 10.0627Z" fill="#459035"/>
<path id="path116" d="M132.312 11.192C132.312 11.192 137.981 14.492 144.084 13.588C138.656 16.1014 133.031 14.8013 128.364 10.7347C130.893 11.228 132.312 11.192 132.312 11.192" fill="#5CC135"/>
<path id="path118" d="M125.003 9.36664C125.003 9.36664 129.651 14.6586 131.344 19.6346C133.412 16.4946 127.734 10.3853 127.734 10.3853L125.003 9.36664" fill="#419137"/>
<path id="path120" d="M130.711 11.7827C130.711 11.7827 136.424 15.1494 142.085 14.0867C140.033 15.592 133.079 14.1067 130.711 11.7827" fill="#9AD982"/>
<path id="path124" d="M100.289 81.816C100.289 81.816 113.878 83.1214 122.575 87.252C131.268 91.3814 136.271 96.4907 136.052 99.752C135.836 103.012 129.967 107.687 114.422 108.447C98.8776 109.208 88.6588 109.752 77.7891 109.86C66.9193 109.971 65.0703 107.904 65.0703 107.904C65.0703 107.904 86.4844 101.491 100.289 81.816" fill="#BE511E"/>
<path id="path126" d="M121.392 86.7187C116.657 84.6974 110.818 83.4227 106.482 82.6827L106.49 82.6693C111.649 82.8867 116.768 84.3467 121.392 86.7187Z" fill="#A4371F"/>
<path id="path128" d="M124.02 88.8227C124.007 88.8227 123.995 88.82 123.984 88.816C120.802 87.6787 117.93 85.8067 114.721 84.672C112.049 83.728 109.24 83.1347 106.453 82.7373L106.482 82.6827C110.818 83.4227 116.657 84.6974 121.392 86.7187C122.39 87.2307 123.365 87.7853 124.313 88.3787C124.468 88.4747 124.19 88.8227 124.02 88.8227" fill="#A4371F"/>
<path id="path130" d="M129.412 92.3493C129.391 92.3493 129.369 92.3427 129.352 92.328C127.945 91.236 126.508 89.9707 124.945 89.1267L125.089 88.9347C125.982 89.2293 126.664 89.7333 127.432 90.2587C128.193 90.7787 129.024 91.3093 129.636 91.9987C129.729 92.1067 129.548 92.3493 129.412 92.3493Z" fill="#A4371F"/>
<path id="path132" d="M76.9573 109.864C76.9557 109.864 76.9536 109.864 76.9521 109.864C76.9536 109.864 76.9557 109.864 76.9573 109.864ZM76.9579 109.864C77.2292 109.864 77.5058 109.863 77.7891 109.86C86.7626 109.771 95.2927 109.385 106.742 108.824C95.2927 109.385 86.7626 109.771 77.7891 109.86C77.5052 109.863 77.2298 109.864 76.9579 109.864Z" fill="#AA7D62"/>
<path id="path134" d="M127.918 106.261C133.54 104.417 135.916 101.804 136.052 99.752C136.052 99.7467 136.053 99.74 136.053 99.7347C136.053 99.74 136.052 99.7467 136.052 99.752C135.916 101.804 133.54 104.417 127.918 106.261V106.261ZM136.053 99.732C136.053 99.7267 136.055 99.72 136.055 99.716C136.055 99.72 136.053 99.7267 136.053 99.732ZM136.055 99.7133C136.071 99.4133 136.043 99.0973 135.973 98.7693C136.043 99.0973 136.071 99.4133 136.055 99.7133ZM135.972 98.7653C135.971 98.76 135.971 98.7547 135.969 98.7493C135.971 98.7547 135.971 98.76 135.972 98.7653ZM135.968 98.7427C135.967 98.74 135.965 98.7347 135.965 98.732C135.965 98.7347 135.967 98.7387 135.968 98.7427ZM135.963 98.7213C135.963 98.72 135.961 98.716 135.961 98.7147C135.961 98.716 135.963 98.72 135.963 98.7213Z" fill="#A4371F"/>
<path id="path136" d="M76.9573 109.864C76.9557 109.864 76.9536 109.864 76.9521 109.864C71.2057 109.863 68.1547 109.232 66.5912 108.687C68.4036 108.636 70.6964 108.203 74.4479 106.885C82.7369 103.788 84.6093 101.264 87.1328 99.608C90.013 97.8067 89.8697 97.0147 89.5806 96.1493C89.2942 95.2853 89.0052 95.1413 90.375 94.348C96.3568 91.4653 95.3464 90.0253 96.427 89.448C98.4453 88.2947 99.0937 86.9973 99.8854 85.34C100.517 84.0227 100.601 83.2053 102.056 82.0213C102.595 82.0893 103.241 82.1773 103.971 82.284C102.815 83.188 101.82 84.3227 101.333 85.66C100.865 86.956 100.917 88.2133 99.6068 89.1347C99.0235 89.5453 98.375 89.8373 97.8073 90.276C96.4792 91.3013 95.9844 93.032 94.5806 94.0187C93.6718 94.66 92.5312 94.96 91.8412 95.8787C91.3255 96.5627 91.4322 97.828 91.177 98.6133C90.2578 101.441 86.4218 101.723 85.2292 104.499C84.1598 106.991 87.364 107.421 89.9484 107.421C91.0406 107.421 92.0224 107.344 92.5235 107.313C95.1511 107.156 97.7473 106.707 100.375 106.551C106.737 106.176 113.146 106.005 119.471 105.209C122.138 104.873 124.779 104.343 127.307 103.431C129.257 102.732 131.469 101.683 132.695 99.94C133.864 98.28 133.975 96.5253 133.591 94.7813C134.885 96.192 135.693 97.536 135.961 98.7147C135.961 98.716 135.963 98.72 135.963 98.7213C135.964 98.7253 135.964 98.728 135.965 98.732C135.965 98.7347 135.967 98.74 135.968 98.7427C135.968 98.7453 135.968 98.748 135.969 98.7493C135.971 98.7547 135.971 98.76 135.972 98.7653C135.972 98.7667 135.973 98.768 135.973 98.7693C136.043 99.0973 136.071 99.4133 136.055 99.7133C136.055 99.7133 136.055 99.7147 136.055 99.716C136.055 99.72 136.053 99.7267 136.053 99.732C136.053 99.732 136.053 99.7333 136.053 99.7347C136.053 99.74 136.052 99.7467 136.052 99.752C135.916 101.804 133.54 104.417 127.918 106.261C124.611 107.347 120.18 108.165 114.422 108.447C114.221 108.456 114.022 108.467 113.822 108.476C111.334 108.599 108.982 108.715 106.742 108.824C95.2926 109.385 86.7625 109.771 77.7891 109.86C77.5057 109.863 77.2292 109.864 76.9579 109.864H76.9573" fill="#A4371F"/>
<path id="path138" d="M226.281 32.232C226.281 32.232 216.768 34.1773 194.716 36.34C176.776 38.5013 159.915 44.7707 147.375 64.66C136.997 81.9533 130.943 100.543 153.211 103.788C173.967 105.949 200.339 98.168 210.068 78.7107C214.607 66.6053 219.631 53.4707 223.252 52.12C226.312 50.98 231.081 48.632 231.703 47.2493C232.325 45.8667 231.841 42.204 231.079 39.9227C230.32 37.6413 229.907 37.8493 230.596 35.9133C231.289 33.98 230.735 33.012 229.907 32.1827C229.076 31.352 228.461 31.2467 226.281 32.232Z" fill="#DB6124"/>
<path id="path140" d="M56.0729 105.588C56.0729 105.588 54.2005 98.96 61.8385 89.5907C69.4765 79.9347 74.2317 74.028 75.8177 70.28C77.4036 66.532 77.5469 64.804 78.8437 64.804C80.1407 64.804 80.1432 67.3973 79.9973 69.8467C88.6432 62.7853 99.9584 54.7867 108.966 50.464C112.135 49.1667 113.146 49.0933 114.154 48.5173C115.161 47.9427 117.325 49.1667 115.956 51.4733C114.586 53.7787 113.219 55.6507 113.721 57.308C114.227 58.9653 114.875 59.2547 113.505 60.9133C112.135 62.5693 111.703 63.5054 111.919 65.5227C112.135 67.5414 111.425 69.1173 109.039 71.5053C107.523 73.0187 107.74 73.8827 107.38 75.684C107.021 77.4854 106.372 79.216 103.49 81.0173C100.607 82.8173 100.68 83.6827 99.8855 85.34C99.0937 86.9973 98.4453 88.2947 96.4271 89.448C95.3464 90.0253 96.3568 91.4653 90.3751 94.348C89.0052 95.1413 89.2943 95.2853 89.5807 96.1493C89.8697 97.0147 90.0131 97.8067 87.1328 99.608C84.6093 101.264 82.7369 103.788 74.4479 106.885C67.6745 109.264 65.6588 108.759 62.6328 108.327C59.6041 107.895 56.4349 106.96 56.0729 105.588" fill="#DB6124"/>
<path id="path142" d="M110.708 59.3373C110.073 60.0466 109.784 61.0013 109.089 61.6813C108.437 62.3173 107.586 62.74 107.005 63.444C106.818 63.668 106.617 64.3133 107.151 64.14C108.06 63.848 108.867 62.952 109.495 62.2587C109.813 61.908 110.07 61.52 110.286 61.1C110.547 60.5946 110.706 59.96 110.995 59.4827C111.164 59.2 110.891 59.1373 110.708 59.3373" fill="#BE511E"/>
<path id="path144" d="M106.953 67.508C106.063 69.3987 104.51 70.8453 102.773 71.9413C102.458 72.1373 101.893 73.2734 102.669 72.9907C104.885 72.1814 106.763 69.5867 107.56 67.4494C107.766 66.8947 107.094 67.2093 106.953 67.508Z" fill="#BE511E"/>
<path id="path146" d="M103.406 75.528C102.841 77.14 101.016 77.308 99.9453 78.3853C99.8099 78.52 99.5364 79.184 99.9765 79.1013C100.969 78.916 101.94 77.9746 102.646 77.2973C103.125 76.8386 103.638 76.132 103.654 75.4386C103.656 75.2786 103.43 75.4653 103.406 75.528" fill="#BE511E"/>
<path id="path148" d="M97.3489 82.944C96.9661 83.468 96.5312 83.9493 96.0677 84.42C95.3489 85.144 94.5547 85.4467 93.6798 85.924C93.4375 86.0547 92.7995 87.0227 93.4506 86.968C94.4167 86.8827 95.388 86.0493 96.0287 85.372C96.724 84.64 97.3073 83.8707 97.7109 82.968C97.8593 82.6373 97.4584 82.7947 97.3489 82.944" fill="#BE511E"/>
<path id="path150" d="M89.6276 91.3254C89.4817 91.5867 89.2735 91.736 89.0521 91.9227C88.8645 92.0814 88.7474 92.2947 88.5391 92.4347C88.0938 92.736 87.5625 92.7893 87.1068 93.0707C86.8984 93.1987 86.3724 93.9187 86.9167 93.932C87.6068 93.9493 88.2943 93.4387 88.7969 93.0134C89.2421 92.6347 89.7787 91.9013 89.8385 91.3067C89.8568 91.1427 89.6693 91.248 89.6276 91.3254Z" fill="#BE511E"/>
<path id="path152" d="M84.2787 97.22C84.0912 97.5827 83.4063 97.9 83.0755 98.1293C82.5989 98.456 82.0937 98.6933 81.5391 98.8413C81.2369 98.9213 80.638 99.7973 81.224 99.7986C82.0547 99.804 82.7527 99.252 83.3697 98.7533C83.9297 98.3013 84.6041 97.8333 84.7917 97.0973C84.8932 96.692 84.3541 97.0653 84.2787 97.22" fill="#BE511E"/>
<path id="path154" d="M170.44 48.852C170.391 48.6893 170.2 48.6787 170.06 48.6853C169.737 48.7013 169.412 48.94 169.18 49.1453C168.909 49.3867 168.672 49.6813 168.527 50.0147C168.388 50.332 168.391 50.7347 168.74 50.896C168.901 50.9707 169.139 50.8587 169.276 50.784C169.459 50.6893 169.596 50.5453 169.743 50.4026C169.945 50.2013 170.099 49.944 170.172 49.6653L170.372 49.3467C170.445 49.1933 170.487 49.0187 170.44 48.852" fill="#040606"/>
<path id="path156" d="M174.489 52.576C173.855 52.576 172.921 54.1093 173.828 54.1093C174.461 54.1093 175.393 52.576 174.489 52.576Z" fill="#040606"/>
<path id="path158" d="M166.257 55.14L166.232 55.1347C165.967 55.0587 165.693 55.356 165.563 55.544L165.536 55.5854C165.443 55.716 165.357 55.9307 165.421 56.0947C165.511 56.308 165.781 56.2227 165.927 56.136C166.125 56.0173 166.751 55.2814 166.257 55.14" fill="#040606"/>
<path id="path160" d="M165.295 62.0346C164.823 62.0346 164.131 63.1747 164.8 63.1747C165.271 63.1747 165.967 62.0346 165.295 62.0346Z" fill="#040606"/>
<path id="path162" d="M182.331 47.1961L182.36 47.12L182.388 46.936L182.213 46.6947L182.211 46.7014L182.101 46.6867C181.8 46.6867 181.489 47.0574 181.383 47.304C181.295 47.5134 181.292 47.8587 181.609 47.8267L181.74 47.7907L181.737 47.7961L181.755 47.7854C181.917 47.7254 182.06 47.6 182.169 47.4654L182.211 47.408L182.248 47.3587L182.323 47.2147L182.325 47.2094L182.331 47.1961" fill="#040606"/>
<path id="path164" d="M185.579 47.5107C185.271 47.448 184.976 47.684 184.828 47.94C184.697 48.164 184.497 48.6427 184.888 48.7307C185.2 48.7987 185.675 48.356 185.688 48.0027C185.787 47.7773 185.787 47.5547 185.579 47.5107" fill="#040606"/>
<path id="path166" d="M155.289 63.7147C155.14 63.5107 155.008 63.3947 154.76 63.4653L154.56 63.732L154.672 64.02C154.549 64.3413 154.232 64.6147 154.292 65.0067C154.344 65.352 154.789 65.5027 155.071 65.3227C155.419 65.1 155.585 64.712 155.56 64.304C155.544 64.0827 155.415 63.8893 155.289 63.7147Z" fill="#040606"/>
<path id="path168" d="M192.437 45.24C192.476 45.1 192.479 44.9547 192.401 44.8387L192.315 44.776L192.287 44.724C191.919 44.52 191.724 45.276 191.743 45.512C191.765 45.8294 192.091 45.7987 192.255 45.592L192.357 45.4347L192.437 45.24" fill="#040606"/>
<path id="path170" d="M152.401 70.7973C152.352 70.628 152.232 70.512 152.205 70.332C152.167 70.0547 151.807 70.3627 151.765 70.4933L151.763 70.5053C151.516 70.8267 151.36 71.356 151.771 71.54C151.997 71.6413 152.284 71.3173 152.357 71.14L152.401 70.7973" fill="#040606"/>
<path id="path172" d="M148.857 83.5827C148.724 83.5093 148.573 83.676 148.527 83.7867L148.5 83.868C148.315 84.0853 148.221 84.4867 148.489 84.5867C148.693 84.6627 148.893 84.324 148.945 84.1813C149.011 84.012 149.049 83.692 148.857 83.5827" fill="#040606"/>
<path id="path174" d="M142.768 87.52L142.688 87.4427L142.675 87.4027C142.104 87.0013 141.636 87.8013 141.533 88.2667C141.453 88.6347 141.599 89.7227 142.229 89.296C142.743 88.9494 143.172 88.0827 142.768 87.52" fill="#040606"/>
<path id="path176" d="M156.133 89.6493C155.929 89.616 155.76 89.7133 155.623 89.868L155.331 90.2067C155.085 90.5827 154.921 91.288 155.297 91.6294C155.697 91.992 156.224 91.1053 156.355 90.8453C156.536 90.48 156.693 89.7387 156.133 89.6493Z" fill="#040606"/>
<path id="path178" d="M91.1251 68.5547L90.9271 68.34L90.5807 68.4653C90.4531 68.5693 90.3751 68.7334 90.3151 68.8814C90.224 69.1227 90.1536 69.5094 90.4688 69.6027C90.7969 69.6987 91.1251 69.1947 91.2084 68.9467C91.2631 68.7734 91.2213 68.632 91.1251 68.5547" fill="#040606"/>
<path id="path180" d="M79.5546 76.448C79.5182 76.2747 79.2735 76.2427 79.0989 76.272C78.8333 76.24 78.5599 76.492 78.4115 76.7067L78.2812 76.9507L78.2005 77.1427L78.1979 77.2494C78.1849 77.3894 78.2161 77.5174 78.3333 77.5947C78.724 77.8507 79.2136 77.3507 79.4011 77.0587C79.5208 76.8707 79.5989 76.6707 79.5546 76.448" fill="#040606"/>
<path id="path182" d="M81.0651 79.3013C80.9844 79.1013 80.7604 79.0827 80.5964 79.184C80.4401 79.2774 80.2344 79.5187 80.2136 79.7307C80.1563 79.8853 80.1588 80.06 80.3177 80.1507L80.4921 80.184L80.6251 80.1653L80.8281 80.0147L80.9505 79.888C81.0807 79.7174 81.1511 79.5093 81.0651 79.3013Z" fill="#040606"/>
<path id="path184" d="M87.586 78.5093C87.5235 78.2707 87.3021 78.2827 87.0989 78.3493C86.8281 78.3507 86.5052 78.62 86.336 78.7587C86.0391 78.9987 85.7943 79.3307 85.7579 79.7173C85.7265 80.0587 86.138 80.1 86.3776 80.0627C86.9869 79.9653 87.7604 79.176 87.586 78.5093" fill="#040606"/>
<path id="path186" d="M73.815 82.9653C73.7473 82.9773 73.5573 83.164 73.6849 83.2107C73.8464 83.268 73.9817 83.3893 74.0885 83.5187C74.2005 83.652 74.2005 83.8493 74.375 83.9133C74.5286 83.9707 74.7057 83.728 74.7344 83.6053C74.8333 83.1373 74.1901 82.896 73.815 82.9653" fill="#040606"/>
<path id="path188" d="M73.8645 87.656L73.5937 87.5227L73.5027 87.4187C73.4349 87.32 73.5104 87.336 73.388 87.4187C73.4584 87.372 73.6016 87.112 73.414 87.1733C72.9505 87.3267 73.1251 88.1947 73.6041 88.1427C73.7604 88.1267 74.1041 87.7613 73.8645 87.656" fill="#040606"/>
<path id="path190" d="M68.336 92.6466L68.0339 92.668C67.7162 92.6666 67.4558 92.924 67.2631 93.1533C67.047 93.4107 66.9427 93.792 66.9766 94.124C67.0131 94.5107 67.4271 94.644 67.7344 94.4853C68.0782 94.3093 68.297 93.9707 68.4454 93.624C68.547 93.3853 68.711 92.7586 68.336 92.6466Z" fill="#040606"/>
<path id="path192" d="M63.4505 96.8133L63.2188 96.9293L63.1251 96.984C62.9063 97.1546 62.7136 97.432 62.6536 97.7053C62.5964 97.952 62.6588 98.32 62.9844 98.2947C63.2473 98.272 63.4115 97.996 63.5052 97.7826C63.5781 97.616 63.9167 96.7253 63.4505 96.8133" fill="#040606"/>
<path id="path194" d="M86.0495 56.6894L85.8125 56.6174C85.3724 56.492 84.9115 57.092 84.7969 57.4653C84.7188 57.7227 84.4245 58.8174 85.0104 58.7227C85.1407 58.7 85.2579 58.6294 85.362 58.528C85.5364 58.408 85.6615 58.232 85.7604 58.0373L85.8385 57.7987L85.9479 57.576C86.0807 57.304 86.2864 56.9547 86.0495 56.6894Z" fill="#040606"/>
<path id="path196" d="M80.914 57.2653C80.7448 57.1213 80.4948 57.3173 80.3854 57.4427C80.263 57.592 80.2084 57.7987 80.1536 57.9787C80.0885 58.1893 80.0364 58.4213 80.0494 58.6427C80.0573 58.7733 80.1302 58.9493 80.2812 58.964C80.4817 58.9827 80.638 58.784 80.7344 58.6347C80.8412 58.4653 80.974 58.1667 80.9948 57.9027C81.039 57.6773 81.086 57.4107 80.914 57.2653Z" fill="#040606"/>
<path id="path198" d="M91.6927 47.5173L91.664 47.4867L91.5964 47.3507C91.2995 47.2067 91.0989 47.8293 91.0625 48.0107C91.0208 48.216 90.974 48.7387 91.3229 48.6787C91.7265 48.612 91.8099 47.816 91.6927 47.5173Z" fill="#040606"/>
<path id="path200" d="M91.2266 42.56C90.8255 42.404 90.5495 43.02 90.461 43.3013C90.3907 43.5253 90.3464 43.752 90.3126 43.9827C90.2918 44.112 90.25 44.284 90.3099 44.4093C90.3178 44.528 90.3542 44.6373 90.4792 44.6747C90.6902 44.7347 90.9271 44.4507 91.0131 44.2987C91.297 43.8093 91.2995 43.2253 91.3047 42.672L91.2266 42.56" fill="#040606"/>
<path id="path202" d="M100.099 42.1214C100.06 41.932 99.9479 41.7614 99.8281 41.616L99.6563 41.5054L99.5156 41.5254L99.4036 41.5921L99.4063 41.5814L99.3568 41.6267L99.2369 41.6734C98.8751 41.94 98.9869 42.4561 99.3125 42.6947C99.7136 42.9934 100.187 42.5534 100.099 42.1214" fill="#040606"/>
<path id="path204" d="M103.18 39.5267V39.4907C103.169 39.288 103.018 39.0507 102.786 39.136C102.37 39.288 102.331 39.8667 102.398 40.2387C102.492 40.7307 103.023 40.4787 103.159 40.152C103.219 40.0014 103.237 39.7387 103.18 39.5267Z" fill="#040606"/>
<path id="path206" d="M98.4817 38.1733L98.1901 38.3187C98.0677 38.392 97.974 38.5133 97.9401 38.6493L97.9713 38.764C97.9011 38.96 97.8516 39.1893 97.9193 39.372L98.1303 39.3893C98.4765 39.1707 98.5208 38.732 98.526 38.3587L98.5027 38.3067L98.4817 38.1733" fill="#040606"/>
<path id="path208" d="M98.3932 34.38L98.2552 34.3067C97.6823 34.3507 97.1536 35.1734 97.138 35.7294C97.0651 35.8867 97.0079 36.0854 97.1276 36.192C97.4115 36.4454 97.9115 35.7373 98.0287 35.5667C98.2369 35.2707 98.5417 34.7587 98.3932 34.38" fill="#040606"/>
<path id="path210" d="M90.7656 38.3773L90.5703 38.4747C90.2344 38.4733 89.8803 38.9907 89.7864 39.2293C89.7109 39.4093 89.664 39.6947 89.8645 39.8107C90.1172 39.9587 90.4063 39.7333 90.5781 39.5613C90.7787 39.36 90.9349 39.1 91.0208 38.828C91.0912 38.6027 91.0833 38.2987 90.7656 38.3773Z" fill="#040606"/>
<path id="path212" d="M116.242 35.3214C116.049 34.9654 115.641 35.3747 115.503 35.5587L115.445 35.6587C115.273 35.8494 115.138 36.0774 115.047 36.3067L115.096 36.5373C115.398 36.6813 115.737 36.3814 115.93 36.1867C116.112 36.0014 116.391 35.5934 116.242 35.3214" fill="#040606"/>
<path id="path214" d="M113.703 30.764L113.664 30.6787C113.247 30.588 112.987 30.8893 112.846 31.2493C112.724 31.5533 112.724 31.9893 113.154 31.9787C113.638 31.9653 114.089 30.984 113.703 30.764Z" fill="#040606"/>
<path id="path216" d="M107.63 32.0227C107.49 31.9907 107.346 32.048 107.221 32.1373C107.057 32.1666 106.911 32.264 106.81 32.4013C106.654 32.604 106.529 32.9387 106.654 33.1867C106.776 33.428 107.089 33.3213 107.266 33.2147C107.5 33.0733 107.695 32.84 107.802 32.5893C107.888 32.388 107.893 32.0827 107.63 32.0227Z" fill="#040606"/>
<path id="path218" d="M107.961 27.88C107.643 27.816 107.362 28.1413 107.193 28.3707C107.099 28.4987 107.036 28.6547 107.005 28.808C106.977 28.9573 107.034 29.0187 107.161 29.076C107.406 29.1813 107.742 29.0173 107.917 28.856L107.964 28.8067L108.107 28.7853C108.323 28.7187 108.445 28.516 108.448 28.2947C108.451 28.028 108.187 27.9253 107.961 27.88" fill="#040606"/>
<path id="path220" d="M131.513 29.3613L131.399 29.0733C131.183 28.88 130.852 29.1213 130.688 29.2693C130.473 29.4653 130.205 29.844 130.367 30.1426C130.492 30.3746 130.7 30.404 130.94 30.328C131.325 30.2053 131.716 29.6893 131.513 29.3613" fill="#040606"/>
<path id="path222" d="M125.169 25.992L124.995 25.9854L124.833 25.8453L124.536 26.0587C124.409 26.428 124.667 26.8787 125.049 26.9733C125.281 27.032 125.479 26.736 125.508 26.5373C125.542 26.2893 125.331 26.1374 125.169 25.992" fill="#040606"/>
<path id="path224" d="M125.206 23.6827L125.214 23.5534L125.133 23.5387L124.948 23.6987C124.909 23.8853 124.771 24.1147 124.844 24.3107C124.925 24.5134 125.112 24.4987 125.263 24.3707C125.401 24.2547 125.479 24.08 125.474 23.9027C125.466 23.7493 125.349 23.644 125.206 23.6827" fill="#040606"/>
<path id="path226" d="M121.596 20.8174L121.32 20.796H121.315C120.94 20.8854 120.758 21.3374 121.047 21.6254C121.198 21.776 121.464 21.6507 121.578 21.5227L121.687 21.3507L121.792 21.2413C121.849 21.04 121.75 20.8827 121.596 20.8174" fill="#040606"/>
<path id="path228" d="M127.937 18.092C127.628 17.76 127.099 18.4347 127.044 18.7053L127.164 18.8667L127.487 18.824L127.656 18.684L127.852 18.6254C128.008 18.496 128.099 18.2627 127.937 18.092" fill="#040606"/>
<path id="path230" d="M116.953 20.7933L117.029 20.4853C117 20.2133 116.721 20.1733 116.51 20.2613C116.255 20.3707 115.969 20.6347 115.914 20.9147L115.987 21.0693L116.055 21.208C116.208 21.356 116.466 21.2427 116.617 21.1493L116.81 20.9893L116.953 20.7933" fill="#040606"/>
<path id="path232" d="M113.156 21.9094L113.172 21.88L113.112 21.744C112.766 21.724 112.318 22.396 112.789 22.5347C113.12 22.632 113.615 22.0174 113.156 21.9094Z" fill="#040606"/>
<path id="path234" d="M155.591 20.8653C155.459 20.7853 155.303 20.7613 155.153 20.808C154.809 20.9107 154.421 21.4 154.677 21.7373C154.776 21.8653 154.992 21.8787 155.136 21.8467C155.357 21.7947 155.536 21.6307 155.64 21.4307L155.693 21.1894L155.716 21.1493C155.752 20.9987 155.732 20.9493 155.591 20.8653" fill="#040606"/>
<path id="path236" d="M160.156 18.092C160.096 17.9094 159.919 17.8107 159.737 17.7773C159.505 17.7347 159.307 17.9134 159.191 18.092C159.071 18.2734 158.973 18.532 159.109 18.7294C159.251 18.9374 159.505 18.7987 159.633 18.6493L159.729 18.5227L159.752 18.5627C160.093 18.7534 160.255 18.38 160.156 18.092" fill="#040606"/>
<path id="path238" d="M172.357 23.3534V23.3494C172.303 23.1547 172.099 22.9947 171.901 23.0454C171.659 23.1067 171.527 23.4107 171.505 23.632C171.484 23.844 171.596 24.096 171.776 24.2094C172.041 24.3747 172.32 24.1587 172.44 23.9267C172.531 23.752 172.476 23.5174 172.357 23.3534" fill="#040606"/>
<path id="path240" d="M139.243 20.2494L139.197 20.1494L139.084 20.14H138.937L138.601 20.2627C138.437 20.392 138.26 20.7694 138.563 20.8707C138.809 20.952 139.081 20.716 139.183 20.5107L139.219 20.316L139.243 20.2494" fill="#040606"/>
<path id="path242" d="M134.967 17.932C134.768 17.572 134.333 17.256 133.904 17.272C133.607 17.2813 133.188 17.3734 133.027 17.66C132.885 17.9094 132.935 18.124 133.213 18.2187C133.377 18.2734 133.563 18.2427 133.729 18.2174C134.033 18.1734 134.32 18.3373 134.612 18.3667L134.937 18.04L134.967 17.932Z" fill="#040606"/>
<path id="path244" d="M102.675 27.968C102.495 27.9493 102.349 28.12 102.237 28.2333L102.138 28.4253L102.112 28.4707C102.036 28.6373 101.937 28.9093 102.156 29.0027L102.425 28.844C102.526 28.7747 102.622 28.664 102.669 28.5427L102.763 28.3707C102.792 28.2307 102.919 27.9907 102.675 27.968" fill="#040606"/>
<path id="path246" d="M135.669 48.736C135.549 48.6107 135.473 48.568 135.3 48.5627L135.292 48.5653L135.307 48.476L135.273 48.3947L135.191 48.36C135.084 48.228 134.893 48.5347 134.888 48.6174C134.869 48.8467 134.94 49.1027 135.096 49.2733C135.312 49.508 135.609 49.1 135.68 48.9294L135.669 48.736" fill="#040606"/>
<path id="path248" d="M126.232 44.1213C126.206 43.9587 126.109 43.856 125.984 43.8227L125.961 43.7533C125.794 43.5773 125.578 43.4613 125.422 43.2773C125.294 43.1267 125.044 43.4827 125.047 43.5933C125.057 43.832 125.182 44.0587 125.305 44.2533C125.419 44.432 125.596 44.6866 125.828 44.7053C126.102 44.7293 126.268 44.3467 126.232 44.1213" fill="#040606"/>
<path id="path250" d="M199.836 27.4093L199.625 27.396L199.521 27.36C199.361 27.328 199.229 27.4453 199.151 27.5706C199.019 27.7853 198.831 28.3107 199.091 28.516C199.309 28.6867 199.607 28.3333 199.713 28.184C199.86 27.9827 199.981 27.64 199.836 27.4093" fill="#040606"/>
<path id="path252" d="M201.396 30.532L201.232 30.4613L201 30.5747C200.872 30.6307 200.763 30.7266 200.693 30.872C200.56 31.1413 200.857 31.236 201.065 31.244L201.325 31.196L201.473 31.2147C201.628 31.224 201.825 30.9773 201.809 30.832C201.784 30.632 201.579 30.5586 201.396 30.532" fill="#040606"/>
<path id="path254" d="M206.273 28.9214L206.245 28.74L206.208 28.6987L206.191 28.6733L205.833 28.6453C205.651 28.7653 205.528 28.9493 205.495 29.1653C205.467 29.3373 205.549 29.5747 205.719 29.6467C205.88 29.7187 206.076 29.4853 206.148 29.3747C206.235 29.248 206.281 29.08 206.273 28.9214Z" fill="#040606"/>
<path id="path256" d="M211.961 28.268L211.927 28.2093L211.967 28.0373L211.86 27.944L211.659 27.9787L211.636 27.968C211.524 27.9013 211.396 27.9107 211.268 27.9107C211.044 27.9133 210.711 28.1213 210.836 28.3853C210.927 28.5773 211.227 28.6307 211.412 28.6253C211.563 28.6227 211.691 28.552 211.784 28.4493L211.961 28.268" fill="#040606"/>
<path id="path258" d="M107.258 32.1373L107.07 32.1987C106.961 32.26 106.82 32.4373 106.909 32.5653L107.055 32.6093C107.247 32.6093 107.534 32.1373 107.258 32.1373Z" fill="white"/>
<path id="path260" d="M107.992 27.8133C107.797 27.8133 107.51 28.2867 107.789 28.2867C107.982 28.2867 108.271 27.8133 107.992 27.8133Z" fill="white"/>
<path id="path262" d="M131.281 29.1533C131.055 29.1533 130.719 29.7053 131.044 29.7053C131.271 29.7053 131.607 29.1533 131.281 29.1533Z" fill="white"/>
<path id="path264" d="M97.9765 34.5987C97.7631 34.5987 97.4479 35.1147 97.7552 35.1147C97.9688 35.1147 98.2812 34.5987 97.9765 34.5987Z" fill="white"/>
<path id="path266" d="M85.2369 56.9534L85.1276 57.088L85.0469 57.4574L85.4011 57.3294C85.5417 57.1867 85.7084 57.004 85.6875 56.788C85.6563 56.4934 85.2839 56.8374 85.2369 56.9534" fill="white"/>
<path id="path268" d="M170.112 48.8093C169.755 48.8973 169.459 49.176 169.208 49.4333C169.041 49.6093 169.156 49.8613 169.375 49.668C169.607 49.46 169.877 49.3013 170.123 49.108C170.219 49.0333 170.333 48.7546 170.112 48.8093" fill="white"/>
<path id="path270" d="M86.5833 78.84C86.3907 78.84 86.112 79.3013 86.3828 79.3013C86.5729 79.3013 86.8541 78.84 86.5833 78.84Z" fill="white"/>
<path id="path272" d="M155.191 20.892C154.989 20.892 154.695 21.3773 154.979 21.3773C155.18 21.3773 155.473 20.892 155.191 20.892Z" fill="white"/>
<path id="path274" d="M142.424 87.3827L142.084 87.592L142.024 87.804C141.984 88.172 142.528 87.8333 142.5 87.5733L142.424 87.3827" fill="white"/>
<path id="path276" d="M67.8177 92.684C67.5677 92.684 67.1953 93.2894 67.5547 93.2894C67.8073 93.2894 68.1745 92.684 67.8177 92.684Z" fill="white"/>
<path id="path278" d="M185.469 47.8973C185.312 47.8973 185.079 48.28 185.305 48.28C185.464 48.28 185.695 47.8973 185.469 47.8973Z" fill="white"/>
<path id="path280" d="M199.516 27.4346C199.328 27.4346 199.047 27.896 199.32 27.896C199.511 27.896 199.789 27.4346 199.516 27.4346Z" fill="white"/>
<path id="path282" d="M94.6792 33.5653C94.5959 33.5653 94.5751 33.4453 94.6667 33.3533C96.5703 31.3867 98.1797 29.2227 100.216 27.3533C102.37 25.3773 104.612 23.5733 107.042 21.948C111.479 18.9813 116.552 15.776 121.854 14.692C121.897 14.6827 121.935 14.6787 121.968 14.6787C122.515 14.6787 121.841 15.7827 121.589 15.92C119.232 17.2 116.615 17.928 114.159 18.9947C111.698 20.0627 109.354 21.3773 107.073 22.7933C104.469 24.408 102.075 26.2947 99.8333 28.38C98.086 30.0067 96.6016 31.9933 94.7839 33.5187C94.7427 33.552 94.7073 33.5653 94.6792 33.5653" fill="#FABA44"/>
<path id="path284" d="M179.081 27.7253C178.979 27.7253 178.881 27.7053 178.795 27.66C177.476 26.9707 176.915 25.744 175.797 24.908C174.56 23.9853 173.445 22.9293 172.245 21.9627C169.891 20.0707 167.008 18.5587 164.18 17.5133C161.521 16.532 159.033 15.208 156.237 14.6306C153.716 14.1066 151.159 13.8267 148.623 13.3947C148.44 13.3653 148.703 13.02 148.855 13.02C148.857 13.02 148.86 13.02 148.863 13.02C152 13.2853 155.219 13.252 158.317 13.8587C161.068 14.4 163.951 15.3907 166.555 16.4333C169.325 17.544 172.099 18.7467 174.484 20.568C176.571 22.1627 179.12 23.6813 180.479 25.9973C180.861 26.6533 179.823 27.7253 179.081 27.7253" fill="#FABA44"/>
<path id="path286" d="M185.899 32.4214C185.847 32.4214 185.795 32.412 185.745 32.3934C184.909 32.068 184.409 31.2827 183.771 30.68C183.12 30.064 182.552 29.416 181.779 28.9427C181.421 28.7213 182.071 27.9773 182.44 27.9773C182.46 27.9773 182.481 27.9787 182.5 27.984C183.391 28.2307 184.32 28.6413 185.055 29.2093C185.74 29.7413 186.544 30.2614 186.883 31.0894C187.063 31.532 186.425 32.4214 185.899 32.4214Z" fill="#FABA44"/>
<path id="path288" d="M140.884 82.3507C140.839 82.3507 140.813 82.316 140.844 82.2227C142.708 76.54 144.62 70.5707 147.981 65.5614C151.188 60.78 153.987 56.3973 158.943 53.2213C159.096 53.1227 159.217 53.0813 159.311 53.0813C159.737 53.0813 159.556 53.968 159.153 54.2773C156.896 56.016 154.667 57.6093 152.847 59.8453C151.036 62.0653 149.443 64.624 147.888 67.0347C144.896 71.676 143.404 77.2133 141.096 82.1987C141.061 82.2733 140.951 82.3507 140.884 82.3507" fill="#EC7E2C"/>
<path id="path290" d="M163.029 50.2894C162.651 50.2894 162.692 49.644 163.133 49.2827C166.672 46.3814 170.579 44.6467 174.773 42.9307C176.912 42.056 179.068 41.3214 181.323 40.8094C183.115 40.404 184.913 39.8147 186.748 39.8147C187.143 39.8147 187.539 39.8414 187.937 39.904C188.904 40.0547 187.443 41.6214 186.969 41.7147C178.751 43.332 170.38 45.024 163.469 50.1C163.287 50.2347 163.14 50.2894 163.029 50.2894Z" fill="#EC7E2C"/>
<path id="path292" d="M57.7969 102.827C57.7656 102.827 57.7469 102.805 57.7604 102.749C58.2369 100.655 58.0027 98.7533 58.8021 96.6867C59.5208 94.8213 60.5 93.028 61.6953 91.424C64.5 87.6693 67.2812 83.7613 70.5885 80.4306C70.7609 80.256 70.9287 80.1827 71.0584 80.1827C71.3224 80.1827 71.4297 80.4893 71.1016 80.8813C68.2917 84.2626 65.5364 87.7026 62.7995 91.144C61.3281 92.9933 59.9817 95.0173 59.2136 97.2706C58.5989 99.0693 58.5781 100.923 57.9792 102.695C57.9604 102.751 57.8563 102.827 57.7969 102.827" fill="#EC7E2C"/>
<path id="path294" d="M73.6875 76.1427L73.6251 76.0893C74.8255 74.568 75.164 72.5493 76.2969 70.976C76.9469 70.0773 77.6453 69.1147 78.8203 69.1147C78.8651 69.1147 78.9099 69.116 78.9557 69.1187C79.4479 69.1507 78.7292 70.112 78.4036 70.1493C77.0339 70.3067 76.138 72.144 75.5729 73.244C75.0547 74.244 74.4688 75.3213 73.6875 76.1427Z" fill="#EC7E2C"/>
<path id="path296" d="M85.9631 67.9453C85.7 67.9453 85.8599 67.3706 86.0729 67.1693C86.9167 66.368 87.5156 65.1826 88.336 64.312C89.2006 63.3893 90.0964 62.4773 91.1016 61.7013C93.1588 60.112 95.2995 58.6146 97.6251 57.4373C102.286 55.08 108.557 50.9253 113.716 50.028C113.763 50.0187 113.805 50.016 113.842 50.016C114.536 50.016 113.58 51.3747 113.224 51.5293C108.268 53.696 101.849 56.84 97.0131 59.3587C94.711 60.5587 92.3907 61.9453 90.4479 63.6786C88.9948 64.9746 87.8333 66.7986 86.2084 67.848C86.1027 67.916 86.0224 67.9453 85.9631 67.9453" fill="#EC7E2C"/>
<path id="path298" d="M121.925 116.411C121.925 116.411 123.706 126.391 135.421 126.265C147.14 126.141 149.245 117.089 148.547 113.327C143.469 116.592 121.925 116.411 121.925 116.411Z" fill="#BC272A"/>
<path id="path300" d="M148.193 111.909C150.143 116.321 145.131 119.947 137.083 121.137C129.839 122.211 122.596 119.828 121.925 116.411C121.25 112.995 127.201 109.704 134.393 108.34C140.284 107.223 146.503 108.092 148.193 111.909Z" fill="#EF302F"/>
<path id="path302" d="M147.044 111.909C148.833 115.952 144.24 119.272 136.867 120.363C130.232 121.347 123.594 119.163 122.977 116.035C122.362 112.904 127.813 109.891 134.404 108.64C139.8 107.616 145.497 108.413 147.044 111.909Z" fill="#F1453D"/>
<path id="path304" d="M136.252 109.249C134.921 108.972 133.961 109.092 133.336 109.343C132.552 109.659 131.812 110.063 131.055 110.435C130.205 110.853 129.309 111.169 128.445 111.553C126.372 112.475 123.492 114.395 125.56 116.816C126.437 117.845 126.935 119.097 128.969 117.892C130.516 116.975 131.915 116.377 133.033 115.501C134.213 114.577 135.003 113.413 135.915 112.213C136.295 111.708 136.547 111.001 136.695 110.395C136.839 109.804 136.672 109.337 136.252 109.249Z" fill="#CD2A2B"/>
<path id="path306" d="M131.431 116.532C132.011 116.208 132.548 115.881 133.033 115.501C134.213 114.577 135.003 113.413 135.915 112.213C136.295 111.708 136.547 111.001 136.695 110.395C136.696 110.389 136.697 110.385 136.699 110.381C136.697 110.385 136.696 110.389 136.695 110.395C136.547 111.001 136.295 111.708 135.915 112.213C135.003 113.413 134.213 114.577 133.033 115.501C132.551 115.883 132.012 116.209 131.431 116.532ZM136.699 110.38C136.769 110.081 136.76 109.816 136.677 109.615C136.76 109.816 136.769 110.081 136.699 110.38ZM136.677 109.613C136.677 109.612 136.676 109.611 136.676 109.609C136.676 109.611 136.677 109.612 136.677 109.613Z" fill="#BF1E24"/>
<path id="path308" d="M131.183 116.669C131.472 115.884 131.904 115.324 132.495 114.732C133.068 114.159 133.539 113.519 133.661 112.699C133.809 111.696 133.861 110.652 135.115 110.263C135.536 110.133 135.864 109.997 136.2 109.707L136.508 109.373C136.58 109.435 136.636 109.515 136.676 109.609C136.676 109.611 136.677 109.612 136.677 109.613C136.677 109.615 136.677 109.615 136.677 109.615C136.76 109.816 136.769 110.081 136.699 110.38V110.381C136.697 110.385 136.696 110.389 136.695 110.395C136.547 111.001 136.295 111.708 135.915 112.213C135.003 113.413 134.213 114.577 133.033 115.501C132.548 115.881 132.011 116.208 131.431 116.532C131.349 116.577 131.267 116.624 131.183 116.669" fill="#9D1B20"/>
<path id="path310" d="M131.995 118.123C131.995 118.123 133.148 117.165 134.159 116.293C135.167 115.419 134.588 114.905 136.399 113.427C138.208 111.951 138.336 112.148 140.412 111.54C142.489 110.935 143.44 110.199 143.899 110.42C144.355 110.643 147.208 113.024 146.456 114.957C145.7 116.888 144.631 117.329 141.92 118.223C139.205 119.113 137.107 119.34 135.528 118.945C133.951 118.545 133.352 118.727 132.792 118.841C131.593 119.085 131.528 118.656 131.995 118.123Z" fill="#CD2A2B"/>
<path id="path312" d="M133.831 116.573L134.159 116.293C134.052 116.385 133.943 116.479 133.835 116.572C133.833 116.572 133.832 116.573 133.831 116.573V116.573ZM140.412 111.54C140.421 111.537 140.429 111.535 140.439 111.532C140.431 111.535 140.42 111.537 140.412 111.54ZM140.452 111.528C140.456 111.528 140.459 111.527 140.463 111.525C140.459 111.527 140.455 111.528 140.452 111.528Z" fill="#BF1E24"/>
<path id="path314" d="M133.835 116.572C133.943 116.479 134.052 116.385 134.159 116.293C135.167 115.419 134.588 114.905 136.399 113.427C138.208 111.951 138.336 112.148 140.412 111.54C140.42 111.537 140.431 111.535 140.439 111.532C140.444 111.531 140.448 111.529 140.452 111.528C140.455 111.528 140.459 111.527 140.463 111.525C141.899 111.101 142.788 110.621 143.347 110.448C143.257 110.604 143.183 110.768 143.128 110.945C142.959 111.477 142.907 112.023 142.807 112.568C142.612 113.671 140.857 113.589 140.055 113.641C138.891 113.717 137.997 114.193 137.049 114.837C136.388 115.288 135.753 115.775 135.036 116.14C134.66 116.335 134.249 116.464 133.835 116.572" fill="#9D1B20"/>
<path id="path316" d="M127.742 114.515L127.487 114.459C127.357 114.459 127.232 114.492 127.112 114.549L126.839 114.82C126.797 114.897 126.75 115.08 126.88 115.112C127.073 115.156 127.26 115.043 127.406 114.931L127.609 114.824L127.784 114.632L127.742 114.515" fill="#F9B04D"/>
<path id="path318" d="M128.563 116.02L128.284 115.973C128.13 115.852 127.87 116.121 127.81 116.236C127.714 116.428 127.844 116.583 128.042 116.471C128.195 116.384 128.315 116.272 128.469 116.199L128.563 116.02" fill="#F9B04D"/>
<path id="path320" d="M130.104 112.801L129.972 112.663L129.867 112.581L129.697 112.556L129.643 112.572C129.503 112.615 129.128 112.959 129.375 113.085C129.516 113.153 129.639 113.051 129.752 112.98L130.091 112.852L130.104 112.801" fill="#F9B04D"/>
<path id="path322" d="M132.109 111.233C131.951 111.229 131.792 111.235 131.633 111.213C131.415 111.184 131.205 111.356 131.109 111.544C131.016 111.721 131.076 111.911 131.3 111.853C131.581 111.788 131.896 111.687 132.104 111.476C132.156 111.423 132.26 111.239 132.109 111.233Z" fill="#F9B04D"/>
<path id="path324" d="M138.419 115.717C138.401 115.496 138.107 115.753 138.076 115.853C138.027 116.011 137.904 116.113 137.836 116.256C137.771 116.392 137.667 116.491 137.62 116.632L137.64 116.787C137.877 116.94 138.099 116.551 138.193 116.387L138.265 116.231L138.26 116.216L138.325 116.113C138.396 115.991 138.429 115.856 138.419 115.717" fill="#F9B04D"/>
<path id="path326" d="M140.713 116.777L140.664 116.632L140.489 116.343L140.399 116.4C140.412 116.523 140.429 116.645 140.443 116.769L140.419 116.939L140.424 117.091L140.524 117.195H140.539C140.688 117.208 140.867 117.005 140.872 116.865L140.713 116.777" fill="#F9B04D"/>
<path id="path328" d="M143.669 115.403L143.524 115.224L143.349 115L143.169 115.153C143.203 115.319 143.271 115.528 143.211 115.689C143.143 115.861 143.325 115.895 143.44 115.836L143.661 115.615L143.669 115.403" fill="#F9B04D"/>
<path id="path330" d="M144.953 114.673L144.869 114.343L144.651 114.528L144.645 114.829L144.596 115.177C144.539 115.471 145.013 115.235 144.997 115.016L144.953 114.673Z" fill="#F9B04D"/>
<path id="path332" d="M136.969 108.416C134.476 108.48 132.016 108.952 129.675 109.811C127.675 110.541 124.799 111.729 123.664 113.653C123.518 113.901 123.789 113.983 123.961 113.839C127.701 110.737 132.292 109.497 136.937 108.487L136.969 108.416Z" fill="white"/>
<path id="path334" d="M123.495 114.351C123.065 114.673 122.716 115.249 122.714 115.796C122.714 115.928 122.849 115.921 122.937 115.876C123.063 115.812 123.154 115.696 123.175 115.561C123.242 115.183 123.307 114.777 123.573 114.48C123.654 114.391 123.622 114.255 123.495 114.351Z" fill="white"/>
<path id="path336" d="M149.481 119.649C149.481 119.649 151.557 131.401 165.719 127.659C173.536 124.965 177.243 117.609 175.033 111.895C171.964 115.961 149.481 119.649 149.481 119.649" fill="#BC272A"/>
<path id="path338" d="M174.531 110.577C176.628 114.625 172.724 120.828 165.864 123.672C159.003 126.513 151.495 124.629 149.751 120.415C148.003 116.196 152.513 110.881 159.399 108.097C165.033 105.819 172.224 106.132 174.531 110.577Z" fill="#EF302F"/>
<path id="path340" d="M173.872 110.468C175.82 114.207 172.044 120.017 165.492 122.731C158.937 125.444 151.823 123.775 150.205 119.875C148.591 115.971 152.937 110.987 159.513 108.325C164.893 106.147 171.724 106.361 173.872 110.468Z" fill="#F1453D"/>
<path id="path342" d="M165.625 107.952C163.388 107.936 161.273 108.935 159.237 109.765C157.055 110.656 155.227 112.177 153.648 113.895L153.579 114.103C153.424 114.296 153.284 114.493 153.153 114.697C152.648 115.491 152.659 116.371 152.475 117.267C152.279 118.221 151.604 119.608 151.924 120.604C153.429 125.335 159.377 119.181 160.609 117.121C162.011 114.769 163.14 112.517 165.245 110.687C165.875 110.14 167.573 107.968 165.625 107.952" fill="#CD2A2B"/>
<path id="path344" d="M160.484 117.321V117.32V117.321ZM160.495 117.304C160.495 117.304 160.495 117.304 160.495 117.303C160.495 117.304 160.495 117.304 160.495 117.304ZM160.505 117.287C160.507 117.287 160.507 117.285 160.507 117.285C160.507 117.285 160.507 117.287 160.505 117.287ZM160.527 117.255C160.528 117.253 160.528 117.252 160.529 117.251C160.528 117.252 160.528 117.253 160.527 117.255ZM160.537 117.237C160.539 117.236 160.539 117.235 160.54 117.233C160.539 117.235 160.539 117.236 160.537 117.237ZM160.548 117.22C160.549 117.219 160.551 117.217 160.551 117.216C160.551 117.217 160.549 117.219 160.548 117.22ZM160.56 117.203C160.56 117.201 160.56 117.201 160.561 117.2C160.56 117.201 160.56 117.201 160.56 117.203ZM160.568 117.188C160.569 117.187 160.571 117.185 160.572 117.183C160.571 117.185 160.569 117.187 160.568 117.188ZM160.579 117.172C160.58 117.171 160.58 117.169 160.581 117.167C160.58 117.168 160.58 117.171 160.579 117.172ZM160.589 117.155C160.589 117.153 160.591 117.152 160.592 117.151C160.591 117.152 160.589 117.153 160.589 117.155ZM160.599 117.137C160.6 117.137 160.6 117.136 160.601 117.135C160.6 117.136 160.6 117.137 160.599 117.137ZM160.609 117.121C162.011 114.769 163.14 112.517 165.245 110.687C165.777 110.225 167.069 108.607 166.288 108.103C166.288 108.101 166.289 108.101 166.289 108.1C167.071 108.605 165.779 110.225 165.245 110.687C163.14 112.517 162.011 114.769 160.609 117.121Z" fill="#BF1E24"/>
<path id="path346" d="M158.224 119.916C158.781 118.847 159.203 117.74 159.245 116.468C159.273 115.547 158.989 114.64 158.973 113.72C158.959 112.287 160.193 111.907 161.331 111.669C162.743 111.377 163.929 111.187 165.019 110.157C165.616 109.593 166.015 108.873 166.288 108.103C167.069 108.607 165.777 110.225 165.245 110.687C163.14 112.517 162.011 114.769 160.609 117.121C160.607 117.125 160.604 117.131 160.601 117.135C160.6 117.136 160.6 117.137 160.599 117.137C160.597 117.141 160.595 117.147 160.592 117.151C160.591 117.152 160.589 117.153 160.589 117.155C160.587 117.159 160.584 117.163 160.581 117.167C160.58 117.169 160.58 117.171 160.579 117.172C160.576 117.175 160.575 117.179 160.572 117.183C160.571 117.185 160.569 117.187 160.568 117.188C160.567 117.192 160.564 117.196 160.561 117.2C160.56 117.201 160.56 117.201 160.56 117.203C160.557 117.207 160.553 117.211 160.551 117.216C160.551 117.217 160.549 117.219 160.548 117.22C160.545 117.225 160.543 117.229 160.54 117.233C160.539 117.235 160.539 117.236 160.537 117.237C160.535 117.241 160.532 117.247 160.529 117.251C160.528 117.252 160.528 117.253 160.527 117.255C160.52 117.264 160.513 117.275 160.507 117.285C160.507 117.285 160.507 117.287 160.505 117.287C160.503 117.292 160.499 117.297 160.495 117.303C160.495 117.304 160.495 117.304 160.495 117.304C160.491 117.309 160.488 117.315 160.484 117.32V117.321C160.037 117.999 159.205 118.992 158.224 119.916" fill="#9D1B20"/>
<path id="path348" d="M171.153 109.443C170.079 109.227 168.973 109.78 168.028 110.349C166.855 111.056 165.875 111.907 165.276 113.169C164.612 114.571 164.276 115.897 163.164 117.06C162.164 118.104 160.995 118.996 159.959 120.001C159.633 120.319 157.047 122.784 157.927 123.411C159.437 124.484 162.451 122.459 163.833 121.927C165.773 121.181 167.888 120.543 169.435 119.075C171.044 117.543 171.409 116.401 172.203 114.339C172.695 113.068 173.237 110.656 172.073 109.845C171.773 109.635 171.464 109.508 171.153 109.443" fill="#CD2A2B"/>
<path id="path350" d="M163.485 116.693C164.347 115.62 164.68 114.424 165.276 113.169C164.68 114.425 164.349 115.621 163.485 116.693Z" fill="#BF1E24"/>
<path id="path352" d="M163.205 117.017C163.305 116.911 163.399 116.803 163.485 116.693C164.349 115.621 164.68 114.425 165.276 113.169C165.719 112.24 166.367 111.535 167.145 110.944L167.091 111.137C166.768 112.513 168.213 114.349 167.185 115.499C166.743 115.995 165.904 116.145 165.292 116.321C164.677 116.497 164.065 116.684 163.464 116.911L163.205 117.017" fill="#9D1B20"/>
<path id="path354" d="M154.143 119.715C154.088 119.592 153.927 119.76 153.893 119.816L153.743 119.965L153.601 120.116C153.489 120.219 153.3 120.447 153.372 120.607C153.44 120.753 153.631 120.623 153.703 120.553C153.828 120.44 153.943 120.267 154.031 120.124C154.101 120.009 154.2 119.851 154.143 119.715Z" fill="#F9B04D"/>
<path id="path356" d="M154.039 117.623L153.697 117.832C153.547 117.923 153.399 118.04 153.292 118.18L153.229 118.387L153.237 118.401L153.367 118.449C153.547 118.375 153.661 118.216 153.784 118.069L153.961 117.82L154.084 117.649L154.039 117.623" fill="#F9B04D"/>
<path id="path358" d="M153.757 115.704C153.5 115.827 153.177 115.928 153.008 116.175C152.956 116.255 152.915 116.465 153.085 116.4C153.367 116.289 153.623 116.028 153.815 115.797L153.757 115.704" fill="#F9B04D"/>
<path id="path360" d="M156.355 113.177C156.205 113.199 156.071 113.233 155.924 113.283C155.743 113.348 155.536 113.404 155.401 113.553C155.355 113.605 155.235 113.769 155.357 113.816C155.533 113.883 155.773 113.653 155.919 113.568C156.065 113.483 156.265 113.408 156.369 113.269L156.355 113.177" fill="#F9B04D"/>
<path id="path362" d="M162.424 119.561L162.232 119.66C162.117 119.973 161.953 120.275 161.812 120.577L161.807 120.753L161.825 120.776L162.003 120.749C162.191 120.591 162.257 120.365 162.344 120.14C162.412 119.961 162.461 119.752 162.424 119.561" fill="#F9B04D"/>
<path id="path364" d="M164.125 119.365L164.06 119.408L163.959 119.789C163.921 119.961 163.864 120.127 163.807 120.291L163.82 120.404L163.847 120.432L164.073 120.341C164.265 120.103 164.205 119.647 164.125 119.365" fill="#F9B04D"/>
<path id="path366" d="M166.844 118.901C166.779 118.735 166.872 118.545 166.703 118.429L166.524 118.581C166.571 118.768 166.404 118.971 166.495 119.156C166.576 119.329 166.899 119.047 166.844 118.901Z" fill="#F9B04D"/>
<path id="path368" d="M169.191 117.457L169.031 117.323L168.765 117.221L168.656 117.347C168.771 117.487 168.795 117.656 168.888 117.804L169.096 117.771L169.216 117.635L169.191 117.457" fill="#F9B04D"/>
<path id="path370" d="M164.973 107.304C159.203 107.816 152.508 110.383 150.536 116.411C150.424 116.759 150.919 116.477 151 116.336C152.44 113.713 154.027 111.465 156.847 110.225C158.309 109.583 159.721 108.901 161.252 108.424C162.456 108.051 163.7 107.884 164.893 107.504C164.948 107.487 165.099 107.295 164.973 107.304" fill="white"/>
<path id="path372" d="M150.565 117.523C150.565 117.361 150.683 117.157 150.596 116.956C150.533 116.816 150.317 117.047 150.331 117.149C150.352 117.281 150.289 117.423 150.216 117.532L150.104 117.875C150.055 118.087 150.011 118.331 150.237 118.437C150.364 118.499 150.585 118.272 150.573 118.149C150.547 117.945 150.568 117.731 150.565 117.523" fill="white"/>
<path id="path374" d="M105.221 117.155C104.992 120.353 102.211 122.759 99.0131 122.529C95.8151 122.299 93.4088 119.519 93.638 116.32C93.8697 113.121 96.6484 110.715 99.8489 110.945C103.047 111.176 105.453 113.957 105.221 117.155Z" fill="#7BCB2A"/>
<path id="path376" d="M100.609 112.56C101.102 113.603 100.25 115.04 98.7057 115.773C97.1615 116.501 95.5079 116.248 95.0131 115.207C94.5208 114.161 95.3724 112.725 96.9167 111.993C98.4636 111.261 100.117 111.516 100.609 112.56Z" fill="#A2D61D"/>
<path id="path378" d="M97.8125 111.528C96.4245 111.935 94.6224 113.335 94.6484 114.923C94.6511 115.201 95.0391 114.911 95.0885 114.797C95.6536 113.504 96.4323 112.427 97.7579 111.841C97.8697 111.791 98.0417 111.461 97.8125 111.528Z" fill="white"/>
<path id="path380" d="M94.7969 116.672C94.7839 116.455 94.7917 116.236 94.7812 116.017C94.7708 115.799 94.4505 116.044 94.4271 116.157C94.3489 116.551 94.0208 117.324 94.3828 117.649C94.5547 117.801 94.8385 117.468 94.8464 117.311C94.8541 117.096 94.8073 116.885 94.7969 116.672" fill="white"/>
<path id="path382" d="M115.844 112.16C115.68 115.363 112.948 117.825 109.745 117.66C106.542 117.492 104.081 114.761 104.247 111.559C104.411 108.356 107.146 105.896 110.346 106.06C113.549 106.227 116.01 108.957 115.844 112.16" fill="#7BCB2A"/>
<path id="path384" d="M111.138 107.657C111.656 108.692 110.831 110.149 109.302 110.909C107.771 111.669 106.115 111.449 105.599 110.416C105.086 109.384 105.909 107.929 107.437 107.168C108.969 106.405 110.625 106.627 111.138 107.657Z" fill="#A2D61D"/>
<path id="path386" d="M108.32 106.685C106.943 107.119 105.172 108.553 105.224 110.141C105.237 110.42 105.617 110.121 105.667 110.007C106.203 108.704 106.964 107.609 108.273 106.997C108.385 106.945 108.552 106.611 108.32 106.685" fill="white"/>
<path id="path388" d="M105.411 111.887C105.393 111.669 105.396 111.453 105.383 111.235C105.37 111.015 105.052 111.265 105.031 111.381C104.961 111.777 104.651 112.555 105.018 112.873C105.19 113.023 105.471 112.683 105.474 112.527C105.479 112.311 105.427 112.1 105.411 111.887Z" fill="white"/>
<path id="path390" d="M121.177 121.075C120.945 124.271 118.164 126.68 114.966 126.448C111.766 126.219 109.362 123.436 109.591 120.239C109.823 117.04 112.602 114.635 115.802 114.863C119 115.093 121.406 117.875 121.177 121.075Z" fill="#7BCB2A"/>
<path id="path392" d="M116.563 116.477C117.055 117.52 116.203 118.959 114.659 119.689C113.112 120.421 111.461 120.167 110.969 119.124C110.474 118.083 111.325 116.641 112.87 115.915C114.417 115.181 116.068 115.435 116.563 116.477Z" fill="#A2D61D"/>
<path id="path394" d="M113.763 115.445C112.378 115.853 110.578 117.253 110.599 118.843C110.604 119.119 110.99 118.828 111.042 118.715C111.607 117.421 112.385 116.345 113.711 115.759C113.82 115.709 113.995 115.379 113.763 115.445Z" fill="white"/>
<path id="path396" d="M110.747 120.591C110.737 120.372 110.745 120.155 110.734 119.935C110.724 119.716 110.404 119.961 110.38 120.077C110.302 120.471 109.974 121.243 110.336 121.568C110.505 121.72 110.792 121.387 110.799 121.228C110.807 121.015 110.76 120.804 110.747 120.591" fill="white"/>
</g>
</svg>
