<svg width="102" height="101" viewBox="0 0 102 101" fill="none" xmlns="http://www.w3.org/2000/svg">
<path d="M56.4629 2.09321C34.5201 -5.70748 11.3782 8.9711 4.77244 34.8754C-1.83333 60.7822 10.5979 88.1068 32.5399 95.907C54.4806 103.707 77.6209 89.0291 84.2275 63.1223C90.8333 37.2175 78.4028 9.89291 56.4629 2.09321" fill="#E1EBE7"/>
<path d="M54.0892 9.75154C35.5835 3.22432 16.066 15.506 10.4953 37.1825C4.92322 58.859 15.4072 81.7217 33.9128 88.2489C52.4173 94.7751 71.9335 82.4935 77.5051 60.817C83.0763 39.1405 72.5927 16.2778 54.0892 9.75154Z" fill="#C6C5C3"/>
<path d="M53.8683 12.6235C36.685 6.57376 18.5613 17.9557 13.3881 38.0475C8.21456 58.1379 17.9509 79.3279 35.1342 85.3767C52.3167 91.426 70.4383 80.0436 75.6119 59.9532C80.785 39.8619 71.0508 18.6723 53.8683 12.6235" fill="#E1EBE7"/>
<path d="M31.5202 91C30.1577 91 28.7895 90.6253 27.4352 89.8794C25.7328 88.9416 24.0709 87.3985 22.6288 85.4188L22.628 85.4178C21.0212 83.2119 19.7656 80.6005 19 78C23.0951 82.7157 28.2416 86.367 34.1889 88.4204C35.1243 88.7433 36.0615 89.0203 37 89.2535C35.8377 89.9382 34.606 90.4569 33.3459 90.7743C32.7394 90.9252 32.1302 91 31.5202 91" fill="#C3CCC7"/>
<path d="M37.1148 89C36.2125 88.7703 35.3114 88.4974 34.4121 88.1794C28.6942 86.1568 23.7461 82.5602 19.809 77.9152C19.2305 75.9029 18.9427 73.8974 19.0095 72.0967C19.0108 72.0643 19.0116 72.0319 19.0128 72C22.9633 78.0492 28.5083 82.7511 35.197 85.1168C36.0446 85.4166 36.8938 85.6733 37.7443 85.8878L38.5493 87.0201L38.5484 87.0206L39 87.6557C38.3997 88.1549 37.769 88.6054 37.1148 89" fill="#ABAAA9"/>
<path d="M38 86C37.1373 85.7883 36.2759 85.5348 35.4162 85.2388C28.6316 82.9032 23.0071 78.2613 19 72.2892C19.1301 69.0073 20.1614 66.1466 21.9309 64L22.3936 64.6348L22.3944 64.6338L35.3293 82.3431L37.0132 84.6491L38 86" fill="#C3CCC7"/>
<path d="M39 88.0875C37.4439 89.3797 35.6764 90.3261 33.8626 90.7958C26.3488 92.7124 19.7214 80.7041 20.009 72.9924C20.116 69.6627 21.1284 66.9748 22.6786 65L39 88.0875" fill="#FDFEFD"/>
<path d="M23.8129 65.3247C22.3528 67.284 21.5073 69.8746 21.4129 72.8408C21.2754 76.6108 22.8683 81.5909 25.3757 85.2301L25.3761 85.2322C28.0493 89.1141 31.3049 90.8919 34.3031 90.1069C36.0067 89.6523 37.6506 88.7513 39.1006 87.5279L40 88.8354C38.3749 90.2316 36.5222 91.2583 34.6022 91.7702C32.7165 92.2658 30.804 91.9587 28.9191 90.8595C27.2823 89.9062 25.6844 88.3377 24.2975 86.3238L24.2966 86.3223C21.5382 82.3161 19.8567 76.9965 20.0096 72.7704C20.1203 69.2954 21.1405 66.2668 22.9017 64L23.8129 65.3247" fill="#F3C90C"/>
<path d="M29 74C26.5335 73.3403 23.6515 71.6356 23.0308 69.256C22.8882 68.7082 23.2518 67.8565 23.8805 67L29 74Z" fill="#E9D23D"/>
<path d="M28.2797 74.5063C28.593 74.5732 29.5171 74.7669 30.434 75.0496L32 77.0534C28.4762 79.4641 21.88 82.9861 22.0017 75.3559C22.1378 71.1384 26.0803 73.7101 28.2797 74.5063Z" fill="#D8BA12"/>
<path d="M37.9368 85.5062C38.0654 86.0432 38.0103 86.5497 37.6552 87.0109C35.7348 89.5307 33.2088 86.6584 33.1527 84.803C33.0226 83.7147 32.8813 81.5092 33.1645 80L37.9368 85.5062Z" fill="#EACB45"/>
<path d="M33 78.3577C32.9328 80.7367 32.3923 85.1857 31.5491 86.9242C30.0919 89.6326 26.4018 86.6083 27.0831 84.6342L27.1093 84.6389C26.8944 84.0496 31.2971 79.0109 32.759 78L33 78.3577Z" fill="#F9DD22"/>
<path d="M46.5046 80L46.8597 80.4953C46.8597 80.4953 44.3625 84.1143 45.09 90.1546C45.09 90.1546 45.5042 90.7105 45.6408 90.3386C45.6408 90.3386 45.9247 90.2305 45.9479 89.2962C45.9479 89.2962 46.2962 86.9919 46.6088 86.2504C46.6088 86.2504 46.9145 84.989 47.8352 84.7931C47.8352 84.7931 48.5467 84.7295 48.157 86.1621C48.157 86.1621 48.6331 85.1503 49.6154 85.2208C49.6154 85.2208 49.7073 85.4108 49.5403 85.5864C49.5403 85.5864 50.4799 85.7773 50.5782 85.8982C50.5782 85.8982 50.7317 86.3555 50.5495 86.9006C50.5495 86.9006 50.8718 86.6855 50.7444 86.9751C50.7444 86.9751 50.5192 87.3116 50.5575 87.5893C50.5575 87.5893 51.1627 87.2099 51.8776 87.8241C51.8776 87.8241 51.8207 88.3791 51.6085 88.5868C51.6085 88.5868 52.5769 88.4477 52.6405 88.9671C52.6405 88.9671 52.646 89.2064 52.4225 89.2656C52.4225 89.2656 53.1087 89.7392 52.9851 90.0391C52.9851 90.0391 52.8894 90.2596 52.7692 90.2917C52.7692 90.2917 53.1167 90.3736 52.9088 90.5359C52.9088 90.5359 52.754 91.0243 52.1467 91.0643C52.1467 91.0643 52.0594 91.192 52.3824 91.3721C52.3824 91.3721 52.622 91.5255 52.5482 91.6927C52.5482 91.6927 52.2715 91.709 52.0079 91.9868C52.0079 91.9868 51.5562 92.3716 50.574 91.8585C50.574 91.8585 50.24 91.7061 50.6381 92.1599C50.6381 92.1599 51.0839 92.4806 51.1121 93.1712C51.1121 93.1712 50.6862 93.6325 49.9426 93.3819C49.9426 93.3819 49.6871 93.3464 49.8165 93.5082C49.9452 93.6675 49.8794 93.8066 49.7651 93.8599C49.7651 93.8599 48.9764 93.8071 48.5648 93.0311C48.5648 93.0311 48.5049 93.19 48.2523 93C48.2523 93 47.4278 92.1718 46.4763 91.3607C45.5249 90.5472 45.6539 90.7066 45.4363 90.6755C45.2199 90.6444 45.2199 90.6444 45.2199 90.6444C45.2199 90.6444 45.6775 92.2788 46.2865 92.745C46.2865 92.745 47.2346 93.7124 49.3543 94.0291C49.3543 94.0291 51.1859 94.2807 51.7616 95.2008C51.7616 95.2008 51.4947 95.5224 51.167 95.4987C51.167 95.4987 51.7793 95.6985 51.9721 96.3783C51.9721 96.3783 51.7966 96.4158 51.741 96.4193C51.741 96.4193 52.0088 96.9333 51.9371 97.0542C51.9371 97.0542 51.6263 97.3531 51.4209 97.2505C51.4209 97.2505 51.625 97.4631 51.3681 97.5381C51.3681 97.5381 50.7077 98.0847 49.2548 96.5155C49.2548 96.5155 48.7858 96.0725 49.1308 96.7054C49.1308 96.7054 49.5993 97.3679 50.2539 97.7448C50.2539 97.7448 51.2096 98.5134 50.7402 99.0146C50.7402 99.0146 50.385 99.2455 50.0721 98.9283C50.0721 98.9283 49.8705 98.7808 50.0367 99.1C50.0367 99.1 50.286 99.952 49.6909 100.359C49.6909 100.359 49.154 100.717 48.7343 100.252C48.7343 100.252 48.6015 100.028 48.5973 100.404C48.5973 100.404 48.5239 100.965 48.3425 100.984C48.3425 100.984 47.3363 100.899 47.2983 99.5104C47.2983 99.5104 47.2161 97.768 46.9432 97.8504C46.9432 97.8504 46.5666 97.7379 47.0541 98.8982C47.0541 98.8982 47.3266 100.091 46.8116 100.571C46.8116 100.571 46.6159 100.772 46.5931 100.429C46.5931 100.429 46.513 100.358 46.4417 100.698C46.4417 100.698 46.2119 101.244 45.8399 100.867C45.8399 100.867 45.7691 100.767 45.6746 100.878C45.6746 100.878 45.3216 101.172 45.2296 100.007C45.2296 100.007 45.1752 99.7892 45.1162 100.06C45.1162 100.06 45.0428 100.51 44.7316 100.258C44.7316 100.258 44.3554 99.4216 44.6936 97.8134C44.6936 97.8134 44.9812 96.1623 45.077 95.3922C45.077 95.3922 45.5 93.9221 45.5257 93.6034C45.5257 93.6034 45.4878 92.9384 45.3039 92.3424C45.3039 92.3424 45.077 91.5023 44.8328 90.8891C44.8328 90.8891 44.2558 92.189 44.2651 93.6596C44.2651 93.6596 44.4359 96.549 43.5481 97.0907C43.5481 97.0907 43.3402 97.2535 43.2685 96.9343C43.2685 96.9343 42.7882 97.9052 42.2209 97.8376C42.2209 97.8376 42.0877 97.8331 42.1113 97.6249C42.1113 97.6249 41.4386 97.474 41.8915 96.143C41.8915 96.143 41.2336 98.032 40.3598 97.951C40.3598 97.951 40.0013 97.8321 40.2294 97.2865C40.2294 97.2865 40.3437 97.1237 40.0974 97.2816C40.0974 97.2816 39.6702 97.6338 39.4252 97.4607C39.4252 97.4607 39.2624 97.4271 39.3602 97.1607C39.3602 97.1607 38.7453 97.511 38.9461 96.8253C38.9461 96.8253 39.0275 96.3468 38.8305 96.3729C38.8305 96.3729 38.4598 96.5002 38.6142 96.0118C38.6142 96.0118 38.6032 95.4223 39.2236 95.2018C39.2236 95.2018 39.394 95.0355 39.1093 95.1435C39.1093 95.1435 38.6517 95.4006 38.3 94.7499C38.3 94.7499 38.254 93.891 39.1801 93.4623C39.1801 93.4623 40.3243 92.8452 40.9793 92.7835C40.9793 92.7835 41.5094 92.5156 40.9388 92.6049C40.9388 92.6049 40.3366 92.8831 39.7524 92.8239C39.7524 92.8239 38.6947 92.9186 38.0022 91.5911C38.0022 91.5911 37.944 91.198 38.4256 90.8442C38.4256 90.8442 38.2274 90.6489 38.2312 90.4935C38.2312 90.4935 38.5948 89.7318 39.5243 90.2029C39.5243 90.2029 39.6643 90.2266 39.4665 90.0322C39.4665 90.0322 39.1591 89.5137 39.2219 89.31C39.2219 89.31 39.9861 88.7358 40.9363 89.3731C40.9363 89.3731 42.2251 90.0737 42.6148 90.1126C42.6148 90.1126 43.5068 90.5793 43.7379 90.8245C43.7379 90.8245 44.2221 91.0845 44.4271 90.637C44.4271 90.637 44.6384 90.4293 44.6645 90.2843C44.6645 90.2843 43.7042 84.3639 46.5046 80" fill="#8CC425"/>
<path d="M47 80L47.0072 80.4719C47.0072 80.4719 49.8108 81.0622 51.8465 84.7926C51.8465 84.7926 51.8469 85.3298 51.6242 85.2037C51.6242 85.2037 51.4275 85.3014 51.04 84.8007C51.04 84.8007 49.9255 83.7268 49.4581 83.4965C49.4581 83.4965 48.7854 82.9745 48.2088 83.381C48.2088 83.381 47.7988 83.7446 48.5849 84.3162C48.5849 84.3162 47.9212 84.0255 47.4198 84.6159C47.4198 84.6159 47.447 84.7723 47.6063 84.7749C47.6063 84.7749 47.1759 85.4077 47.1729 85.5267C47.1729 85.5267 47.2711 85.8644 47.5898 86.0644C47.5898 86.0644 47.3297 86.1252 47.515 86.2143C47.515 86.2143 47.7716 86.2715 47.863 86.4466C47.863 86.4466 47.3841 86.5778 47.2452 87.316C47.2452 87.316 47.4988 87.5883 47.696 87.5858C47.696 87.5858 47.1164 88.0511 47.2927 88.3726C47.2927 88.3726 47.3858 88.5073 47.5307 88.4141C47.5307 88.4141 47.3501 89.0596 47.5371 89.1543C47.5371 89.1543 47.6777 89.2216 47.7555 89.173C47.7555 89.173 47.6008 89.4125 47.7784 89.3857C47.7784 89.3857 48.0589 89.569 48.4026 89.25C48.4026 89.25 48.5003 89.2708 48.3992 89.5518C48.3992 89.5518 48.3316 89.7694 48.4383 89.8191C48.4383 89.8191 48.5947 89.6753 48.8475 89.6793C48.8475 89.6793 49.2473 89.6363 49.5715 88.805C49.5715 88.805 49.6901 88.5331 49.6582 89.0049C49.6582 89.0049 49.5456 89.4318 49.8073 89.8282C49.8073 89.8282 50.225 89.8418 50.525 89.2885C50.525 89.2885 50.6504 89.1265 50.6448 89.2859C50.6389 89.448 50.7307 89.487 50.8127 89.4535C50.8127 89.4535 51.2172 88.9822 51.1275 88.323C51.1275 88.323 51.224 88.3776 51.2839 88.1316C51.2839 88.1316 51.3969 87.2127 51.5851 86.2325C51.7712 85.2528 51.7661 85.4128 51.8702 85.2736C51.9748 85.1353 51.9748 85.1354 51.9748 85.1354C51.9748 85.1354 52.384 86.2927 52.2433 86.8876C52.2433 86.8876 52.121 87.9519 51.1029 89.3133C51.1029 89.3133 50.2153 90.4798 50.2747 91.3091C50.2747 91.3091 50.5467 91.3359 50.7145 91.1385C50.7145 91.1385 50.4647 91.5926 50.6342 92.0741L50.7749 91.9683C50.7749 91.9683 50.8373 92.4022 50.9244 92.428C50.9244 92.428 51.2142 92.4148 51.2826 92.2457C51.2826 92.2457 51.258 92.4766 51.4271 92.3738C51.4271 92.3738 52.0037 92.3045 52.1566 90.6281C52.1566 90.6281 52.2323 90.1213 52.2998 90.6615C52.2998 90.6615 52.3139 91.2899 52.112 91.8645C52.112 91.8645 51.9051 92.8224 52.3606 92.8356C52.3606 92.8356 52.6453 92.7627 52.6865 92.4138C52.6865 92.4138 52.7354 92.2189 52.7749 92.4872C52.7749 92.4872 52.9827 93.0958 53.4675 92.987C53.4675 92.987 53.9017 92.8832 53.9412 92.3911C53.9412 92.3911 53.9221 92.1931 54.0768 92.3971C54.0768 92.3971 54.3411 92.665 54.4477 92.5738C54.4477 92.5738 54.9559 91.9642 54.4176 91.1775C54.4176 91.1775 53.7624 90.173 53.9421 90.0646C53.9421 90.0646 54.1002 89.7927 54.3041 90.7031C54.3041 90.7031 54.6368 91.5131 55.108 91.4878C55.108 91.4878 55.2937 91.4893 55.168 91.2889C55.168 91.2889 55.1833 91.2028 55.3592 91.3506C55.3592 91.3506 55.7025 91.5227 55.7509 91.1071C55.7509 91.1071 55.7501 91.0119 55.8444 91.0205C55.8444 91.0205 56.1537 90.9851 55.7352 90.2904C55.7352 90.2904 55.677 90.1411 55.8181 90.2555C55.8181 90.2555 56.0377 90.4621 56.1053 90.1502C56.1053 90.1502 55.9723 89.4799 55.1425 88.7827C55.1425 88.7827 54.3232 88.0379 53.9604 87.6673C53.9604 87.6673 53.1411 87.0957 52.9997 86.9327C52.9997 86.9327 52.7515 86.5469 52.6113 86.1165C52.6113 86.1165 52.3967 85.5267 52.2837 85.0528C52.2837 85.0528 53.1161 85.4447 53.7033 86.2578C53.7033 86.2578 54.7732 87.9432 55.4709 87.7443C55.4709 87.7443 55.6481 87.7169 55.558 87.5013C55.558 87.5013 56.2077 87.765 56.4886 87.4106C56.4886 87.4106 56.5582 87.3332 56.4601 87.2319C56.4601 87.2319 56.7635 86.7722 55.9833 86.2953C55.9833 86.2953 57.0979 86.9636 57.5381 86.4309C57.5381 86.4309 57.6838 86.1631 57.3413 85.9915C57.3413 85.9915 57.2139 85.9657 57.411 85.9135C57.411 85.9135 57.7841 85.8675 57.8474 85.6351C57.8474 85.6351 57.9205 85.5262 57.7611 85.4346C57.7611 85.4346 58.2336 85.2832 57.8495 85.0169C57.8495 85.0169 57.6116 84.8002 57.7297 84.7035C57.7297 84.7035 57.9812 84.5668 57.7008 84.3845C57.7008 84.3845 57.4705 84.0539 57.0469 84.2797C57.0469 84.2797 56.8875 84.2838 57.083 84.1855C57.083 84.1855 57.4344 84.0686 57.3622 83.5137C57.3622 83.5137 57.0431 83.0165 56.37 83.2995C56.37 83.2995 55.5036 83.6013 55.1246 83.9354C55.1246 83.9354 54.7312 84.0838 55.0749 83.8129C55.0749 83.8129 55.5113 83.6286 55.8023 83.2697C55.8023 83.2697 56.4133 82.7269 56.2527 81.6085C56.2527 81.6085 56.1274 81.3614 55.7241 81.4358C55.7241 81.4358 55.753 81.2176 55.6872 81.1346C55.6872 81.1346 55.1858 80.9189 54.8726 81.6991C54.8726 81.6991 54.8059 81.7898 54.8357 81.5726C54.8357 81.5726 54.7936 81.1149 54.6768 81.0374C54.6768 81.0374 54.0334 81.1513 53.7777 82.0333C53.7777 82.0333 53.363 83.1416 53.1683 83.3826C53.1683 83.3826 52.8743 84.1374 52.8471 84.4037C52.8471 84.4037 52.6903 84.8174 52.4001 84.6863C52.4001 84.6863 52.2021 84.6903 52.1299 84.6265C52.1299 84.6265 50.2662 80.8313 47 80" fill="#69952C"/>
<path d="M69.634 39.5113C71.4441 46.0195 66.3648 53.7517 58.284 56.7808C50.2003 59.8123 42.1787 56.9963 40.3665 50.4876C38.5548 43.9798 43.636 36.2481 51.7173 33.2186C59.8014 30.188 67.8218 33.0046 69.634 39.5113Z" fill="#BF4320"/>
<path d="M89.0628 36.6256C87.3023 35.0881 86.5163 32.8934 87.3086 31.7188C88.1022 30.5447 90.1747 30.8404 91.9348 32.3759C93.6962 33.9074 94.4849 36.1061 93.6908 37.2802C92.8981 38.4548 90.8265 38.1606 89.0628 36.6256Z" fill="#BF4320"/>
<path d="M87.2749 27.7225C86.6451 30.1698 87.1347 32.4993 88.3633 32.9315C89.5925 33.3611 91.0984 31.7259 91.7251 29.2792C92.3545 26.8309 91.8662 24.4987 90.6362 24.0692C89.408 23.637 87.9016 25.2747 87.2749 27.7225" fill="#BF4320"/>
<path d="M90.9428 31.0178C91.7602 34.0606 83.7359 43.0641 72.128 48.4182C61.0588 53.5265 50.9251 49.9868 50.1098 46.9416C49.2941 43.8993 52.774 34.5967 69.0494 33.469C80.8794 32.6465 90.1271 27.9746 90.9428 31.0178" fill="#BF4320"/>
<path d="M10.1608 47C10.1608 47 6.63225 42.9516 11.8792 36.7829C17.1278 30.6148 20.0865 29.784 22.0627 23C22.0627 23 27.8487 27.1728 25.1005 34.2848C22.3515 41.4032 28 45.6611 28 45.6611C28 45.6611 27.8956 45.624 10.1608 47" fill="#BF4320"/>
<path d="M100.066 42.4712C99.5832 42.0348 99.0752 41.7156 98.579 41.4934L98.5719 41.3979C98.8559 40.8787 99.1038 40.2797 99.2765 39.6019C99.8731 37.2675 99.4088 35.042 98.242 34.6326C97.0744 34.2233 95.6425 35.7813 95.0458 38.1167C94.829 38.9669 94.7546 39.7994 94.8042 40.5398C90.9067 41.1412 84.3715 43.2087 76.7446 43.7229C75.666 43.7949 74.6475 43.9047 73.6765 44.0426C72.5954 43.2963 71.3521 42.7195 69.9912 42.3461C67.3966 37.569 63.3979 33.8065 58.4088 32.0455C52.8533 30.0845 47.1479 30.9687 42.4227 33.973C41.0584 33.7179 39.6706 33.5026 38.2546 33.3332C18.1634 30.9584 1.05622 38.5458 0.0469741 50.2793C-0.965212 62.0208 14.5029 73.4613 34.5936 75.841C36.8907 76.1095 39.1437 76.2464 41.3399 76.2656C42.8739 77.3882 44.5462 78.3138 46.3613 78.9552C57.0597 82.7314 68.3029 75.9533 72.0248 63.7596C73.4605 62.5454 74.6903 61.1765 75.6437 59.7041C77.0067 59.3253 78.4013 58.8347 79.8135 58.2037C87.5681 54.723 93.7013 49.669 96.6685 45.8219C96.8849 46.0839 97.1139 46.3411 97.3803 46.5785C99.029 48.0656 100.966 48.3469 101.711 47.211C102.453 46.0756 101.717 43.9559 100.066 42.4712Z" fill="#EE6E1F"/>
<path d="M5 44C5 44 19.2293 32.6271 42 35.8242C42 35.8242 21.148 28.2401 5 44Z" fill="#FEEEF2"/>
<path d="M51 33.3694C51 33.3694 60.2464 33.8554 67 42C67 42 62.0354 30.855 51 33.3694" fill="#FEEEF2"/>
<path d="M93 41C93 41 76.738 44.4059 77.0032 44.9348C77.268 45.4654 90.6873 42.6313 93 41Z" fill="#FEEEF2"/>
<path d="M79.8184 57.9457C87.5735 54.4239 93.7071 49.31 96.6745 45.4174C96.8909 45.6825 97.1199 45.9427 97.3863 46.1829C99.0351 47.6877 100.972 47.9723 101.717 46.8229C101.896 46.5433 101.987 46.2059 102 45.8325C99.2784 45.8814 97.0779 42.3535 97.0779 42.3535C87.2256 51.6098 70.3396 54.999 70.3396 54.999C70.3396 54.999 69.4194 50.5735 58.1195 50.3139C46.8218 50.0512 47.7382 63.4558 41.663 61.4227C35.5875 59.3867 36.9472 54.4787 38.3704 48.9806C39.7936 43.485 36.5312 40 36.5312 40C36.5312 40 36.9728 47.2107 33.5705 52.5573C30.1678 57.9019 34.8882 59.0029 32.3314 64.1551C29.7736 69.3083 23.93 62.7735 23.93 62.7735C2.10342 58.3669 1.89415 47.0427 2.40006 43.4835C1.06847 45.4428 0.243626 47.6039 0.0469746 49.9276C-0.965274 61.808 14.5046 73.3844 34.5958 75.7918C36.893 76.0634 39.1461 76.202 41.3424 76.2214C42.8765 77.3573 44.5489 78.2938 46.3642 78.9428C57.0632 82.7637 68.3071 75.9054 72.0292 63.5674C73.465 62.3388 74.6949 60.9537 75.6484 59.4639C77.0115 59.0806 78.4061 58.5842 79.8184 57.9457" fill="#D25A1E"/>
<path d="M24.1612 63C24.1612 63 20.6317 58.9541 25.8795 52.7829C31.1269 46.6148 34.0841 45.7865 36.0644 39C36.0644 39 41.8478 43.1724 39.099 50.2883C36.3506 57.4042 42 61.6616 42 61.6616C42 61.6616 36.4761 61.02 36.6824 55.4499C36.89 49.8799 39.8337 45.9386 36.6626 41.7164C36.6626 41.7164 34.9134 46.7299 30.4459 50.2014C25.9788 53.6705 23.8222 56.335 24.1612 63" fill="#BF4320"/>
<path d="M43 16.6467C43.6362 14.581 44.6178 12.649 45.8745 11.0611C51.0992 4.5112 62.5306 9.58316 66.1358 15.8825C67.7051 18.5913 68.2127 21.3974 67.9223 24L43 16.6467Z" fill="#FDFEFD"/>
<path d="M67.5263 24.5618C67.774 21.9085 67.2178 19.1732 65.8676 16.6665C64.1637 13.4689 60.4675 10.5117 56.6694 9.30777L56.6678 9.30674C52.6182 8.0234 49.1052 8.88698 47.0374 11.673C45.8667 13.2628 44.9579 15.1781 44.364 17.2195L43 16.7869C43.6547 14.478 44.6721 12.3101 45.9928 10.5183C47.2931 8.7645 49.0008 7.65131 51.0673 7.2085C52.8626 6.82411 54.9215 6.97325 57.0228 7.63901L57.024 7.63953C61.2023 8.9649 65.137 12.1384 67.0459 15.7235C68.6278 18.6597 69.2536 21.8788 68.9074 25L67.5263 24.5618" fill="#F3C90C"/>
<path d="M59 21.2607C61.1153 19.9413 64.0158 19.3079 65.567 21.1286C65.9258 21.5492 66.05 22.6673 65.9823 24L59 21.2607" fill="#E9D23D"/>
<path d="M59.1233 20.1024C58.8519 20.2444 58.0515 20.6602 57.2114 21L55 20.3455C56.4514 16.1973 59.6714 9.2361 63.4635 15.512C65.5068 19.0229 61.2011 19.3829 59.1233 20.1024" fill="#D8BA12"/>
<path d="M46.5177 17.9515C46.1916 17.5369 45.9928 17.0329 46.0002 16.3806C46.0309 12.8239 48.9139 13.8683 49.7994 15.5493C50.3817 16.4735 51.481 18.423 52 20L46.5177 17.9515" fill="#EACB45"/>
<path d="M52.9763 19.8934C51.8647 18.0673 50.1393 14.374 50.0014 12.5127C49.9094 9.51614 54.5307 9.33088 54.9219 11.2622L54.8976 11.2762C55.3687 11.5758 54.1034 18.2733 53.356 20L52.9763 19.8934" fill="#F9DD22"/>
<path d="M41.432 29L40.875 28.8329C40.875 28.8329 41.1141 23.9795 37.3734 19.3623C37.3734 19.3623 36.7357 19.1854 36.8124 19.599C36.8124 19.599 36.6295 19.8929 37.0918 20.703C37.0918 20.703 37.9918 22.909 38.1089 23.7619C38.1089 23.7619 38.504 25.0521 37.826 25.8735C37.826 25.8735 37.2576 26.4335 36.8457 24.9392C36.8457 24.9392 36.9668 26.1381 36.0988 26.7765C36.0988 26.7765 35.9234 26.6816 35.9738 26.4129C35.9738 26.4129 35.0804 26.9193 34.9348 26.8858C34.9348 26.8858 34.5686 26.6078 34.4392 26.0143C34.4392 26.0143 34.2791 26.4263 34.237 26.0886C34.237 26.0886 34.2541 25.6436 34.077 25.4347C34.077 25.4347 33.7616 26.1871 32.8393 26.1742C32.8393 26.1742 32.6002 25.6616 32.6717 25.3347C32.6717 25.3347 31.9253 26.1417 31.6033 25.7457C31.6033 25.7457 31.4748 25.5466 31.6336 25.3362C31.6336 25.3362 30.8069 25.4224 30.7578 25.08C30.7578 25.08 30.724 24.8242 30.8082 24.7112C30.8082 24.7112 30.4731 24.8902 30.5643 24.6024C30.5643 24.6024 30.4424 24.078 30.935 23.6108C30.935 23.6108 30.9433 23.4407 30.5762 23.517C30.5762 23.517 30.2937 23.5592 30.2709 23.3638C30.2709 23.3638 30.495 23.1519 30.5749 22.7296C30.5749 22.7296 30.7591 22.0798 31.8542 21.8168C31.8542 21.8168 32.2147 21.7091 31.6437 21.607C31.6437 21.607 31.1012 21.6533 30.7209 21.0846C30.7209 21.0846 30.842 20.39 31.6003 20.0734C31.6003 20.0734 31.8336 19.9202 31.6424 19.8754C31.4498 19.8315 31.4341 19.668 31.5016 19.5407C31.5016 19.5407 32.1963 19.024 32.9463 19.3906C32.9463 19.3906 32.9147 19.2127 33.2274 19.1952C33.2274 19.1952 34.3533 19.3122 35.5769 19.3241C36.8019 19.338 36.6111 19.2937 36.8111 19.1663C37.0102 19.0384 37.0102 19.0384 37.0102 19.0384C37.0102 19.0384 35.7765 17.9756 35.0208 18.0128C35.0208 18.0128 33.7191 17.8643 31.763 19.1034C31.763 19.1034 30.0841 20.1935 29.1209 19.8217C29.1209 19.8217 29.1797 19.3576 29.4692 19.1452C29.4692 19.1452 28.8486 19.4107 28.3333 18.9693C28.3333 18.9693 28.4626 18.8131 28.5078 18.7708C28.5078 18.7708 28.0148 18.5243 28.0135 18.3706C28.0135 18.3706 28.1219 17.8952 28.3477 17.8369C28.3477 17.8369 28.0657 17.8014 28.2438 17.5549C28.2438 17.5549 28.5188 16.62 30.5604 16.919C30.5604 16.919 31.1858 16.9624 30.5674 16.6695C30.5674 16.6695 29.828 16.441 29.0797 16.5859C29.0797 16.5859 27.8736 16.6133 28.0109 15.8521C28.0109 15.8521 28.1907 15.4035 28.6201 15.4499C28.6201 15.4499 28.8661 15.4329 28.5622 15.2787C28.5622 15.2787 27.91 14.7342 28.2034 13.9627C28.2034 13.9627 28.4705 13.2764 29.067 13.3739C29.067 13.3739 29.2938 13.4693 29.1039 13.1464C29.1039 13.1464 28.8749 12.6179 29.0183 12.472C29.0183 12.472 29.9135 11.8279 30.6648 12.982C30.6648 12.982 31.6354 14.4052 31.8239 14.1407C31.8239 14.1407 32.2007 13.9679 31.188 13.3285C31.188 13.3285 30.3415 12.5081 30.5279 11.7341C30.5279 11.7341 30.5889 11.4236 30.7836 11.699C30.7836 11.699 30.8902 11.7021 30.7749 11.3617C30.7749 11.3617 30.6858 10.7352 31.1963 10.7914C31.1963 10.7914 31.3086 10.8255 31.3305 10.6641C31.3305 10.6641 31.4761 10.1628 32.1573 11.0879C32.1573 11.0879 32.3165 11.2333 32.2261 10.9621C32.2261 10.9621 32.0547 10.5274 32.4481 10.5192C32.4481 10.5192 33.1994 10.9626 33.7458 12.571C33.7458 12.571 34.3563 14.1778 34.6734 14.9023C34.6734 14.9023 35.0756 16.4529 35.2217 16.7401C35.2217 16.7401 35.5967 17.2795 36.0598 17.6549C36.0598 17.6549 36.687 18.2092 37.2115 18.5552C37.2115 18.5552 37.026 17.0397 36.2576 15.7964C36.2576 15.7964 34.6186 13.4625 35.0883 12.3699C35.0883 12.3699 35.1796 12.0832 35.4059 12.3039C35.4059 12.3039 35.3103 11.1369 35.8238 10.7904C35.8238 10.7904 35.9383 10.7002 36.0265 10.894C36.0265 10.894 36.6738 10.5434 36.9791 11.9976C36.9791 11.9976 36.5589 9.92304 37.3383 9.36921C37.3383 9.36921 37.7041 9.21555 37.7935 9.84157C37.7935 9.84157 37.7812 10.0607 37.9089 9.75133C37.9089 9.75133 38.0861 9.14852 38.383 9.12067C38.383 9.12067 38.5378 9.03403 38.5935 9.32951C38.5935 9.32951 38.9317 8.59469 39.1167 9.31971C39.1167 9.31971 39.2948 9.78536 39.4487 9.62241C39.4487 9.62241 39.6966 9.25063 39.8185 9.77557C39.8185 9.77557 40.1325 10.2691 39.7229 10.8971C39.7229 10.8971 39.6654 11.1591 39.8483 10.8657C39.8483 10.8657 40.1036 10.3216 40.7377 10.6249C40.7377 10.6249 41.2211 11.322 40.6588 12.3456C40.6588 12.3456 40.0115 13.6843 39.4887 14.2036C39.4887 14.2036 39.179 14.8074 39.6172 14.3263C39.6172 14.3263 39.9808 13.6606 40.5053 13.2955C40.5053 13.2955 41.3518 12.4627 42.6245 13.098C42.6245 13.098 42.8763 13.3904 42.6526 14.0334C42.6526 14.0334 42.921 14.0592 42.9982 14.1938C42.9982 14.1938 43.0846 15.0998 42.0548 15.3607C42.0548 15.3607 41.9241 15.4406 42.1925 15.4649C42.1925 15.4649 42.7197 15.6871 42.7719 15.9047C42.7719 15.9047 42.4246 16.9366 41.2904 17.0712C41.2904 17.0712 39.8382 17.3929 39.4882 17.6368C39.4882 17.6368 38.4926 17.8751 38.1694 17.8318C38.1694 17.8318 37.6264 17.9535 37.6839 18.481C37.6839 18.481 37.6128 18.8084 37.6655 18.9497C37.6655 18.9497 41.5412 23.2988 41.432 29" fill="#8CC425"/>
<path d="M41 28.0836L40.7753 27.7204C40.7753 27.7204 38.3323 29.124 35.0231 27.5699C35.0231 27.5699 34.7733 27.151 35.0053 27.1005C35.0053 27.1005 35.1116 26.8932 35.6439 27.0262C35.6439 27.0262 37.0049 27.1223 37.4742 26.9912C37.4742 26.9912 38.2365 26.9509 38.4931 26.2504C38.4931 26.2504 38.6419 25.6945 37.7684 25.7717C37.7684 25.7717 38.4164 25.5576 38.5307 24.7624C38.5307 24.7624 38.437 24.6595 38.3121 24.7629C38.3121 24.7629 38.3505 23.9837 38.2979 23.8881C38.2979 23.8881 38.0643 23.6909 37.726 23.7468C37.726 23.7468 37.8982 23.5264 37.713 23.5807C37.713 23.5807 37.4879 23.706 37.3367 23.6307C37.3367 23.6307 37.6463 23.2093 37.4111 22.5423C37.4111 22.5423 37.0873 22.4976 36.9358 22.6316C36.9358 22.6316 37.1686 21.883 36.8832 21.75C36.8832 21.75 36.7482 21.7058 36.6799 21.8753C36.6799 21.8753 36.519 21.2524 36.3299 21.3029C36.3299 21.3029 36.1912 21.3427 36.1532 21.433C36.1532 21.433 36.1613 21.1432 36.0368 21.2825C36.0368 21.2825 35.7349 21.3257 35.6169 21.8029C35.6169 21.8029 35.5316 21.8524 35.4786 21.5655C35.4786 21.5655 35.4301 21.3504 35.3242 21.3835C35.3242 21.3835 35.2705 21.6005 35.0728 21.7655C35.0728 21.7655 34.7834 22.0641 34.9188 22.9278C34.9188 22.9278 34.9536 23.2181 34.7591 22.8292C34.7591 22.8292 34.6476 22.4214 34.2604 22.2869C34.2604 22.2869 33.9321 22.554 33.9564 23.1851C33.9564 23.1851 33.935 23.3943 33.8663 23.2652C33.7947 23.136 33.7062 23.1671 33.6573 23.2482C33.6573 23.2482 33.5643 23.8837 33.9386 24.3386C33.9386 24.3386 33.8388 24.3609 33.9075 24.5925C33.9075 24.5925 34.247 25.3828 34.557 26.2718C34.8679 27.1607 34.7988 27.0325 34.7814 27.2097C34.7656 27.3884 34.7656 27.3884 34.7656 27.3884C34.7656 27.3884 33.9103 26.7577 33.7438 26.1985C33.7438 26.1985 33.3436 25.2877 33.4972 23.5492C33.4972 23.5492 33.6431 22.0495 33.2127 21.4427C33.2127 21.4427 32.9887 21.6039 32.9499 21.8689C32.9499 21.8689 32.933 21.3475 32.5777 21.0854C32.5777 21.0854 32.5288 21.2174 32.5179 21.2621C32.5179 21.2621 32.2693 20.9655 32.1888 21.0033C32.1888 21.0033 31.971 21.2053 31.9968 21.3825C31.9968 21.3825 31.9079 21.1859 31.8259 21.3786C31.8259 21.3786 31.412 21.817 32.0724 23.2263C32.0724 23.2263 32.2495 23.6715 31.9463 23.2943C31.9463 23.2943 31.6436 22.8142 31.532 22.2316C31.532 22.2316 31.2474 21.3475 30.8893 21.6393C30.8893 21.6393 30.7026 21.8859 30.8327 22.185C30.8327 22.185 30.8853 22.3695 30.7305 22.1864C30.7305 22.1864 30.2871 21.85 29.9625 22.2588C29.9625 22.2588 29.6747 22.6278 29.8727 23.0375C29.8727 23.0375 29.979 23.1792 29.7648 23.122C29.7648 23.122 29.4358 23.0904 29.3966 23.2312C29.3966 23.2312 29.2854 24.0458 30.068 24.3012C30.068 24.3012 31.0417 24.6473 30.9536 24.8512C30.9536 24.8512 30.9572 25.1692 30.376 24.5954C30.376 24.5954 29.7422 24.1852 29.3897 24.5177C29.3897 24.5177 29.245 24.6401 29.4358 24.7129C29.4358 24.7129 29.4641 24.7901 29.2592 24.7915C29.2592 24.7915 28.914 24.8857 29.0696 25.243C29.0696 25.243 29.1145 25.3163 29.0369 25.3722C29.0369 25.3722 28.8149 25.6052 29.4601 25.8683C29.4601 25.8683 29.5753 25.946 29.4128 25.9509C29.4128 25.9509 29.1468 25.9358 29.241 26.2232C29.241 26.2232 29.6541 26.6582 30.6201 26.6499C30.6201 26.6499 31.5999 26.6868 32.0526 26.733C32.0526 26.733 32.9532 26.6344 33.1375 26.6679C33.1375 26.6679 33.5081 26.8034 33.8177 27.0456C33.8177 27.0456 34.2579 27.3617 34.5647 27.6559C34.5647 27.6559 33.7389 27.9044 32.9071 27.6617C32.9071 27.6617 31.2947 27.0582 30.8477 27.6782C30.8477 27.6782 30.724 27.817 30.8942 27.9253C30.8942 27.9253 30.2689 28.1515 30.2171 28.6137C30.2171 28.6137 30.1993 28.721 30.321 28.7356C30.321 28.7356 30.3004 29.2953 31.1258 29.1487C31.1258 29.1487 29.9532 29.3696 29.8602 30.077C29.8602 30.077 29.8715 30.3828 30.2163 30.2886C30.2163 30.2886 30.3267 30.2245 30.1985 30.3959C30.1985 30.3959 29.931 30.679 29.9908 30.9028C29.9908 30.9028 29.9843 31.0358 30.1508 31.0018C30.1508 31.0018 29.855 31.4344 30.2757 31.3858C30.2757 31.3858 30.5595 31.397 30.5142 31.5504C30.5142 31.5504 30.3833 31.8252 30.6856 31.7805C30.6856 31.7805 31.017 31.8849 31.2393 31.4266C31.2393 31.4266 31.361 31.3183 31.2547 31.5261C31.2547 31.5261 31.0381 31.8499 31.3505 32.2349C31.3505 32.2349 31.8291 32.4097 32.2187 31.7417C32.2187 31.7417 32.7478 30.9299 32.8865 30.4173C32.8865 30.4173 33.1217 30.0396 32.9811 30.4799C32.9811 30.4799 32.7292 30.9134 32.671 31.3868C32.671 31.3868 32.4512 32.2165 33.095 32.9826C33.095 32.9826 33.3064 33.0913 33.5841 32.7656C33.5841 32.7656 33.6637 32.9544 33.7523 32.9762C33.7523 32.9762 34.241 32.8112 34.1205 31.9936C34.1205 31.9936 34.1294 31.8791 34.2082 32.0679C34.2082 32.0679 34.4532 32.3966 34.5781 32.3796C34.5781 32.3796 35.0247 31.863 34.8121 31.0047C34.8121 31.0047 34.6181 29.8653 34.6569 29.5473C34.6569 29.5473 34.5324 28.7637 34.4309 28.5385C34.4309 28.5385 34.3594 28.1117 34.6456 28.0205C34.6456 28.0205 34.7959 27.8855 34.882 27.8869C34.882 27.8869 38.0861 29.6075 41 28.0836" fill="#69952C"/>
</svg>
