<svg width="655" height="421" viewBox="0 0 655 421" fill="none" xmlns="http://www.w3.org/2000/svg">
<g id="g10">
<g id="g12">
<path id="path30" d="M27.9711 2.79182C26.7817 2.79182 25.5235 2.84081 24.2253 2.94576C20.8537 3.21864 17.6972 3.82036 15.3399 4.64249C12.4029 5.66052 11.0331 6.88496 11.1502 8.37878C11.2377 9.48778 12.1794 10.3414 13.9488 10.9186L14.3996 11.0656L14.8205 10.8487C16.8524 9.79216 20.6342 8.93153 24.692 8.60618C28.8914 8.26683 32.6275 8.52572 34.7668 9.2254L35.2176 9.37234L35.6375 9.15195C37.2787 8.30184 38.0671 7.31177 37.98 6.20977C37.7485 3.23612 31.609 2.79182 27.9711 2.79182" fill="#6E7274"/>
<g id="Component 1">
<g id="g14">
<path id="path16" d="M646.494 212.593V212.638C646.449 213.078 646.413 213.72 646.347 214.626C646.302 214.846 646.262 215.067 646.262 215.289C646.262 215.556 646.217 215.774 646.155 215.841C646.052 216.173 645.945 216.46 645.838 216.792C645.69 217.145 645.753 217.41 645.463 217.941C645.244 218.448 644.994 218.98 644.739 219.532C643.386 222.425 640.194 226.183 634.89 230.249C631.912 232.547 628.296 234.912 623.947 237.253C622.107 238.25 620.161 239.243 618.089 240.216C613.357 242.49 608.012 244.722 602.155 246.887C593.765 250.004 584.34 253.1 573.946 255.927C553.212 261.672 528.678 266.447 501.475 270.179C474.302 274.066 444.268 276.214 412.483 277.03C404.541 277.271 396.446 277.404 388.311 277.338C380.025 277.271 371.85 277.051 363.52 276.785C346.825 276.19 329.831 275.172 312.61 273.605C295.474 271.883 278.121 269.581 260.835 266.643C243.59 263.75 226.325 260.125 209.565 255.528C201.241 253.23 192.975 250.732 185.051 247.814C178.564 245.474 172.181 243 166.201 240.216C164.869 239.617 163.581 238.977 162.312 238.337C157.411 235.885 152.823 233.188 148.893 230.249C147.202 228.989 145.597 227.665 144.138 226.315C141.708 224.106 140.037 221.764 138.643 219.488C137.438 217.212 137.017 214.98 136.866 212.769V212.613L136.93 211.972L137.038 210.67C137.078 210.296 137.078 209.653 137.184 209.543L137.418 208.903C137.63 208.44 137.522 208.129 137.84 207.51L138.643 205.787C140.037 203.512 141.708 201.168 144.138 198.96C148.871 194.517 155.276 190.473 162.312 186.937C169.37 183.358 177.123 180.309 185.051 177.458C192.975 174.54 201.241 172.044 209.565 169.745C226.325 165.15 243.59 161.526 260.835 158.63C278.121 155.691 295.474 153.393 312.61 151.669C329.831 150.123 346.825 149.083 363.52 148.486C371.85 148.223 380.132 148.002 388.311 147.934C396.384 147.866 404.67 148.002 412.528 148.243C444.228 149.062 474.302 151.228 501.475 155.094C528.678 158.828 553.212 163.604 573.946 169.348C584.34 172.175 593.765 175.27 602.155 178.406C610.571 181.502 617.902 184.728 623.947 188.019C636.073 194.584 642.627 201.28 644.739 205.741C646.766 210.05 646.369 212.394 646.494 212.593" fill="#1B282D"/>
</g>
<path id="path18" d="M177.617 255.423C178.137 241.097 178.924 194.953 179.785 180.62C176.288 182.121 172.867 183.72 169.588 185.42C169.371 192.053 169.13 198.707 168.888 205.343C168.593 213.118 168.367 252.719 168.186 260.51C171.212 258.705 174.369 257.008 177.617 255.423" fill="#353F45"/>
<path id="path20" d="M203.268 244.977C216.205 240.412 229.511 237.204 243.022 234.506C243.937 221.58 245.241 176.859 247.038 164.013C247.255 162.53 247.449 161.067 247.69 159.584C236.288 162.061 224.958 164.909 213.845 168.246C209.675 169.495 205.506 170.824 201.406 172.206C200.168 186.459 199.052 232.526 198.274 246.779C199.949 246.163 201.62 245.558 203.268 244.977" fill="#353F45"/>
<g id="g22">
<path id="path24" d="M623.075 262.147C623.709 261.678 624.325 261.213 624.92 260.748C625.471 247.422 625.978 199.032 626.386 185.704C623.492 183.284 619.929 184.019 615.706 181.522C610.816 178.595 605.005 175.706 598.5 172.936C598.04 181.912 597.558 190.87 597.05 199.826C596.733 205.541 596.434 243.067 596.139 248.787C605.417 252.876 614.413 257.348 623.075 262.147Z" fill="#131D20"/>
</g>
<g id="g26">
<path id="path28" d="M496.563 228.013C522.34 230.745 547.687 236.643 571.675 245.071C572.045 230.546 573.097 180.47 574.078 165.946C571.43 165.086 568.215 165.564 565.417 164.726C545.484 158.696 522.469 156.045 496.479 152.026C496.72 157.178 496.797 162.328 496.817 167.499C496.833 177.067 496.732 218.445 496.563 228.013" fill="#131D20"/>
</g>
<g id="g32">
<path id="path34" d="M555.096 386.922C555.096 405.243 482.005 420.094 391.849 420.094C301.691 420.094 228.607 405.243 228.607 386.922C228.607 368.604 301.691 304.229 391.849 304.229C482.005 304.229 555.096 368.604 555.096 386.922" fill="#2F3436"/>
</g>
<g id="g36">
<path id="path38" d="M550.487 384.298C550.487 401.629 479.46 415.676 391.852 415.676C304.24 415.676 233.217 401.629 233.217 384.298C233.217 366.967 304.24 306.07 391.852 306.07C479.46 306.07 550.487 366.967 550.487 384.298" fill="#4B4F73"/>
</g>
<g id="g40">
<path id="path42" d="M565.421 333.182C565.421 359.675 541.761 388.261 391.851 388.261C241.94 388.261 218.279 359.675 218.279 333.182C218.279 306.688 295.989 285.208 391.851 285.208C487.713 285.208 565.421 306.688 565.421 333.182Z" fill="#2F3436"/>
</g>
<path id="path44" d="M24.5831 11.1705C17.6352 11.7303 11.8928 10.7227 11.7516 8.91756C11.609 7.11237 17.1254 5.19524 24.0706 4.63199C31.0144 4.07225 36.7606 5.08327 36.9022 6.88496C37.0434 8.69014 31.527 10.6073 24.5831 11.1705ZM45.2155 3.49149C30.246 -2.31239 16.1579 -0.167857 7.93729 4.73343C4.79294 7.78405 3.19442 12.1151 1.71438 16.9429C-2.27865 29.9675 -1.68416 40.071 30.3941 54.5579C62.4751 69.0519 156.807 128.158 173.678 145.548C190.548 162.942 205.706 132.513 205.706 132.513C205.706 132.513 91.9526 21.6028 45.2155 3.49149" fill="#DBDCD9"/>
<path id="path46" d="M179.442 134.815C162.57 117.425 68.2389 58.3187 36.1579 43.8283C4.07996 29.3378 3.48512 19.2344 7.4785 6.20978C7.63039 5.71301 7.78505 5.22324 7.94142 4.73696C4.79708 7.79108 3.19304 12.1151 1.71438 16.9429C-2.27865 29.9675 -1.68416 40.071 30.3941 54.5579C62.4751 69.0519 156.807 128.158 173.678 145.548C190.548 162.942 205.706 132.513 205.706 132.513C205.706 132.513 205.401 132.195 204.846 131.625C198.85 138.628 189.446 145.136 179.442 134.815Z" fill="#A7A9A8"/>
<path id="path48" d="M186.096 180.858C179.714 172.794 168.608 157.943 169.109 146.052C169.732 131.068 189.32 125.373 200.033 124.54C220.407 122.956 231.69 143.985 242.842 159.402L186.096 180.858" fill="#6E7274"/>
<path id="path50" d="M176.553 144.317C176.988 133.86 186.656 127.93 196.1 125.016C185.133 126.783 169.662 132.762 169.109 146.052C168.608 157.943 179.714 172.794 186.096 180.858L192.888 178.29C186.431 170.072 176.07 155.816 176.553 144.317" fill="#5B5A5A"/>
<g id="g52">
<path id="path54" d="M601.759 250.945C548.136 275.79 439.725 278.596 399.562 278.743V278.662C399.562 278.662 396.786 278.722 391.853 278.743C386.915 278.722 384.134 278.662 384.134 278.662V278.743C343.979 278.596 235.563 275.79 181.942 250.945C144.692 233.69 132.927 223.326 129.781 217.54C128.952 237.171 129.479 297.547 165.564 317.334C207.157 340.14 262.828 368.023 384.134 370.216V370.37C386.752 370.37 389.294 370.339 391.853 370.314C394.412 370.339 396.949 370.37 399.562 370.37V370.216C520.873 368.023 576.541 340.14 618.135 317.334C654.222 297.547 654.75 237.171 653.919 217.54C650.773 223.326 639.01 233.69 601.759 250.945" fill="#C0C0C0"/>
</g>
<path id="path56" d="M177.855 249.032C174.493 247.44 171.349 245.904 168.42 244.435C168.2 249.703 168.138 254.968 168.222 260.191C168.558 281.266 171.252 302.116 175.461 322.684C177.394 323.712 179.376 324.744 181.384 325.78C177.834 300.371 176.424 274.615 177.855 249.032Z" fill="#FFFAFA"/>
<path id="path58" d="M235.456 266.72C222.378 264.208 209.951 261.182 198.862 257.526C198.098 284.037 200.35 310.688 204.735 336.908C217.453 342.443 231.796 347.774 248.43 352.497C241.371 324.475 236.342 295.557 235.456 266.72" fill="#FFFAFA"/>
<g id="g60">
<path id="path62" d="M467.893 365.693C493.945 362.531 515.967 357.954 534.974 352.577C540.942 333.665 546.315 314.518 549.657 294.944C551.303 285.292 552.541 275.525 553.21 265.736C529.029 270.693 502.248 273.789 477.246 275.703C477.351 282.122 477.394 288.538 477.262 294.93C476.756 318.916 473.138 342.453 467.893 365.693" fill="#808080"/>
</g>
<g id="g64">
<path id="path66" d="M622.995 240.434C617.493 243.376 611.084 246.584 603.599 250.086C602.662 278.167 593.609 306.018 586.315 333.603C592.405 330.794 598.118 327.953 603.556 325.137C612.034 297.384 619.074 269.177 622.995 240.434Z" fill="#808080"/>
</g>
<g id="g68">
<path id="path70" d="M653.531 211.266C653.531 211.266 653.753 213.602 653.92 217.54C656.395 212.984 653.531 211.266 653.531 211.266Z" fill="#DBDCD9"/>
</g>
<path id="path72" d="M129.78 217.541C129.945 213.602 130.166 211.267 130.166 211.267C130.166 211.267 127.305 212.985 129.78 217.541Z" fill="#DBDCD9"/>
<g id="g74">
<path id="path76" d="M618.089 240.216C613.358 242.49 608.01 244.722 602.156 246.887C593.767 250.004 584.34 253.101 573.944 255.927C553.212 261.672 528.676 266.447 501.476 270.18C474.302 274.067 444.268 276.215 412.483 277.03C404.541 277.271 396.443 277.404 388.307 277.338C380.026 277.271 371.847 277.051 363.522 276.785C346.826 276.19 329.831 275.172 312.61 273.605C295.474 271.883 278.121 269.582 260.836 266.643C243.59 263.75 226.325 260.125 209.565 255.528C201.241 253.23 192.975 250.732 185.051 247.814C178.564 245.474 172.181 243.001 166.201 240.216C172.181 237.431 178.564 234.958 185.051 232.635C192.975 229.717 201.241 227.199 209.565 224.902C226.325 220.306 243.59 216.724 260.836 213.808C278.121 210.846 295.474 208.549 312.61 206.849C329.831 205.299 346.826 204.24 363.522 203.643C371.847 203.378 380.133 203.202 388.307 203.111C396.383 203.069 404.669 203.202 412.526 203.4C444.229 204.217 474.302 206.361 501.476 210.251C528.676 214.029 553.212 218.78 573.944 224.505C584.34 227.353 593.767 230.424 602.156 233.541C608.01 235.728 613.358 237.939 618.089 240.216Z" fill="#50585C"/>
</g>
<path id="path78" d="M238.196 375.401C237.949 374.754 237.031 374.373 236.145 374.551C235.256 374.73 234.737 375.398 234.981 376.049L239.566 388.213C239.77 388.755 240.444 389.108 241.169 389.108L241.619 389.059C242.504 388.884 243.025 388.213 242.781 387.566L238.196 375.401" fill="#222849"/>
<path id="path80" d="M275.37 384.396C274.464 384.522 273.868 385.159 274.044 385.816L277.061 397.393C277.209 397.977 277.912 398.383 278.694 398.383L279.01 398.362C279.916 398.236 280.509 397.599 280.34 396.938L277.319 385.365C277.151 384.704 276.283 384.277 275.37 384.396Z" fill="#222849"/>
<path id="path82" d="M312.476 390.172C311.566 390.245 310.909 390.854 311.012 391.519L313.106 404.606C313.206 405.226 313.926 405.68 314.759 405.68L314.956 405.677C315.872 405.596 316.526 404.991 316.416 404.326L314.325 391.239C314.225 390.571 313.419 390.095 312.476 390.172" fill="#222849"/>
<path id="path84" d="M352.254 395.962C351.345 396.053 350.705 396.668 350.832 397.333L352.933 408.43C353.043 409.042 353.756 409.483 354.579 409.483L354.81 409.469C355.719 409.378 356.36 408.766 356.233 408.101L354.135 397.001C354.008 396.336 353.188 395.853 352.254 395.962Z" fill="#222849"/>
<path id="path86" d="M391.479 395.342C390.556 395.342 389.808 395.885 389.808 396.56V406.898C389.808 407.569 390.556 408.115 391.479 408.115C392.402 408.115 393.146 407.569 393.146 406.898V396.56C393.146 395.885 392.402 395.342 391.479 395.342Z" fill="#222849"/>
<g id="g88">
<path id="path90" d="M548.914 374.551C548.027 374.372 547.11 374.754 546.866 375.401L542.28 387.565C542.032 388.212 542.555 388.884 543.446 389.059L543.887 389.108C544.619 389.108 545.289 388.754 545.491 388.212L550.076 376.048C550.324 375.397 549.805 374.729 548.914 374.551" fill="#222849"/>
</g>
<g id="g92">
<path id="path94" d="M509.692 384.396C508.776 384.276 507.912 384.703 507.737 385.365L504.726 396.937C504.551 397.598 505.143 398.235 506.052 398.361L506.364 398.382C507.149 398.382 507.846 397.976 507.999 397.392L511.014 385.816C511.192 385.158 510.6 384.521 509.692 384.396" fill="#222849"/>
</g>
<path id="path96" d="M472.579 390.172C471.636 390.095 470.837 390.571 470.73 391.239L468.639 404.326C468.529 404.991 469.187 405.596 470.1 405.677L470.296 405.68C471.133 405.68 471.856 405.226 471.949 404.606L474.04 391.519C474.15 390.854 473.492 390.245 472.579 390.172Z" fill="#222849"/>
<path id="path98" d="M432.804 395.962C431.871 395.853 431.048 396.336 430.924 397.001L428.826 408.101C428.699 408.766 429.339 409.378 430.252 409.469L430.479 409.483C431.299 409.483 432.015 409.042 432.133 408.43L434.227 397.333C434.354 396.668 433.717 396.053 432.804 395.962Z" fill="#222849"/>
<path id="path100" d="M244.817 371.679V371.753C244.751 372.071 244.686 372.386 244.587 372.701C243.784 375.283 241.515 377.567 237.212 379.369C235.847 379.928 234.547 380.341 233.312 380.635H233.277C232.744 380.73 232.179 380.831 231.646 380.901H231.575C208.494 383.455 205.323 334.043 205.526 333.602C205.526 333.602 247.153 356.888 244.817 371.679" fill="#54B5E9"/>
<path id="path102" d="M244.817 371.679V371.753C244.751 372.071 244.686 372.386 244.587 372.701C243.784 375.283 241.515 377.567 237.213 379.369C235.847 379.928 234.547 380.341 233.312 380.635H233.277C232.744 380.73 232.179 380.831 231.646 380.901H231.575C216.299 378.613 214.134 344.405 214.267 344.091C214.267 344.091 243.02 360.197 244.817 371.679" fill="#75C2ED"/>
<path id="path104" d="M244.587 372.701C243.784 375.282 241.515 377.567 237.213 379.369C235.847 379.928 234.547 380.341 233.312 380.635H233.277C222.539 377.252 220.969 352.532 221.073 352.315C221.073 352.315 241.716 363.871 244.587 372.701Z" fill="#C7E5F8"/>
<path id="path106" d="M286.533 381.429L286.522 381.503C286.416 381.81 286.309 382.122 286.171 382.43C285.045 384.942 282.496 387.069 277.984 388.569C276.548 389.035 275.204 389.353 273.933 389.566L273.902 389.563C273.358 389.622 272.783 389.682 272.239 389.72L272.173 389.71C248.868 390.693 252.002 341.278 252.261 340.855C252.261 340.855 290.742 366.858 286.533 381.429Z" fill="#54B5E9"/>
<path id="path108" d="M286.533 381.429L286.523 381.503C286.416 381.811 286.309 382.122 286.171 382.43C285.045 384.942 282.496 387.069 277.984 388.569C276.548 389.035 275.204 389.353 273.934 389.567L273.902 389.563C273.358 389.623 272.783 389.682 272.239 389.72L272.173 389.71C257.255 386.4 259.452 352.193 259.624 351.888C259.624 351.888 286.202 369.874 286.533 381.429" fill="#75C2ED"/>
<path id="path110" d="M286.171 382.43C285.045 384.942 282.496 387.069 277.984 388.57C276.548 389.035 275.204 389.353 273.934 389.567L273.902 389.563C263.638 385.467 265.226 360.75 265.357 360.537C265.357 360.537 284.439 373.446 286.171 382.43" fill="#C7E5F8"/>
<path id="path112" d="M323.122 388.09L323.108 388.164C322.984 388.468 322.86 388.776 322.705 389.08C321.435 391.557 318.762 393.6 314.167 394.958C312.707 395.381 311.339 395.661 310.065 395.832L310.034 395.829C309.486 395.871 308.904 395.909 308.363 395.93L308.294 395.923C284.952 396.186 290.955 346.91 291.238 346.494C291.238 346.494 328.175 373.663 323.122 388.09Z" fill="#54B5E9"/>
<path id="path114" d="M323.122 388.09L323.108 388.164C322.984 388.468 322.86 388.776 322.705 389.08C321.434 391.557 318.762 393.6 314.167 394.958C312.706 395.381 311.339 395.661 310.065 395.832L310.034 395.829C309.486 395.871 308.904 395.909 308.363 395.93L308.294 395.923C293.58 392.155 297.765 358.046 297.954 357.745C297.954 357.745 323.463 376.538 323.122 388.09" fill="#75C2ED"/>
<path id="path116" d="M322.706 389.08C321.435 391.557 318.762 393.6 314.167 394.958C312.707 395.381 311.339 395.661 310.065 395.832L310.034 395.829C300.014 391.417 303.035 366.771 303.173 366.561C303.173 366.561 321.493 380.047 322.706 389.08" fill="#C7E5F8"/>
<path id="path118" d="M342.08 348.876C341.667 349.244 320.577 397.102 344.846 400.422L344.915 400.443C345.486 400.503 346.1 400.552 346.675 400.594L346.709 400.604C348.087 400.632 349.585 400.566 351.225 400.37C356.398 399.73 359.784 398.117 361.851 395.857C362.102 395.58 362.322 395.297 362.546 395.014L362.577 394.944C372.166 381.436 342.08 348.876 342.08 348.876Z" fill="#54B5E9"/>
<path id="path120" d="M362.577 394.944L362.546 395.014C362.322 395.297 362.102 395.58 361.85 395.857C359.784 398.117 356.398 399.73 351.225 400.37C349.585 400.566 348.087 400.632 346.709 400.604L346.675 400.594C346.1 400.552 345.486 400.503 344.915 400.443L344.846 400.422C330.734 394.436 345.359 361.31 345.645 361.044C345.645 361.044 366.418 383.556 362.577 394.944Z" fill="#75C2ED"/>
<path id="path122" d="M361.851 395.857C359.784 398.117 356.398 399.73 351.225 400.37C349.585 400.566 348.087 400.632 346.709 400.604L346.675 400.594C337.623 394.692 348.19 370.756 348.4 370.574C348.4 370.574 363.321 386.733 361.851 395.857" fill="#C7E5F8"/>
<path id="path124" d="M388.372 349.093C387.914 349.44 362.267 396.098 386.161 400.656L386.226 400.681C386.788 400.768 387.397 400.849 387.962 400.919L387.997 400.926C389.371 401.031 390.869 401.038 392.526 400.926C397.748 400.555 401.278 399.121 403.558 396.973C403.837 396.71 404.085 396.437 404.333 396.165L404.371 396.098C415.241 383.115 388.372 349.093 388.372 349.093" fill="#54B5E9"/>
<path id="path126" d="M404.371 396.098L404.333 396.165C404.085 396.437 403.837 396.71 403.558 396.973C401.278 399.121 397.747 400.555 392.526 400.926C390.869 401.038 389.371 401.031 387.997 400.926L387.962 400.919C387.397 400.849 386.788 400.768 386.226 400.681L386.161 400.656C372.659 393.961 390.442 361.663 390.755 361.415C390.755 361.415 409.303 384.935 404.371 396.098Z" fill="#75C2ED"/>
<path id="path128" d="M403.558 396.973C401.278 399.121 397.748 400.555 392.526 400.926C390.869 401.038 389.371 401.031 387.997 400.926L387.962 400.919C379.506 394.569 392.354 371.235 392.581 371.06C392.581 371.06 405.907 387.943 403.558 396.973" fill="#C7E5F8"/>
<g id="g130">
<path id="path132" d="M538.875 371.68V371.753C538.948 372.072 539.013 372.386 539.114 372.701C539.906 375.283 542.176 377.568 546.484 379.369C547.851 379.929 549.154 380.341 550.387 380.636H550.416C550.95 380.73 551.52 380.832 552.054 380.901H552.119C575.2 383.455 578.367 334.044 578.169 333.603C578.169 333.603 536.541 356.888 538.875 371.68" fill="#54B5E9"/>
</g>
<g id="g134">
<path id="path136" d="M538.876 371.679V371.753C538.948 372.071 539.012 372.386 539.112 372.701C539.91 375.283 542.177 377.567 546.484 379.369C547.853 379.929 549.154 380.342 550.387 380.635H550.419C550.95 380.73 551.52 380.831 552.055 380.901H552.119C567.393 378.613 569.564 344.406 569.429 344.091C569.429 344.091 540.68 360.198 538.876 371.679Z" fill="#75C2ED"/>
</g>
<g id="g138">
<path id="path140" d="M539.11 372.701C539.908 375.283 542.179 377.568 546.483 379.37C547.85 379.929 549.153 380.342 550.385 380.636H550.417C561.154 377.253 562.726 352.533 562.627 352.316C562.627 352.316 541.977 363.871 539.11 372.701Z" fill="#C7E5F8"/>
</g>
<g id="g142">
<path id="path144" d="M497.169 381.429L497.173 381.503C497.279 381.811 497.385 382.122 497.524 382.43C498.65 384.942 501.201 387.069 505.715 388.57C507.147 389.035 508.492 389.353 509.765 389.567L509.799 389.563C510.336 389.622 510.91 389.682 511.454 389.721L511.526 389.71C534.829 390.693 531.689 341.278 531.436 340.855C531.436 340.855 492.961 366.858 497.169 381.429" fill="#54B5E9"/>
</g>
<g id="g146">
<path id="path148" d="M497.169 381.43L497.173 381.503C497.277 381.811 497.385 382.122 497.527 382.43C498.648 384.942 501.201 387.069 505.718 388.57C507.145 389.035 508.494 389.353 509.765 389.567L509.798 389.563C510.335 389.623 510.909 389.682 511.456 389.721L511.523 389.71C526.441 386.401 524.246 352.193 524.067 351.889C524.067 351.889 497.489 369.874 497.169 381.43" fill="#75C2ED"/>
</g>
<g id="g150">
<path id="path152" d="M497.524 382.431C498.648 384.942 501.2 387.069 505.714 388.57C507.144 389.036 508.49 389.354 509.762 389.567L509.796 389.564C520.058 385.467 518.468 360.751 518.343 360.538C518.343 360.538 499.253 373.447 497.524 382.431" fill="#C7E5F8"/>
</g>
<g id="g154">
<path id="path156" d="M460.579 388.089L460.593 388.163C460.718 388.467 460.835 388.775 460.995 389.08C462.265 391.557 464.936 393.6 469.535 394.957C470.99 395.38 472.359 395.66 473.636 395.832L473.671 395.828C474.215 395.87 474.792 395.909 475.339 395.93L475.403 395.923C498.745 396.185 492.745 346.909 492.464 346.493C492.464 346.493 455.525 373.662 460.579 388.089" fill="#54B5E9"/>
</g>
<g id="g158">
<path id="path160" d="M460.577 388.09L460.591 388.163C460.717 388.468 460.836 388.775 460.994 389.08C462.265 391.557 464.935 393.6 469.532 394.957C470.99 395.38 472.356 395.66 473.635 395.832L473.67 395.828C474.213 395.87 474.791 395.908 475.341 395.93L475.401 395.923C490.116 392.155 485.94 358.045 485.744 357.744C485.744 357.744 460.237 376.538 460.577 388.09" fill="#75C2ED"/>
</g>
<g id="g162">
<path id="path164" d="M460.992 389.081C462.263 391.558 464.931 393.601 469.531 394.958C470.986 395.381 472.354 395.662 473.633 395.833L473.667 395.829C483.682 391.418 480.662 366.771 480.52 366.561C480.52 366.561 462.201 380.048 460.992 389.081" fill="#C7E5F8"/>
</g>
<path id="path166" d="M441.622 348.876C442.035 349.244 463.121 397.102 438.846 400.422L438.784 400.443C438.212 400.503 437.599 400.552 437.02 400.594L436.989 400.604C435.611 400.632 434.113 400.566 432.474 400.37C427.297 399.73 423.914 398.117 421.848 395.857C421.593 395.58 421.376 395.297 421.155 395.014L421.121 394.944C411.525 381.436 441.622 348.876 441.622 348.876Z" fill="#54B5E9"/>
<path id="path168" d="M421.121 394.944L421.155 395.014C421.376 395.297 421.593 395.58 421.848 395.857C423.914 398.117 427.297 399.73 432.474 400.37C434.113 400.566 435.611 400.632 436.989 400.604L437.02 400.594C437.599 400.552 438.212 400.503 438.784 400.443L438.846 400.422C452.961 394.436 438.339 361.31 438.05 361.044C438.05 361.044 417.277 383.556 421.121 394.944Z" fill="#75C2ED"/>
<path id="path170" d="M421.848 395.857C423.914 398.117 427.297 399.73 432.473 400.37C434.113 400.566 435.611 400.632 436.989 400.604L437.02 400.594C446.072 394.692 435.505 370.756 435.294 370.574C435.294 370.574 420.38 386.733 421.848 395.857" fill="#C7E5F8"/>
<g id="g172">
<path id="path174" d="M640.661 214.535C640.62 214.74 640.589 214.951 640.589 215.158C640.589 215.419 640.553 215.624 640.48 215.705C640.377 215.989 640.264 216.272 640.155 216.585C640.016 216.924 640.088 217.184 639.799 217.704C639.582 218.169 639.334 218.662 639.086 219.209C637.033 223.464 630.647 229.826 618.801 236.081C612.917 239.223 605.741 242.287 597.555 245.247C589.369 248.235 580.177 251.163 570.023 253.864C549.815 259.318 525.875 263.859 499.354 267.445C472.869 271.125 443.577 273.182 412.566 273.962C404.813 274.168 396.915 274.298 388.982 274.245C380.909 274.168 372.903 273.987 364.791 273.724C348.534 273.154 331.953 272.171 315.154 270.688C298.425 269.054 281.524 266.871 264.65 264.068C247.818 261.291 230.986 257.862 214.653 253.475C206.51 251.296 198.467 248.907 190.75 246.125C182.996 243.428 175.461 240.521 168.57 237.12C161.677 233.745 155.433 229.903 150.835 225.673C148.47 223.567 146.815 221.337 145.493 219.156C144.305 217.001 143.873 214.872 143.73 212.768V212.614L143.802 211.991L143.909 210.769C143.948 210.407 143.948 209.784 144.056 209.681L144.267 209.084C144.485 208.64 144.376 208.357 144.7 207.76L145.493 206.125C146.815 203.941 148.47 201.71 150.835 199.605C155.433 195.376 161.677 191.533 168.57 188.159C175.461 184.756 182.996 181.85 190.75 179.151C198.467 176.373 206.51 173.982 214.653 171.803C230.986 167.416 247.818 163.989 264.65 161.211C281.524 158.407 298.425 156.228 315.154 154.592C331.953 153.112 348.534 152.127 364.791 151.555C372.939 151.296 381.017 151.113 388.982 151.035C396.843 150.983 404.957 151.113 412.602 151.319C443.541 152.098 472.869 154.151 499.354 157.836C525.875 161.418 549.815 165.962 570.023 171.413C580.177 174.113 589.369 177.049 597.555 180.033C605.741 182.992 612.917 186.054 618.801 189.198C630.647 195.454 637.033 201.813 639.086 206.072C641.094 210.175 640.701 212.406 640.801 212.589V212.64C640.765 213.055 640.729 213.653 640.661 214.535V214.535ZM654.339 209.967C654.303 209.084 653.978 207.992 653.581 206.749C653.292 205.449 652.574 204.045 651.785 202.465C648.522 196.077 639.943 188.263 626.595 181.355C613.237 174.401 595.326 168.194 574.112 162.872C552.902 157.525 528.281 153.242 501.15 149.998C474.015 146.752 444.331 144.725 412.814 144.075C381.41 143.427 348.137 144.128 313.969 146.854C296.92 148.206 279.619 150.101 262.246 152.645C244.908 155.161 227.47 158.356 210.311 162.614C193.193 166.846 176.18 172.088 160.562 179.464C152.812 183.203 145.42 187.536 139.356 192.986C136.266 195.662 133.787 198.75 131.781 202.021C130.92 203.709 130.021 205.371 129.59 207.319C128.909 209.371 129.012 210.588 128.765 212.64C128.909 216.301 129.875 219.933 131.781 223.256C133.787 226.528 136.266 229.62 139.356 232.289C145.42 237.746 152.812 242.081 160.562 245.818C176.18 253.192 193.193 258.436 210.311 262.666C227.47 266.927 244.908 270.117 262.246 272.633C279.619 275.179 296.92 277.076 313.969 278.423C348.178 281.151 381.342 281.851 412.854 281.204C444.294 280.553 474.015 278.528 501.15 275.281C528.281 272.038 552.902 267.756 574.112 262.407C595.326 257.086 613.237 250.88 626.595 243.921C639.943 237.019 648.522 229.204 651.785 222.817C652.574 221.233 653.292 219.857 653.617 218.455C654.014 217.131 654.339 215.989 654.339 215.237C654.479 213.653 654.587 212.822 654.587 212.822V212.64C654.587 212.64 654.515 211.731 654.339 209.967" fill="#DBDCD9"/>
</g>
</g>
</g>
</g>
</svg>
