<svg width="110" height="108" viewBox="0 0 110 108" fill="none" xmlns="http://www.w3.org/2000/svg">
<g id="Group 3">
<g id="Group 1">
<path id="path820" d="M55.62 105.317L31.7693 64.0068C30.4866 61.7841 31.2546 58.9148 33.4773 57.6321L74.7866 33.7814C77.0106 32.4974 79.88 33.2668 81.1626 35.4894L105.012 76.8001C106.296 79.0241 105.528 81.8921 103.305 83.1748L61.9946 107.025C59.772 108.308 56.9026 107.54 55.62 105.317Z" fill="#EDF158"/>
<path id="path822" d="M65.444 48.9827C65.444 50.7681 62.7747 52.2694 62.4347 53.9641C62.0867 55.6987 63.9653 58.1094 63.2947 59.7201C62.62 61.3401 59.5787 61.7134 58.6107 63.1774C57.6467 64.6348 58.504 67.5734 57.284 68.8454C56.0787 70.1014 53.1027 69.3761 51.6787 70.4241C50.28 71.4547 50.0973 74.5134 48.516 75.3147C46.9707 76.0987 44.3933 74.4467 42.7013 74.9854C41.0533 75.5121 39.916 78.3601 38.156 78.6294C36.4507 78.8907 34.508 76.5254 32.7227 76.5254C30.936 76.5254 28.9934 78.8907 27.2867 78.6294C25.528 78.3601 24.3907 75.5121 22.7427 74.9854C21.0507 74.4454 18.472 76.0987 16.9254 75.3134C15.3454 74.5134 15.164 71.4547 13.764 70.4241C12.34 69.3747 9.36269 70.1001 8.15736 68.8441C6.93736 67.5708 7.796 64.6334 6.83333 63.1761C5.86533 61.7108 2.82268 61.3387 2.14801 59.7187C1.47868 58.1081 3.35734 55.6974 3.00934 53.9627C2.67068 52.2681 0 50.7681 0 48.9827C0 47.1961 2.67068 45.6961 3.01068 44.0001C3.35734 42.2667 1.47868 39.8561 2.14935 38.2454C2.82402 36.6241 5.86533 36.2521 6.83467 34.7867C7.79733 33.3307 6.93866 30.3921 8.15999 29.1187C9.36533 27.8627 12.3413 28.5881 13.7653 27.5401C15.1653 26.5094 15.3467 23.4507 16.9267 22.6494C18.4733 21.8654 21.052 23.5187 22.7427 22.9787C24.392 22.4521 25.528 19.6054 27.288 19.3347C28.9934 19.0734 30.936 21.4401 32.7227 21.4401C34.508 21.4401 36.4507 19.0734 38.1574 19.3361C39.9174 19.6067 41.0533 22.4534 42.7013 22.9787C44.3933 23.5187 46.972 21.8654 48.5187 22.6507C50.1 23.4521 50.2813 26.5108 51.68 27.5414C53.1053 28.5894 56.0813 27.8641 57.2853 29.1214C58.5067 30.3947 57.648 33.3321 58.612 34.7894C59.58 36.2534 62.62 36.6267 63.2947 38.2467C63.9653 39.8574 62.0867 42.2681 62.4347 44.0014C62.7747 45.6974 65.444 47.1974 65.444 48.9827Z" fill="#B9E160"/>
<path id="path824" d="M21.3613 57.2948C27.9639 38.4014 48.632 28.4388 67.5253 35.0414C86.4186 41.6441 96.3813 62.3121 89.7786 81.2054C83.1746 100.099 62.5066 110.061 43.6133 103.459C24.7213 96.8561 14.7573 76.1868 21.3613 57.2948Z" fill="#B05725"/>
<path id="path826" d="M28.4387 46.6814C18.788 38.1694 17.46 23.9067 25.4707 14.8227C33.4813 5.74007 47.7987 5.27741 57.4493 13.7894C67.1 22.3027 68.4293 36.5654 60.4173 45.6481C52.4053 54.7307 38.088 55.1934 28.4387 46.6814ZM60.7747 7.9494C48.9667 -2.46527 30.952 -1.33591 20.5373 10.4721C10.1227 22.2788 11.252 40.2934 23.0587 50.7081C34.8654 61.1228 52.8813 59.9934 63.2947 48.1867C73.7107 36.3787 72.5813 18.3641 60.7747 7.9494Z" fill="#92488C"/>
<path id="path828" d="M22.388 12.1041C32.5267 0.608111 49.852 -0.733247 61.6574 8.81209C61.36 8.52675 61.0853 8.22542 60.7747 7.94942C48.9667 -2.46524 30.952 -1.33589 20.5373 10.4721C10.1227 22.2788 11.252 40.2934 23.0587 50.7081C23.3707 50.9841 23.704 51.2188 24.0254 51.4774C13.0814 40.9561 12.248 23.5988 22.388 12.1041" fill="#FFFAEA"/>
<path id="path830" d="M30.6413 43.8441C22.5693 36.7241 21.4573 24.7921 28.1587 17.1934C34.8613 9.59606 46.8373 9.2094 54.9106 16.3307C62.984 23.4507 64.0946 35.3827 57.3933 42.9801C50.6906 50.5787 38.7146 50.9654 30.6413 43.8441ZM57.6907 11.4441C47.8133 2.73208 32.744 3.67739 24.032 13.5547C15.32 23.4321 16.264 38.5014 26.1413 47.2134C36.0186 55.9254 51.088 54.9814 59.8 45.1041C68.512 35.2267 67.568 20.1574 57.6907 11.4441Z" fill="#92488C"/>
<path id="path832" d="M25.58 14.9187C34.0613 5.30408 48.556 4.18143 58.4306 12.1654C58.1813 11.9268 57.952 11.6748 57.6907 11.4441C47.8133 2.73211 32.744 3.67742 24.032 13.5548C15.32 23.4321 16.264 38.5014 26.1413 47.2134C26.4026 47.4441 26.6813 47.6401 26.9493 47.8574C17.7946 39.0548 17.0973 24.5347 25.58 14.9187Z" fill="#FFFAEA"/>
<path id="path834" d="M33.9533 43.8708C26.9013 37.6508 25.9307 27.2268 31.7853 20.5894C37.64 13.9521 48.1027 13.6148 55.1547 19.8348C62.2067 26.0548 63.1773 36.4774 57.324 43.1147C51.4693 49.7521 41.0053 50.0908 33.9533 43.8708V43.8708ZM57.584 15.5668C48.9547 7.9561 35.7906 8.78144 28.18 17.4094C20.5693 26.0388 21.3947 39.2027 30.0227 46.8134C38.6507 54.4241 51.816 53.5988 59.4266 44.9708C67.0373 36.3414 66.212 23.1774 57.584 15.5668Z" fill="#92488C"/>
<path id="path836" d="M29.532 18.6028C36.9413 10.2014 49.6026 9.22142 58.2293 16.1974C58.012 15.9881 57.812 15.7681 57.584 15.5668C48.9546 7.95609 35.7906 8.78143 28.18 17.4094C20.5693 26.0388 21.3947 39.2027 30.0227 46.8134C30.2507 47.0147 30.4946 47.1868 30.7293 47.3761C22.7306 39.6868 22.1226 27.0028 29.532 18.6028Z" fill="#FFFAEA"/>
<path id="path838" d="M66.3733 13.4948C77.656 7.15742 91.9386 11.1654 98.276 22.4481C104.613 33.7307 100.604 48.0134 89.3213 54.3507C78.04 60.6881 63.756 56.6788 57.42 45.3961C51.0827 34.1134 55.092 19.8308 66.3733 13.4948Z" fill="#E72F3F"/>
<path id="path840" d="M67.4907 15.4814C77.6733 9.76139 90.5667 13.3814 96.2867 23.5654C102.008 33.7494 98.3893 46.6414 88.2053 52.3627C78.02 58.0827 65.1266 54.464 59.4066 44.2787C53.6866 34.0947 57.3053 21.2027 67.4907 15.4814" fill="#F1445B"/>
<path id="path842" d="M84.2774 18.9161C89.2027 16.1508 91.8973 19.3321 94.3707 23.7361C97.2107 28.7921 98.16 32.0974 93.2347 34.8628C88.3107 37.6281 79.3413 37.9708 76.868 33.5668C74.3947 29.1641 79.3534 21.6828 84.2774 18.9161Z" fill="#E72F3F"/>
<path id="path844" d="M87.4733 46.2308C89.0333 50.9401 85.8373 52.7308 81.624 54.1254C76.788 55.7254 73.78 55.9908 72.2213 51.2801C70.6613 46.5708 71.8707 38.7788 76.0827 37.3841C80.2933 35.9894 85.9133 41.5201 87.4733 46.2308Z" fill="#E72F3F"/>
<path id="path846" d="M60.328 33.7028C56.6747 31.0908 58.0587 28.0774 60.3933 24.8108C63.076 21.0614 65.1347 19.2641 68.7867 21.8761C72.44 24.4881 75.7107 30.8308 73.3747 34.0961C71.0387 37.3614 63.98 36.3148 60.328 33.7028" fill="#E72F3F"/>
<path id="path848" d="M74.164 44.1108C73.908 45.0481 74.276 45.9641 74.984 46.1574C75.692 46.3494 76.4733 45.7468 76.728 44.8081C76.984 43.8708 76.0826 42.1201 76.0826 42.1201C76.0826 42.1201 74.4186 43.1721 74.164 44.1108Z" fill="#FCD462"/>
<path id="path850" d="M78.4573 46.2348C78.7467 47.1188 79.524 47.6601 80.192 47.4415C80.86 47.2215 81.168 46.3281 80.8787 45.4428C80.588 44.5575 78.9467 43.6308 78.9467 43.6308C78.9467 43.6308 78.1693 45.3494 78.4573 46.2348" fill="#FCD462"/>
<path id="path852" d="M81.1507 43.7188C82.1093 43.8801 82.9853 43.4241 83.108 42.7015C83.2293 41.9775 82.5533 41.2588 81.5946 41.0974C80.636 40.9348 78.9813 42.0028 78.9813 42.0028C78.9813 42.0028 80.192 43.5548 81.1507 43.7188" fill="#FCD462"/>
<path id="path854" d="M84.324 34.1507C85.2946 34.1894 86.1053 33.6254 86.1333 32.8921C86.1626 32.1588 85.3986 31.5334 84.4279 31.4948C83.4559 31.4574 81.952 32.7281 81.952 32.7281C81.952 32.7281 83.352 34.1134 84.324 34.1507Z" fill="#FCD462"/>
<path id="path856" d="M85.428 29.4894C86.2266 29.0081 86.5773 28.1308 86.2146 27.5281C85.8506 26.9254 84.9093 26.8281 84.1133 27.3094C83.316 27.7908 82.7813 29.6001 82.7813 29.6001C82.7813 29.6001 84.6306 29.9708 85.428 29.4894Z" fill="#FCD462"/>
<path id="path858" d="M82.3706 27.4308C82.3133 26.4615 81.672 25.7094 80.94 25.7534C80.208 25.7961 79.66 26.6174 79.7173 27.5881C79.7746 28.5588 81.1867 29.9308 81.1867 29.9308C81.1867 29.9308 82.428 28.4015 82.3706 27.4308" fill="#FCD462"/>
<path id="path860" d="M72.584 27.7081C72.2187 26.8068 71.3707 26.3014 70.6907 26.5774C70.0094 26.8534 69.7547 27.8068 70.12 28.7068C70.4854 29.6081 72.264 30.4534 72.264 30.4534C72.264 30.4534 72.948 28.6081 72.584 27.7081" fill="#FCD462"/>
<path id="path862" d="M67.8813 28.6214C67.1146 28.0921 66.1693 28.1334 65.7706 28.7134C65.3706 29.2921 65.6693 30.1894 66.436 30.7187C67.2026 31.2467 69.0706 30.9881 69.0706 30.9881C69.0706 30.9881 68.648 29.1494 67.8813 28.6214Z" fill="#FCD462"/>
<path id="path864" d="M67.264 32.2548C66.4027 32.7068 65.9827 33.6001 66.324 34.2494C66.6654 34.9001 67.64 35.0601 68.5 34.6081C69.36 34.1561 70.028 32.3041 70.028 32.3041C70.028 32.3041 68.124 31.8028 67.264 32.2548Z" fill="#FCD462"/>
<path id="path866" d="M40.94 96.7561L10.2626 56.2041C4.9533 49.1867 6.35198 39.1014 13.3693 33.7921L52.8026 3.96274C59.8213 -1.3466 69.9067 0.0520764 75.216 7.06941L105.893 47.6214C111.201 54.6401 109.803 64.7254 102.784 70.0347L63.352 99.8641C56.3347 105.173 46.248 103.775 40.94 96.7561" fill="#F9AB67"/>
<path id="path868" d="M42.048 88.2241L18.776 57.4587C13.4667 50.4401 14.864 40.3561 21.8827 35.0467L51.6933 12.4948C58.712 7.18675 68.7973 8.58543 74.1067 15.6028L97.38 46.3668C102.688 53.3854 101.289 63.4721 94.272 68.7801L64.4613 91.3321C57.444 96.6401 47.3573 95.2427 42.048 88.2241" fill="#FEFCD7"/>
<path id="path872" d="M30.596 28.5614C30.144 28.5614 29.6986 28.3574 29.4053 27.9708C28.908 27.3134 29.0373 26.3788 29.6946 25.8814L42.4173 16.2574C43.0733 15.7588 44.0106 15.8894 44.5053 16.5468C45.0026 17.2028 44.8733 18.1388 44.216 18.6348L31.4933 28.2588C31.2253 28.4628 30.908 28.5614 30.596 28.5614Z" fill="white"/>
<path id="path874" d="M90.344 79.4467V79.4454L101.329 71.1361C101.312 71.1494 101.295 71.1627 101.277 71.1761L90.344 79.4467Z" fill="#E0B62C"/>
<path id="path876" d="M69.2626 95.3934L90.344 79.4454V79.4468L69.2626 95.3934ZM39.904 95.3881C39.8693 95.3428 39.8333 95.2961 39.7986 95.2508L31.904 84.8121L39.904 95.3881Z" fill="#A33F1E"/>
<path id="path878" d="M92.8466 30.3761L88.8306 25.0668L92.8466 30.3761Z" fill="#D72A26"/>
<path id="path880" d="M54.1 102.327C48.728 102.327 43.412 99.9334 39.904 95.3881L31.904 84.8121C34.236 84.6521 36.5333 84.3508 38.788 83.9134L42.048 88.2241C45.184 92.3694 49.9866 94.5548 54.8386 94.5548C58.2013 94.5548 61.5893 93.5055 64.4613 91.3321L94.272 68.7801C101.289 63.4721 102.688 53.3855 97.38 46.3668L87.5706 33.4015C88.1466 30.6841 88.5706 27.9001 88.8306 25.0668L92.8466 30.3761L104.752 46.1148C110.675 53.9441 109.132 65.1881 101.329 71.1361L90.344 79.4454L69.2626 95.3934L64.8599 98.7241C61.6479 101.153 57.86 102.327 54.1 102.327" fill="#EE7938"/>
<path id="path882" d="M54.8386 94.5547C49.9866 94.5547 45.184 92.3694 42.048 88.2241L38.788 83.9134C62.8907 79.2427 82.108 59.1934 87.5706 33.4014L97.38 46.3668C102.688 53.3854 101.289 63.4721 94.272 68.7801L64.4613 91.3321C61.5893 93.5054 58.2013 94.5547 54.8386 94.5547" fill="#ECB671"/>
<path id="path884" d="M54.0907 103.831C48.22 103.831 42.416 101.181 38.6093 96.1481L10.2146 58.6121C7.10264 54.4987 5.78129 49.4027 6.49462 44.2601C7.20796 39.1187 9.86531 34.5734 13.9773 31.4627L31.3093 18.3521C31.9666 17.8534 32.9026 17.9841 33.3973 18.6401C33.8946 19.2974 33.7653 20.2321 33.1093 20.7294L15.7773 33.8401C12.3 36.4708 10.052 40.3174 9.44798 44.6694C8.84398 49.0228 9.96132 53.3347 12.592 56.8121L40.9866 94.3494C46.4426 101.56 56.7466 102.991 63.96 97.5348L100.377 69.9854C103.855 67.3574 106.104 63.5094 106.707 59.1561C107.311 54.8041 106.193 50.4921 103.563 47.0134L75.1666 9.47742C71.18 4.20676 64.4413 1.85874 57.9986 3.49741C57.2106 3.69741 56.388 3.2174 56.1866 2.41873C55.9826 1.6214 56.4653 0.80942 57.264 0.606753C64.8733 -1.32658 72.8333 1.44806 77.5453 7.67873L105.943 45.2147C112.389 53.7387 110.7 65.9174 102.176 72.3641L65.76 99.9147C62.268 102.553 58.1627 103.831 54.0907 103.831" fill="#301831"/>
<path id="path888" d="M49.132 45.9494C49.132 48.4201 47.1293 50.4228 44.66 50.4228C42.1893 50.4228 40.1867 48.4201 40.1867 45.9494C40.1867 43.4801 42.1893 41.4774 44.66 41.4774C47.1293 41.4774 49.132 43.4801 49.132 45.9494Z" fill="white"/>
<path id="path890" d="M61.06 64.3734C61.06 66.4574 59.3693 68.1481 57.284 68.1481C55.2 68.1481 53.508 66.4574 53.508 64.3734C53.508 62.2881 55.2 60.5974 57.284 60.5974C59.3693 60.5974 61.06 62.2881 61.06 64.3734Z" fill="white"/>
<path id="path892" d="M33.5893 54.6827C33.5893 55.5934 32.8506 56.3321 31.94 56.3321C31.028 56.3321 30.288 55.5934 30.288 54.6827C30.288 53.7707 31.028 53.0308 31.94 53.0308C32.8506 53.0308 33.5893 53.7707 33.5893 54.6827Z" fill="white"/>
<path id="path894" d="M54.3493 28.9641C54.3493 31.0494 52.66 32.7401 50.5746 32.7401C48.4906 32.7401 46.8 31.0494 46.8 28.9641C46.8 26.8801 48.4906 25.1894 50.5746 25.1894C52.66 25.1894 54.3493 26.8801 54.3493 28.9641Z" fill="#F8ECB3"/>
<path id="path896" d="M74.3107 31.5734C74.3107 32.1254 73.8627 32.5721 73.3107 32.5721C72.76 32.5721 72.312 32.1254 72.312 31.5734C72.312 31.0214 72.76 30.5748 73.3107 30.5748C73.8627 30.5748 74.3107 31.0214 74.3107 31.5734Z" fill="#F8ECB3"/>
<path id="path898" d="M64.7906 74.2761C64.7906 74.8281 64.344 75.2761 63.792 75.2761C63.24 75.2761 62.7933 74.8281 62.7933 74.2761C62.7933 73.7255 63.24 73.2775 63.792 73.2775C64.344 73.2775 64.7906 73.7255 64.7906 74.2761Z" fill="#F8ECB3"/>
<path id="path900" d="M65.656 50.1681C65.656 49.4148 66.268 48.8028 67.0227 48.8028C67.7787 48.8028 68.3907 49.4148 68.3907 50.1681C68.3907 50.9241 67.7787 51.5348 67.0227 51.5348C66.268 51.5348 65.656 50.9241 65.656 50.1681Z" fill="#F8ECB3"/>
<path id="path902" d="M76.34 64.3374C76.34 63.5828 76.952 62.9708 77.708 62.9708C78.4613 62.9708 79.0733 63.5828 79.0733 64.3374C79.0733 65.0921 78.4613 65.7041 77.708 65.7041C76.952 65.7041 76.34 65.0921 76.34 64.3374Z" fill="#F8ECB3"/>
<path id="path904" d="M47.5173 63.0948C47.5173 62.3401 48.128 61.7281 48.884 61.7281C49.6387 61.7281 50.2507 62.3401 50.2507 63.0948C50.2507 63.8494 49.6387 64.4614 48.884 64.4614C48.128 64.4614 47.5173 63.8494 47.5173 63.0948Z" fill="#F8ECB3"/>
<path id="path906" d="M58.704 47.0681C58.704 47.6201 58.256 48.0668 57.7053 48.0668C57.1533 48.0668 56.7053 47.6201 56.7053 47.0681C56.7053 46.5161 57.1533 46.0694 57.7053 46.0694C58.256 46.0694 58.704 46.5161 58.704 47.0681Z" fill="#F8ECB3"/>
<path id="path908" d="M30.7506 44.2108C30.7506 44.7628 30.3026 45.2094 29.7506 45.2094C29.1986 45.2094 28.752 44.7628 28.752 44.2108C28.752 43.6588 29.1986 43.2121 29.7506 43.2121C30.3026 43.2121 30.7506 43.6588 30.7506 44.2108Z" fill="#F8ECB3"/>
<path id="path910" d="M70.0533 39.9868C70.0533 42.0708 68.3626 43.7614 66.2773 43.7614C64.192 43.7614 62.5026 42.0708 62.5026 39.9868C62.5026 37.9014 64.192 36.2108 66.2773 36.2108C68.3626 36.2108 70.0533 37.9014 70.0533 39.9868Z" fill="white"/>
</g>
<g id="lupa" className="lupa">
<path className="lupa" id="path16" d="M97.5514 80.5839L97.2534 80.3001L90.0382 87.1478L90.2138 87.313L92.1271 89.1262C93.353 90.2922 95.962 89.7033 97.956 87.8135C99.9484 85.9202 100.568 83.4442 99.3424 82.281L97.5544 80.5839H97.5514" fill="black"/>
<path className="lupa" id="path18" d="M95.4878 78.6531L88.2725 85.4964L90.0382 87.1478L97.2534 80.3001L97.0472 80.1043L97.0414 80.1073L95.4878 78.6531" fill="black"/>
<path className="lupa" id="path20" d="M57.4969 67.4502C46.5805 67.4502 37.7282 59.0505 37.7282 48.6869C37.7282 38.3229 46.5805 29.9237 57.4969 29.9237C68.416 29.9237 77.2663 38.3229 77.2663 48.6869C77.2663 59.0505 68.416 67.4502 57.4969 67.4502V67.4502ZM57.1125 22C41.5859 22 29 33.949 29 48.6869C29 63.4243 41.5859 75.371 57.1125 75.371C62.8689 75.371 68.2123 73.7265 72.6709 70.9094L88.2725 85.4964L95.4878 78.6531L79.988 64.1632C83.2748 59.7962 85.2289 54.4621 85.2289 48.6869C85.2289 33.949 72.6429 22 57.1125 22Z" fill="black"/>
<path className="lupa" id="path22" d="M60.8945 37.0766L47.0852 53.5631C46.6289 54.1114 46.7237 54.908 47.3009 55.3466C47.5472 55.5296 47.8406 55.6206 48.1328 55.6206C48.5236 55.6206 48.9158 55.4583 49.1792 55.1414L62.9867 38.6539C63.4469 38.1056 63.3482 37.3098 62.7703 36.8735C62.193 36.441 61.3515 36.5281 60.8945 37.0766" fill="black"/>
<path className="lupa" id="path24" d="M66.6859 42.5729L52.8759 59.0601C52.4165 59.6083 52.5144 60.4043 53.0925 60.8432C53.3387 61.0265 53.6321 61.1171 53.923 61.1171C54.3151 61.1171 54.7046 60.9522 54.9681 60.6381L68.7781 44.1508C69.237 43.6026 69.1395 42.8063 68.5616 42.3678C67.9863 41.934 67.1429 42.0249 66.6859 42.5729Z" fill="black"/>
</g>
</g>
</svg>
