<svg width="322" height="188" viewBox="0 0 322 188" fill="none" xmlns="http://www.w3.org/2000/svg">
<g id="Linked Path Group" filter="url(#filter0_d_1_8751)">
<g id="[Copy] DIETS">
<path className='texto' d="M26.1097 123.266C25.8296 122.415 25.8731 121.626 26.2401 120.899C26.5464 120.191 27.0643 119.718 27.7938 119.478C28.4625 119.258 29.0393 119.27 29.5241 119.515C30.6245 122.858 32.6387 125.396 35.5667 127.127C38.5556 128.839 42.0434 129.712 46.0303 129.747L26.703 71.0221C21.2455 74.5026 19.087 77.9755 20.2275 81.4406C20.6076 82.5957 21.1601 83.6603 21.885 84.6345C21.7604 85.4841 21.0597 86.1189 19.7831 86.5391C18.5064 86.9592 17.2621 86.8634 16.0501 86.2517C14.8381 85.6399 13.982 84.5741 13.4818 83.0543C12.5815 80.3187 13.159 77.4672 15.2144 74.4999C17.3306 71.5126 20.6299 68.7423 25.1124 66.1891L23.7319 61.9944C23.1316 60.1706 23.1374 58.6528 23.7492 57.4408C24.3409 56.168 25.3055 55.3115 26.643 54.8713C27.9804 54.4312 29.2755 54.4766 30.5283 55.0075L33.0192 62.5762C33.6071 62.3153 34.509 61.9848 35.7249 61.5846C45.8164 58.2634 54.9941 58.4096 63.258 62.0233C67.3795 63.9009 71.1221 66.9813 74.4857 71.2645C77.8901 75.4668 80.6426 80.7596 82.7434 87.1428C86.3848 98.207 85.8631 107.677 81.1782 115.552C76.5342 123.346 68.8016 129.024 57.9806 132.586C49.7737 135.287 42.8002 135.594 37.0604 133.508C31.3205 131.422 27.6703 128.008 26.1097 123.266ZM37.6514 65.9028L34.8545 66.9244L55.1122 128.477L56.48 128.026C64.8086 125.285 70.705 120.784 74.1694 114.524C77.6338 108.263 77.6754 99.9953 74.2941 89.7214C70.8928 79.3868 65.9313 72.1933 59.4096 68.141C52.8679 64.0279 45.6152 63.2818 37.6514 65.9028Z" fill="black"/>
<path className='texto' d="M26.2401 120.899L26.6865 121.124L26.6931 121.111L26.6989 121.097L26.2401 120.899ZM29.5241 119.515L29.999 119.358L29.9343 119.162L29.7494 119.068L29.5241 119.515ZM35.5667 127.127L35.3122 127.558L35.3183 127.561L35.5667 127.127ZM46.0303 129.747L46.0259 130.247L46.7233 130.254L46.5053 129.591L46.0303 129.747ZM26.703 71.0221L27.1779 70.8657L26.9767 70.2544L26.4341 70.6005L26.703 71.0221ZM21.885 84.6345L22.3797 84.7071L22.4098 84.5022L22.2862 84.336L21.885 84.6345ZM16.0501 86.2517L16.2754 85.8053L16.2754 85.8053L16.0501 86.2517ZM15.2144 74.4999L14.8064 74.2109L14.8034 74.2152L15.2144 74.4999ZM25.1124 66.1891L25.3599 66.6235L25.7152 66.4212L25.5873 66.0328L25.1124 66.1891ZM23.7492 57.4408L24.1955 57.6661L24.1992 57.6589L24.2026 57.6516L23.7492 57.4408ZM30.5283 55.0075L31.0032 54.8512L30.9323 54.6357L30.7234 54.5472L30.5283 55.0075ZM33.0192 62.5762L32.5443 62.7325L32.717 63.2573L33.222 63.0332L33.0192 62.5762ZM63.258 62.0233L63.4653 61.5682L63.4583 61.5652L63.258 62.0233ZM74.4857 71.2645L74.0924 71.5733L74.0972 71.5792L74.4857 71.2645ZM81.1782 115.552L81.6078 115.808L81.6079 115.808L81.1782 115.552ZM37.6514 65.9028L37.4951 65.4279L37.4874 65.4304L37.4798 65.4332L37.6514 65.9028ZM34.8545 66.9244L34.683 66.4547L34.2283 66.6208L34.3796 67.0807L34.8545 66.9244ZM55.1122 128.477L54.6373 128.633L54.7936 129.108L55.2685 128.951L55.1122 128.477ZM74.1694 114.524L73.7319 114.281L73.7319 114.281L74.1694 114.524ZM59.4096 68.141L59.1435 68.5643L59.1457 68.5657L59.4096 68.141ZM26.5846 123.11C26.3414 122.371 26.3854 121.72 26.6865 121.124L25.7938 120.673C25.3607 121.531 25.3177 122.459 25.6348 123.422L26.5846 123.11ZM26.6989 121.097C26.9487 120.521 27.3568 120.148 27.9501 119.953L27.6375 119.003C26.7718 119.288 26.1441 119.862 25.7813 120.7L26.6989 121.097ZM27.9501 119.953C28.5318 119.761 28.9645 119.792 29.2988 119.961L29.7494 119.068C29.114 118.748 28.3932 118.754 27.6375 119.003L27.9501 119.953ZM29.0491 119.671C30.186 123.125 32.2761 125.762 35.3122 127.558L35.8212 126.697C33.0014 125.029 31.063 122.591 29.999 119.358L29.0491 119.671ZM35.3183 127.561C38.3924 129.321 41.967 130.211 46.0259 130.247L46.0348 129.247C42.1199 129.213 38.7187 128.356 35.8152 126.693L35.3183 127.561ZM46.5053 129.591L27.1779 70.8657L26.2281 71.1784L45.5554 129.904L46.5053 129.591ZM26.4341 70.6005C23.6752 72.36 21.7015 74.1468 20.5664 75.9732C19.4196 77.8182 19.1301 79.7057 19.7525 81.5969L20.7024 81.2843C20.1844 79.7104 20.4039 78.1289 21.4157 76.5011C22.439 74.8546 24.2733 73.1646 26.9719 71.4436L26.4341 70.6005ZM19.7525 81.5969C20.1494 82.803 20.7269 83.9156 21.4839 84.933L22.2862 84.336C21.5934 83.405 21.0658 82.3884 20.7024 81.2843L19.7525 81.5969ZM21.3903 84.5619C21.3068 85.1309 20.835 85.6665 19.6268 86.0641L19.9394 87.014C21.2844 86.5713 22.2139 85.8372 22.3797 84.7071L21.3903 84.5619ZM19.6268 86.0641C18.4775 86.4424 17.3704 86.358 16.2754 85.8053L15.8248 86.698C17.1538 87.3689 18.5353 87.4761 19.9394 87.014L19.6268 86.0641ZM16.2754 85.8053C15.2028 85.2639 14.4235 84.316 13.9568 82.898L13.0069 83.2106C13.5406 84.8322 14.4735 86.0159 15.8248 86.698L16.2754 85.8053ZM13.9568 82.898C13.1177 80.3486 13.6343 77.6592 15.6254 74.7846L14.8034 74.2152C12.6838 77.2752 12.0453 80.2888 13.0069 83.2106L13.9568 82.898ZM15.6224 74.7889C17.6828 71.8805 20.9167 69.1545 25.3599 66.6235L24.8649 65.7546C20.3432 68.3302 16.9784 71.1448 14.8064 74.2109L15.6224 74.7889ZM25.5873 66.0328L24.2068 61.8381L23.2569 62.1507L24.6375 66.3454L25.5873 66.0328ZM24.2068 61.8381C23.6307 60.0875 23.6646 58.7179 24.1955 57.6661L23.3028 57.2155C22.6102 58.5876 22.6326 60.2537 23.2569 62.1507L24.2068 61.8381ZM24.2026 57.6516C24.7359 56.5045 25.5927 55.7434 26.7993 55.3463L26.4867 54.3964C25.0184 54.8796 23.946 55.8314 23.2958 57.23L24.2026 57.6516ZM26.7993 55.3463C28.026 54.9425 29.1961 54.986 30.3332 55.4679L30.7234 54.5472C29.3549 53.9672 27.9347 53.9198 26.4867 54.3964L26.7993 55.3463ZM30.0533 55.1638L32.5443 62.7325L33.4942 62.4199L31.0032 54.8512L30.0533 55.1638ZM33.222 63.0332C33.7863 62.7828 34.6689 62.4586 35.8812 62.0596L35.5686 61.1097C34.3491 61.511 33.4279 61.8478 32.8164 62.1191L33.222 63.0332ZM35.8812 62.0596C45.8778 58.7695 54.9261 58.9256 63.0577 62.4814L63.4583 61.5652C55.0621 57.8936 45.755 57.7572 35.5686 61.1097L35.8812 62.0596ZM63.0507 62.4783C67.0861 64.3167 70.7684 67.3404 74.0925 71.5733L74.8789 70.9556C71.4759 66.6222 67.6729 63.4851 63.4653 61.5683L63.0507 62.4783ZM74.0972 71.5792C77.4554 75.7245 80.1822 80.9601 82.2685 87.2991L83.2184 86.9865C81.1031 80.5591 78.3248 75.2091 74.8742 70.9497L74.0972 71.5792ZM82.2685 87.2991C85.8778 98.2659 85.3403 107.578 80.7485 115.296L81.6079 115.808C86.3859 107.776 86.8918 98.148 83.2184 86.9865L82.2685 87.2991ZM80.7487 115.296C76.1809 122.963 68.561 128.577 57.8243 132.111L58.1369 133.061C69.0422 129.472 76.8875 123.73 81.6078 115.808L80.7487 115.296ZM57.8243 132.111C49.6807 134.791 42.8297 135.073 37.2312 133.038L36.8896 133.978C42.7708 136.116 49.8666 135.783 58.1369 133.061L57.8243 132.111ZM37.2312 133.038C31.5998 130.991 28.0866 127.673 26.5846 123.11L25.6348 123.422C27.254 128.342 31.0413 131.852 36.8896 133.978L37.2312 133.038ZM37.4798 65.4332L34.683 66.4547L35.0261 67.394L37.8229 66.3725L37.4798 65.4332ZM34.3796 67.0807L54.6373 128.633L55.5871 128.32L35.3295 66.768L34.3796 67.0807ZM55.2685 128.951L56.6363 128.501L56.3237 127.551L54.9559 128.002L55.2685 128.951ZM56.6363 128.501C65.0563 125.73 71.0684 121.16 74.6069 114.766L73.7319 114.281C70.3416 120.408 64.5609 124.84 56.3237 127.551L56.6363 128.501ZM74.6069 114.766C78.1667 108.332 78.1716 99.9038 74.769 89.5651L73.8191 89.8778C77.1791 100.087 77.1009 108.193 73.7319 114.281L74.6069 114.766ZM74.769 89.5651C71.3461 79.1648 66.3293 71.8519 59.6735 67.7163L59.1457 68.5657C65.5333 72.5346 70.4395 79.6088 73.8191 89.8778L74.769 89.5651ZM59.6757 67.7177C52.9962 63.5179 45.5866 62.7648 37.4951 65.4279L37.8077 66.3778C45.6437 63.7988 52.7396 64.5378 59.1435 68.5643L59.6757 67.7177Z" fill="black"/>
</g>
<g id="[Copy] DIETS_2">
<path className='texto' d="M119.837 107.664C120.568 108.036 121.018 108.629 121.186 109.444C121.355 110.258 121.216 111.006 120.769 111.687L95.4821 116.927C93.226 117.394 91.9097 116.719 91.5331 114.902C91.3643 114.087 91.5035 113.339 91.9506 112.658L102.083 110.461L90.4745 54.4349L82.8603 56.0127C80.6042 56.4801 79.2879 55.8052 78.9113 53.9878C78.7554 53.2358 78.8881 52.4566 79.3093 51.6504L104.596 46.4108C105.662 46.19 106.535 46.3032 107.216 46.7504C107.946 47.1219 108.396 47.715 108.565 48.5297C108.733 49.3444 108.594 50.0922 108.147 50.773L98.9348 52.6819L110.544 108.708L117.218 107.325C118.283 107.104 119.157 107.217 119.837 107.664Z" fill="black"/>
<path className='texto' d="M119.837 107.664L119.563 108.082L119.586 108.098L119.611 108.11L119.837 107.664ZM120.769 111.687L120.87 112.177L121.073 112.135L121.187 111.962L120.769 111.687ZM91.9506 112.658L91.8446 112.17L91.6449 112.213L91.5327 112.384L91.9506 112.658ZM102.083 110.461L102.189 110.949L102.674 110.844L102.573 110.359L102.083 110.461ZM90.4745 54.4349L90.9641 54.3335L90.8627 53.8439L90.3731 53.9453L90.4745 54.4349ZM79.3093 51.6504L79.2079 51.1608L78.9758 51.2089L78.8661 51.4189L79.3093 51.6504ZM107.216 46.7504L106.941 47.1683L106.964 47.1835L106.989 47.1961L107.216 46.7504ZM108.147 50.773L108.249 51.2626L108.451 51.2206L108.565 51.0475L108.147 50.773ZM98.9348 52.6819L98.8334 52.1923L98.3438 52.2938L98.4452 52.7834L98.9348 52.6819ZM110.544 108.708L110.054 108.809L110.156 109.299L110.645 109.197L110.544 108.708ZM119.611 108.11C120.204 108.412 120.558 108.877 120.697 109.545L121.676 109.342C121.477 108.381 120.932 107.66 120.064 107.219L119.611 108.11ZM120.697 109.545C120.839 110.233 120.724 110.845 120.351 111.413L121.187 111.962C121.709 111.167 121.871 110.284 121.676 109.342L120.697 109.545ZM120.668 111.198L95.3806 116.437L95.5835 117.416L120.87 112.177L120.668 111.198ZM95.3806 116.437C94.3055 116.66 93.5446 116.59 93.0309 116.326C92.5409 116.075 92.1889 115.602 92.0227 114.8L91.0435 115.003C91.2539 116.019 91.7484 116.792 92.5747 117.216C93.3773 117.628 94.4026 117.661 95.5835 117.416L95.3806 116.437ZM92.0227 114.8C91.8802 114.112 91.9959 113.5 92.3686 112.933L91.5327 112.384C91.011 113.178 90.8484 114.062 91.0435 115.003L92.0227 114.8ZM92.0566 113.147L102.189 110.949L101.978 109.972L91.8446 112.17L92.0566 113.147ZM102.573 110.359L90.9641 54.3335L89.9849 54.5364L101.594 110.562L102.573 110.359ZM90.3731 53.9453L82.7588 55.5231L82.9617 56.5023L90.576 54.9245L90.3731 53.9453ZM82.7588 55.5231C81.6837 55.7458 80.9227 55.6755 80.4091 55.4121C79.9191 55.1609 79.567 54.6881 79.4009 53.8863L78.4217 54.0892C78.6321 55.1048 79.1265 55.8783 79.9528 56.302C80.7555 56.7136 81.7808 56.747 82.9617 56.5023L82.7588 55.5231ZM79.4009 53.8863C79.2726 53.2673 79.3745 52.6055 79.7525 51.8819L78.8661 51.4189C78.4018 52.3077 78.2383 53.2042 78.4217 54.0892L79.4009 53.8863ZM79.4108 52.14L104.698 46.9004L104.495 45.9212L79.2079 51.1608L79.4108 52.14ZM104.698 46.9004C105.678 46.6972 106.404 46.8158 106.941 47.1683L107.49 46.3324C106.665 45.7907 105.645 45.6828 104.495 45.9212L104.698 46.9004ZM106.989 47.1961C107.582 47.4975 107.936 47.9625 108.075 48.6311L109.054 48.4282C108.855 47.4674 108.311 46.7462 107.442 46.3047L106.989 47.1961ZM108.075 48.6311C108.218 49.3191 108.102 49.9312 107.729 50.4986L108.565 51.0475C109.087 50.2531 109.249 49.3697 109.054 48.4282L108.075 48.6311ZM108.046 50.2834L98.8334 52.1923L99.0363 53.1715L108.249 51.2626L108.046 50.2834ZM98.4452 52.7834L110.054 108.809L111.033 108.606L99.4244 52.5805L98.4452 52.7834ZM110.645 109.197L117.319 107.814L117.117 106.835L110.442 108.218L110.645 109.197ZM117.319 107.814C118.3 107.611 119.026 107.73 119.563 108.082L120.112 107.247C119.287 106.705 118.267 106.597 117.117 106.835L117.319 107.814Z" fill="black"/>
</g>
<g id="[Copy] DIETS_3">
<path className='texto' d="M181.512 83.272C182.728 83.272 183.336 84.328 183.336 86.44C183.336 93.544 180.968 99.848 176.232 105.352C173.928 108.04 170.888 110.216 167.112 111.88C163.336 113.544 159.144 114.376 154.536 114.376C146.216 114.376 139.24 112.424 133.608 108.52C128.04 104.616 125.256 99.144 125.256 92.104C125.256 88.968 125.736 86.184 126.696 83.752C127.656 81.32 128.776 79.432 130.056 78.088C131.4 76.744 132.904 75.624 134.568 74.728C137.384 73.256 140.04 72.52 142.536 72.52C139.08 72.008 136.104 70.472 133.608 67.912C132.456 66.824 131.432 65.192 130.536 63.016C129.704 60.84 129.288 58.344 129.288 55.528C129.288 49.512 131.4 44.936 135.624 41.8C139.848 38.6 145.448 37 152.424 37C159.464 37 164.744 38.44 168.264 41.32C171.848 44.136 173.64 47.528 173.64 51.496C173.64 53.096 173.16 54.376 172.2 55.336C171.24 56.296 170.28 56.776 169.32 56.776C167.72 56.776 166.664 56.392 166.152 55.624C166.536 54.664 166.728 53.48 166.728 52.072C166.728 48.616 165.416 46.024 162.792 44.296C160.168 42.568 156.744 41.704 152.52 41.704C148.296 41.704 144.84 42.888 142.152 45.256C139.464 47.56 138.12 50.984 138.12 55.528C138.12 65.064 144.552 69.832 157.416 69.832C158.12 69.832 158.76 70.056 159.336 70.504C159.976 70.888 160.296 71.496 160.296 72.328C160.296 73.992 159.336 74.824 157.416 74.824C150.568 74.824 144.968 76.232 140.616 79.048C136.264 81.864 134.088 86.216 134.088 92.104C134.088 97.928 135.944 102.312 139.656 105.256C143.432 108.136 148.584 109.576 155.112 109.576C161.704 109.576 167.464 107.208 172.392 102.472C177.384 97.736 179.88 91.56 179.88 83.944C180.008 83.496 180.552 83.272 181.512 83.272Z" fill="black"/>
<path className='texto' d="M176.232 105.352L175.853 105.026L175.852 105.027L176.232 105.352ZM167.112 111.88L166.91 111.422L166.91 111.422L167.112 111.88ZM133.608 108.52L133.321 108.929L133.323 108.931L133.608 108.52ZM126.696 83.752L127.161 83.9356L127.161 83.9356L126.696 83.752ZM130.056 78.088L129.702 77.7343L129.694 77.7432L130.056 78.088ZM134.568 74.728L134.336 74.2849L134.331 74.2878L134.568 74.728ZM142.536 72.52V73.02L142.609 72.0254L142.536 72.52ZM133.608 67.912L133.966 67.5629L133.959 67.5556L133.951 67.5485L133.608 67.912ZM130.536 63.016L130.069 63.1946L130.074 63.2064L130.536 63.016ZM135.624 41.8L135.922 42.2015L135.926 42.1985L135.624 41.8ZM168.264 41.32L167.947 41.7071L167.955 41.7132L168.264 41.32ZM172.2 55.336L171.846 54.9824L171.846 54.9824L172.2 55.336ZM166.152 55.624L165.688 55.4383L165.59 55.6825L165.736 55.9013L166.152 55.624ZM162.792 44.296L163.067 43.8784L163.067 43.8784L162.792 44.296ZM142.152 45.256L142.477 45.6357L142.483 45.6312L142.152 45.256ZM159.336 70.504L159.029 70.8987L159.053 70.9172L159.079 70.9327L159.336 70.504ZM139.656 105.256L139.345 105.648L139.353 105.654L139.656 105.256ZM172.392 102.472L172.048 102.109L172.046 102.111L172.392 102.472ZM179.88 83.944L179.399 83.8066L179.38 83.874V83.944H179.88ZM181.512 83.772C181.941 83.772 182.232 83.9401 182.447 84.3135C182.686 84.7285 182.836 85.4156 182.836 86.44H183.836C183.836 85.3524 183.682 84.4554 183.313 83.8145C182.92 83.1319 182.299 82.772 181.512 82.772V83.772ZM182.836 86.44C182.836 93.4214 180.513 99.6104 175.853 105.026L176.611 105.678C181.423 100.086 183.836 93.6666 183.836 86.44H182.836ZM175.852 105.027C173.605 107.649 170.629 109.784 166.91 111.422L167.314 112.338C171.147 110.648 174.251 108.431 176.612 105.677L175.852 105.027ZM166.91 111.422C163.205 113.055 159.083 113.876 154.536 113.876V114.876C159.205 114.876 163.467 114.033 167.314 112.338L166.91 111.422ZM154.536 113.876C146.296 113.876 139.425 111.944 133.893 108.109L133.323 108.931C139.055 112.904 146.136 114.876 154.536 114.876V113.876ZM133.895 108.111C128.466 104.304 125.756 98.9878 125.756 92.104H124.756C124.756 99.3002 127.614 104.928 133.321 108.929L133.895 108.111ZM125.756 92.104C125.756 89.0186 126.228 86.2987 127.161 83.9356L126.231 83.5684C125.244 86.0693 124.756 88.9174 124.756 92.104H125.756ZM127.161 83.9356C128.106 81.5408 129.197 79.7153 130.418 78.4328L129.694 77.7432C128.355 79.1487 127.206 81.0992 126.231 83.5684L127.161 83.9356ZM130.41 78.4416C131.719 77.1318 133.184 76.041 134.805 75.1682L134.331 74.2878C132.624 75.207 131.081 76.3562 129.702 77.7344L130.41 78.4416ZM134.8 75.1711C137.563 73.7265 140.14 73.02 142.536 73.02V72.02C139.94 72.02 137.205 72.7855 134.336 74.2849L134.8 75.1711ZM142.609 72.0254C139.264 71.5298 136.388 70.0465 133.966 67.5629L133.25 68.261C135.82 70.8974 138.896 72.4862 142.463 73.0146L142.609 72.0254ZM133.951 67.5485C132.87 66.5268 131.879 64.9651 130.998 62.8256L130.074 63.2064C130.985 65.4189 132.042 67.1212 133.265 68.2755L133.951 67.5485ZM131.003 62.8374C130.197 60.729 129.788 58.2954 129.788 55.528H128.788C128.788 58.3926 129.211 60.951 130.069 63.1946L131.003 62.8374ZM129.788 55.528C129.788 49.6443 131.845 45.2287 135.922 42.2015L135.326 41.3985C130.955 44.6433 128.788 49.3797 128.788 55.528H129.788ZM135.926 42.1985C140.039 39.0825 145.523 37.5 152.424 37.5V36.5C145.373 36.5 139.657 38.1175 135.322 41.4014L135.926 42.1985ZM152.424 37.5C159.409 37.5 164.554 38.9307 167.947 41.707L168.581 40.933C164.934 37.9493 159.519 36.5 152.424 36.5V37.5ZM167.955 41.7132C171.439 44.4503 173.14 47.7055 173.14 51.496H174.14C174.14 47.3505 172.257 43.8217 168.573 40.9268L167.955 41.7132ZM173.14 51.496C173.14 52.9889 172.696 54.1328 171.846 54.9824L172.554 55.6896C173.624 54.6192 174.14 53.2031 174.14 51.496H173.14ZM171.846 54.9824C170.941 55.8879 170.101 56.276 169.32 56.276V57.276C170.459 57.276 171.539 56.704 172.554 55.6896L171.846 54.9824ZM169.32 56.276C167.765 56.276 166.936 55.8981 166.568 55.3466L165.736 55.9013C166.392 56.8859 167.675 57.276 169.32 57.276V56.276ZM166.616 55.8097C167.031 54.7735 167.228 53.5221 167.228 52.072H166.228C166.228 53.4379 166.041 54.5545 165.688 55.4383L166.616 55.8097ZM167.228 52.072C167.228 48.4677 165.847 45.7093 163.067 43.8784L162.517 44.7136C164.985 46.3387 166.228 48.7643 166.228 52.072H167.228ZM163.067 43.8784C160.338 42.081 156.809 41.204 152.52 41.204V42.204C156.679 42.204 159.998 43.0549 162.517 44.7136L163.067 43.8784ZM152.52 41.204C148.197 41.204 144.617 42.4184 141.821 44.8808L142.483 45.6312C145.063 43.3576 148.395 42.204 152.52 42.204V41.204ZM141.827 44.8764C138.998 47.3009 137.62 50.8825 137.62 55.528H138.62C138.62 51.0855 139.93 47.8191 142.477 45.6356L141.827 44.8764ZM137.62 55.528C137.62 60.4202 139.278 64.1607 142.646 66.6577C145.987 69.1338 150.937 70.332 157.416 70.332V69.332C151.031 69.332 146.333 68.1462 143.242 65.8543C140.178 63.5833 138.62 60.1718 138.62 55.528H137.62ZM157.416 70.332C158.005 70.332 158.537 70.5163 159.029 70.8987L159.643 70.1093C158.983 69.5957 158.235 69.332 157.416 69.332V70.332ZM159.079 70.9327C159.549 71.2146 159.796 71.6475 159.796 72.328H160.796C160.796 71.3445 160.403 70.5614 159.593 70.0753L159.079 70.9327ZM159.796 72.328C159.796 73.0628 159.587 73.5285 159.249 73.8222C158.896 74.1277 158.315 74.324 157.416 74.324V75.324C158.437 75.324 159.296 75.1043 159.903 74.5778C160.525 74.0395 160.796 73.2572 160.796 72.328H159.796ZM157.416 74.324C150.502 74.324 144.799 75.7455 140.344 78.6282L140.888 79.4678C145.137 76.7185 150.634 75.324 157.416 75.324V74.324ZM140.344 78.6282C135.829 81.5502 133.588 86.0735 133.588 92.104H134.588C134.588 86.3585 136.699 82.1778 140.888 79.4678L140.344 78.6282ZM133.588 92.104C133.588 98.042 135.486 102.587 139.345 105.648L139.967 104.864C136.402 102.037 134.588 97.814 134.588 92.104H133.588ZM139.353 105.654C143.243 108.621 148.515 110.076 155.112 110.076V109.076C148.653 109.076 143.621 107.651 139.959 104.858L139.353 105.654ZM155.112 110.076C161.838 110.076 167.721 107.654 172.738 102.833L172.046 102.111C167.207 106.762 161.57 109.076 155.112 109.076V110.076ZM172.736 102.835C177.839 97.9937 180.38 91.681 180.38 83.944H179.38C179.38 91.439 176.929 97.4783 172.048 102.109L172.736 102.835ZM180.361 84.0814C180.372 84.042 180.403 83.9729 180.574 83.9023C180.76 83.826 181.061 83.772 181.512 83.772V82.772C181.003 82.772 180.552 82.83 180.194 82.9777C179.821 83.1311 179.516 83.398 179.399 83.8066L180.361 84.0814Z" fill="black"/>
</g>
<g id="[Copy] DIETS_4">
<path className='texto' d="M258.538 34.3166C258.626 33.3606 259.594 32.9678 261.442 33.1382C263.354 33.3144 265.201 34.5451 266.983 36.8302C268.771 39.0517 269.541 41.5007 269.294 44.1774C268.39 53.9918 260.641 58.2264 246.046 56.8814C240.183 56.341 234.813 55.3319 229.936 53.8541L225.716 99.644C225.099 106.336 223.334 111.54 220.421 115.256C217.571 118.978 213.597 120.604 208.499 120.134C203.464 119.67 199.781 118.142 197.449 115.549C195.111 113.02 194.119 109.843 194.471 106.019C194.923 101.112 196.743 98.8054 199.929 99.0991C200.694 99.1696 201.346 99.4224 201.884 99.8577C202.422 100.293 202.85 100.879 203.168 101.615C202.535 102.906 202.098 104.858 201.857 107.471C201.616 110.084 202.1 112.153 203.309 113.679C204.588 115.146 206.279 115.977 208.382 116.171C212.779 116.576 215.45 112.709 216.393 104.569L221.335 50.9404C217.241 49.3419 213.3 47.4683 209.513 45.3197C204.913 49.9089 198.406 51.8158 189.994 51.0404C186.553 50.7233 183.816 49.7319 181.784 48.0664C179.758 46.3372 178.886 43.9431 179.168 40.884C179.732 34.766 183.838 32.0594 191.486 32.7642C196.966 33.2693 204.776 36.0458 214.916 41.0937C218.668 42.9178 223.417 44.7373 229.163 46.5523C234.973 48.3731 240.936 49.5655 247.054 50.1294C253.172 50.6933 257.408 50.4088 259.762 49.2761C262.116 48.1433 263.414 46.2705 263.654 43.6575C263.801 42.0643 263.481 40.653 262.695 39.4236C261.978 38.1364 261.191 37.2605 260.334 36.7959L259.144 36.1078C258.67 35.6784 258.468 35.0813 258.538 34.3166ZM190.304 46.6343C197.123 47.2628 202.026 46.0115 205.014 42.8805C198.471 39.2567 193.989 37.3332 191.567 37.11C189.209 36.8927 187.479 37.1832 186.377 37.9814C185.217 38.71 184.576 39.7435 184.453 41.0818C184.147 44.3958 186.097 46.2466 190.304 46.6343Z" fill="black"/>
<path className='texto' d="M266.983 36.8302L266.589 37.1377L266.593 37.1437L266.983 36.8302ZM229.936 53.8541L230.081 53.3756L229.495 53.1978L229.438 53.8082L229.936 53.8541ZM220.421 115.256L220.027 114.947L220.024 114.952L220.421 115.256ZM197.449 115.549L197.821 115.215L197.816 115.21L197.449 115.549ZM201.884 99.8577L202.198 99.4689L202.198 99.4689L201.884 99.8577ZM203.168 101.615L203.617 101.835L203.718 101.628L203.627 101.417L203.168 101.615ZM203.309 113.679L202.918 113.989L202.925 113.999L202.932 114.007L203.309 113.679ZM216.393 104.569L216.89 104.627L216.891 104.615L216.393 104.569ZM221.335 50.9404L221.833 50.9863L221.868 50.6115L221.517 50.4747L221.335 50.9404ZM209.513 45.3197L209.76 44.8848L209.429 44.6972L209.16 44.9657L209.513 45.3197ZM181.784 48.0664L181.46 48.4468L181.467 48.4531L181.784 48.0664ZM214.916 41.0937L214.693 41.5413L214.697 41.5434L214.916 41.0937ZM229.163 46.5523L229.013 47.0291L229.014 47.0294L229.163 46.5523ZM259.762 49.2761L259.979 49.7266L259.979 49.7266L259.762 49.2761ZM262.695 39.4236L262.258 39.6669L262.266 39.6802L262.274 39.6931L262.695 39.4236ZM260.334 36.7959L260.084 37.2289L260.096 37.2354L260.334 36.7959ZM259.144 36.1078L258.809 36.4785L258.848 36.5141L258.894 36.5406L259.144 36.1078ZM205.014 42.8805L205.376 43.2257L205.823 42.757L205.256 42.4431L205.014 42.8805ZM186.377 37.9814L186.643 38.4048L186.657 38.396L186.671 38.3863L186.377 37.9814ZM259.036 34.3625C259.05 34.2072 259.097 34.0975 259.163 34.0135C259.23 33.9273 259.339 33.8409 259.518 33.7683C259.891 33.617 260.499 33.5533 261.397 33.636L261.488 32.6403C260.538 32.5526 259.738 32.6002 259.142 32.8417C258.837 32.9655 258.572 33.146 258.376 33.3969C258.177 33.6501 258.07 33.948 258.04 34.2707L259.036 34.3625ZM261.397 33.636C263.114 33.7943 264.849 34.9062 266.589 37.1377L267.377 36.5228C265.554 34.1839 263.595 32.8344 261.488 32.6403L261.397 33.636ZM266.593 37.1437C268.305 39.2708 269.031 41.5926 268.797 44.1315L269.792 44.2233C270.052 41.4089 269.236 38.8326 267.373 36.5168L266.593 37.1437ZM268.797 44.1315C268.358 48.8955 266.274 52.2482 262.564 54.2754C258.817 56.323 253.349 57.0523 246.092 56.3835L246.001 57.3793C253.338 58.0555 259.042 57.34 263.044 55.1529C267.083 52.9455 269.327 49.2737 269.792 44.2233L268.797 44.1315ZM246.092 56.3835C240.258 55.8457 234.921 54.8422 230.081 53.3756L229.791 54.3326C234.705 55.8216 240.109 56.8363 246.001 57.3793L246.092 56.3835ZM229.438 53.8082L225.218 99.5981L226.214 99.6899L230.434 53.9L229.438 53.8082ZM225.218 99.5981C224.607 106.233 222.861 111.332 220.027 114.947L220.814 115.564C223.807 111.747 225.592 106.439 226.214 99.6899L225.218 99.5981ZM220.024 114.952C217.29 118.523 213.491 120.092 208.545 119.636L208.453 120.632C213.704 121.116 217.853 119.433 220.818 115.56L220.024 114.952ZM208.545 119.636C203.58 119.179 200.037 117.679 197.821 115.215L197.077 115.883C199.525 118.604 203.349 120.162 208.453 120.632L208.545 119.636ZM197.816 115.21C195.586 112.797 194.628 109.766 194.969 106.065L193.973 105.973C193.609 109.92 194.636 113.242 197.082 115.888L197.816 115.21ZM194.969 106.065C195.192 103.65 195.746 101.96 196.567 100.919C197.362 99.9116 198.441 99.464 199.883 99.597L199.975 98.6012C198.231 98.4405 196.807 98.9994 195.782 100.299C194.785 101.564 194.203 103.482 193.973 105.973L194.969 106.065ZM199.883 99.597C200.561 99.6594 201.116 99.88 201.57 100.246L202.198 99.4689C201.575 98.9649 200.827 98.6797 199.975 98.6012L199.883 99.597ZM201.57 100.246C202.036 100.623 202.418 101.139 202.709 101.813L203.627 101.417C203.282 100.618 202.809 99.9625 202.198 99.4689L201.57 100.246ZM202.719 101.395C202.045 102.769 201.602 104.793 201.359 107.425L202.355 107.517C202.594 104.923 203.024 103.044 203.617 101.835L202.719 101.395ZM201.359 107.425C201.111 110.121 201.604 112.332 202.918 113.989L203.701 113.368C202.597 111.975 202.122 110.048 202.355 107.517L201.359 107.425ZM202.932 114.007C204.303 115.58 206.117 116.464 208.336 116.669L208.428 115.673C206.441 115.49 204.873 114.712 203.686 113.35L202.932 114.007ZM208.336 116.669C210.729 116.889 212.665 115.929 214.094 113.859C215.499 111.825 216.415 108.726 216.889 104.627L215.896 104.512C215.428 108.552 214.537 111.457 213.271 113.29C212.031 115.087 210.433 115.858 208.428 115.673L208.336 116.669ZM216.891 104.615L221.833 50.9863L220.838 50.8945L215.895 104.523L216.891 104.615ZM221.517 50.4747C217.445 48.8848 213.526 47.0215 209.76 44.8848L209.267 45.7546C213.074 47.9151 217.037 49.799 221.154 51.4062L221.517 50.4747ZM209.16 44.9657C204.694 49.4204 198.352 51.3086 190.04 50.5426L189.948 51.5383C198.461 52.3229 205.131 50.3973 209.866 45.6737L209.16 44.9657ZM190.04 50.5426C186.667 50.2317 184.035 49.2648 182.101 47.6798L181.467 48.4531C183.597 50.1991 186.438 51.2148 189.948 51.5383L190.04 50.5426ZM182.109 47.6861C180.227 46.0797 179.397 43.8558 179.666 40.9299L178.67 40.8382C178.376 44.0304 179.29 46.5947 181.46 48.4467L182.109 47.6861ZM179.666 40.9299C179.938 37.9808 181.051 35.9322 182.946 34.683C184.864 33.4187 187.669 32.9146 191.44 33.2621L191.531 32.2663C187.654 31.909 184.583 32.4057 182.395 33.8481C180.185 35.3055 178.963 37.6692 178.67 40.8382L179.666 40.9299ZM191.44 33.2621C196.823 33.7582 204.563 36.4981 214.693 41.5413L215.139 40.6461C204.99 35.5936 197.11 32.7805 191.531 32.2663L191.44 33.2621ZM214.697 41.5434C218.479 43.3817 223.253 45.2097 229.013 47.0291L229.314 46.0755C223.582 44.265 218.858 42.4539 215.135 40.644L214.697 41.5434ZM229.014 47.0294C234.857 48.8609 240.856 50.0602 247.008 50.6273L247.1 49.6315C241.017 49.0708 235.088 47.8854 229.313 46.0752L229.014 47.0294ZM247.008 50.6273C250.083 50.9107 252.7 50.9824 254.853 50.8378C257 50.6937 258.72 50.3326 259.979 49.7266L259.546 48.8255C258.451 49.3523 256.876 49.6998 254.786 49.8401C252.704 49.9799 250.143 49.912 247.1 49.6315L247.008 50.6273ZM259.979 49.7266C262.492 48.5173 263.895 46.4903 264.152 43.7034L263.157 43.6117C262.932 46.0507 261.74 47.7693 259.546 48.8255L259.979 49.7266ZM264.152 43.7034C264.308 42.0108 263.968 40.4863 263.116 39.1542L262.274 39.6931C262.994 40.8196 263.294 42.1178 263.157 43.6117L264.152 43.7034ZM263.132 39.1803C262.391 37.8497 261.545 36.8837 260.572 36.3563L260.096 37.2354C260.837 37.6372 261.565 38.4231 262.258 39.6669L263.132 39.1803ZM260.584 36.363L259.395 35.6749L258.894 36.5406L260.084 37.2287L260.584 36.363ZM259.48 35.737C259.146 35.4349 258.977 35.0057 259.036 34.3625L258.04 34.2707C257.959 35.1569 258.194 35.9219 258.809 36.4785L259.48 35.737ZM190.258 47.1322C197.14 47.7665 202.233 46.5187 205.376 43.2257L204.653 42.5353C201.819 45.5043 197.105 46.759 190.35 46.1364L190.258 47.1322ZM205.256 42.4431C201.977 40.6269 199.205 39.2314 196.942 38.2606C194.691 37.2946 192.905 36.7313 191.613 36.6121L191.521 37.6079C192.65 37.712 194.317 38.222 196.548 39.1795C198.768 40.1322 201.508 41.5103 204.772 43.3179L205.256 42.4431ZM191.613 36.6121C189.216 36.3912 187.334 36.6707 186.084 37.5765L186.671 38.3863C187.624 37.6956 189.202 37.3942 191.521 37.6079L191.613 36.6121ZM186.111 37.558C184.823 38.3676 184.093 39.5391 183.955 41.036L184.95 41.1277C185.059 39.9479 185.612 39.0524 186.643 38.4048L186.111 37.558ZM183.955 41.036C183.792 42.8055 184.23 44.2624 185.342 45.3181C186.434 46.3539 188.103 46.9335 190.258 47.1322L190.35 46.1364C188.298 45.9473 186.889 45.4077 186.03 44.5927C185.193 43.7976 184.808 42.6722 184.95 41.1277L183.955 41.036Z" fill="black"/>
</g>
<g id="[Copy] DIETS_5">
<path className='texto' d="M281.84 129.115C282.74 126.178 282.806 123.453 282.037 120.941C281.329 118.448 280.051 116.282 278.205 114.444C276.42 112.625 274.353 110.853 272.003 109.128C269.654 107.404 267.304 105.679 264.954 103.954C262.624 102.169 260.554 100.295 258.745 98.3349C257.016 96.332 255.805 93.9523 255.111 91.1956C254.477 88.4576 254.668 85.4366 255.681 82.1325C257.426 76.442 260.876 72.6133 266.031 70.6464C271.248 68.6981 277.129 68.7279 283.677 70.7357C290.285 72.7622 295.087 75.875 298.084 80.0741C301.08 84.2732 302.034 88.1472 300.946 91.6961C300.196 94.1436 299.143 95.8291 297.789 96.7526C296.514 97.6337 295.235 97.8772 293.95 97.4832C291.564 96.7514 290.175 95.8234 289.783 94.6991L289.648 94.1558C290.504 93.548 291.279 92.1121 291.974 89.8482C293.043 86.3605 292.41 83.1873 290.073 80.3287C287.755 77.4088 284.638 75.3484 280.722 74.1475C276.868 72.9654 273.489 73.0673 270.587 74.4534C267.685 75.8395 265.775 78.0317 264.855 81.0299C263.936 84.0281 263.84 86.7431 264.566 89.1751C265.373 91.5647 266.709 93.6479 268.574 95.4248C270.439 97.2017 272.556 98.9219 274.924 100.585C277.354 102.268 279.725 104.032 282.037 105.879C284.429 107.684 286.501 109.658 288.253 111.802C290.025 113.885 291.18 116.448 291.719 119.492C292.319 122.555 292.047 125.952 290.903 129.685C288.895 136.232 285.031 140.536 279.311 142.598C273.592 144.66 267.213 144.611 260.177 142.454C253.202 140.314 247.658 136.673 243.545 131.529C239.512 126.343 238.322 121.057 239.973 115.673C240.742 113.164 241.832 111.356 243.243 110.249C244.672 109.081 246.06 108.703 247.406 109.116C249.792 109.848 251.2 110.715 251.629 111.717L251.764 112.26C250.744 113.621 249.896 115.403 249.221 117.605C247.945 121.766 248.511 125.923 250.919 130.075C253.389 134.247 257.377 137.177 262.884 138.865C266.861 140.085 270.71 139.759 274.43 137.888C278.169 135.955 280.639 133.031 281.84 129.115Z" fill="black"/>
<path className='texto' d="M282.037 120.941L281.556 121.078L281.559 121.088L282.037 120.941ZM278.205 114.444L277.848 114.795L277.852 114.799L278.205 114.444ZM272.003 109.128L272.299 108.725L272.299 108.725L272.003 109.128ZM264.954 103.954L264.65 104.351L264.659 104.357L264.954 103.954ZM258.745 98.3349L258.367 98.6616L258.372 98.6679L258.378 98.674L258.745 98.3349ZM255.111 91.1956L254.623 91.3082L254.626 91.3177L255.111 91.1956ZM266.031 70.6464L265.856 70.1779L265.853 70.1792L266.031 70.6464ZM298.084 80.0741L298.491 79.7837L298.491 79.7837L298.084 80.0741ZM297.789 96.7526L297.507 96.3395L297.504 96.3413L297.789 96.7526ZM289.783 94.6991L289.298 94.8194L289.303 94.8418L289.311 94.8636L289.783 94.6991ZM289.648 94.1558L289.359 93.7481L289.081 93.9454L289.163 94.276L289.648 94.1558ZM290.073 80.3287L289.681 80.6396L289.686 80.6451L290.073 80.3287ZM270.587 74.4534L270.372 74.0023L270.372 74.0023L270.587 74.4534ZM264.566 89.1751L264.087 89.3183L264.09 89.3268L264.093 89.3351L264.566 89.1751ZM274.924 100.585L274.637 100.995L274.64 100.996L274.924 100.585ZM282.037 105.879L281.725 106.27L281.736 106.278L282.037 105.879ZM288.253 111.802L287.866 112.119L287.872 112.126L288.253 111.802ZM291.719 119.492L291.227 119.58L291.228 119.589L291.719 119.492ZM279.311 142.598L279.142 142.128L279.142 142.128L279.311 142.598ZM243.545 131.529L243.15 131.836L243.154 131.841L243.545 131.529ZM243.243 110.249L243.551 110.643L243.559 110.636L243.243 110.249ZM251.629 111.717L252.114 111.596L252.105 111.557L252.089 111.52L251.629 111.717ZM251.764 112.26L252.164 112.56L252.306 112.37L252.249 112.14L251.764 112.26ZM250.919 130.075L250.487 130.326L250.489 130.33L250.919 130.075ZM274.43 137.888L274.655 138.334L274.659 138.332L274.43 137.888ZM282.318 129.261C283.243 126.245 283.318 123.418 282.515 120.795L281.559 121.088C282.294 123.489 282.238 126.11 281.362 128.968L282.318 129.261ZM282.518 120.805C281.786 118.229 280.464 115.988 278.558 114.09L277.852 114.799C279.638 116.577 280.871 118.667 281.556 121.078L282.518 120.805ZM278.562 114.094C276.756 112.253 274.667 110.464 272.299 108.725L271.707 109.531C274.038 111.242 276.085 112.997 277.848 114.795L278.562 114.094ZM272.299 108.725C269.949 107.001 267.6 105.276 265.25 103.551L264.659 104.357C267.008 106.082 269.358 107.807 271.707 109.531L272.299 108.725ZM265.258 103.557C262.948 101.787 260.9 99.9333 259.113 97.9959L258.378 98.674C260.208 100.657 262.299 102.55 264.65 104.351L265.258 103.557ZM259.124 98.0082C257.449 96.0686 256.272 93.7603 255.595 91.0734L254.626 91.3177C255.338 94.1442 256.583 96.5954 258.367 98.6616L259.124 98.0082ZM255.598 91.0829C254.989 88.4483 255.165 85.5183 256.159 82.2791L255.203 81.9859C254.17 85.3549 253.966 88.4669 254.623 91.3082L255.598 91.0829ZM256.159 82.2791C257.863 76.7226 261.211 73.0207 266.21 71.1135L265.853 70.1792C260.541 72.2059 256.989 76.1615 255.203 81.9859L256.159 82.2791ZM266.206 71.1148C271.298 69.2133 277.063 69.2306 283.53 71.2137L283.823 70.2577C277.196 68.2252 271.198 68.183 265.856 70.178L266.206 71.1148ZM283.53 71.2137C290.069 73.2189 294.763 76.281 297.677 80.3646L298.491 79.7837C295.412 75.469 290.501 72.3055 283.823 70.2577L283.53 71.2137ZM297.677 80.3646C300.62 84.4895 301.495 88.2018 300.468 91.5495L301.424 91.8427C302.574 88.0926 301.54 84.0569 298.491 79.7837L297.677 80.3646ZM300.468 91.5495C299.733 93.9459 298.728 95.5071 297.507 96.3395L298.071 97.1657C299.558 96.151 300.658 94.3412 301.424 91.8427L300.468 91.5495ZM297.504 96.3413C296.334 97.1504 295.212 97.3471 294.097 97.0052L293.803 97.9612C295.258 98.4073 296.695 98.117 298.073 97.1639L297.504 96.3413ZM294.097 97.0052C292.929 96.6472 292.036 96.2497 291.396 95.8226C290.757 95.3952 290.403 94.96 290.255 94.5347L289.311 94.8636C289.554 95.5625 290.091 96.1534 290.841 96.6541C291.59 97.1549 292.584 97.5873 293.803 97.9612L294.097 97.0052ZM290.268 94.5789L290.134 94.0356L289.163 94.276L289.298 94.8194L290.268 94.5789ZM289.938 94.5635C290.454 94.1973 290.906 93.6122 291.312 92.8606C291.72 92.1039 292.099 91.1455 292.452 89.9948L291.496 89.7016C291.154 90.8148 290.798 91.7064 290.432 92.3856C290.062 93.0697 289.699 93.5065 289.359 93.7481L289.938 94.5635ZM292.452 89.9948C293.571 86.345 292.901 82.9985 290.46 80.0122L289.686 80.6451C291.918 83.3762 292.515 86.3761 291.496 89.7016L292.452 89.9948ZM290.465 80.0178C288.078 77.0109 284.872 74.897 280.869 73.6695L280.576 74.6255C284.405 75.7998 287.433 77.8067 289.681 80.6395L290.465 80.0178ZM280.869 73.6695C276.926 72.4603 273.414 72.5494 270.372 74.0023L270.803 74.9046C273.565 73.5853 276.809 73.4704 280.576 74.6255L280.869 73.6695ZM270.372 74.0023C267.347 75.4469 265.339 77.7475 264.377 80.8833L265.333 81.1765C266.211 78.3159 268.024 76.2321 270.803 74.9046L270.372 74.0023ZM264.377 80.8833C263.436 83.9535 263.326 86.7716 264.087 89.3183L265.046 89.032C264.353 86.7147 264.436 84.1026 265.333 81.1765L264.377 80.8833ZM264.093 89.3351C264.926 91.8032 266.307 93.9553 268.229 95.7868L268.919 95.0628C267.112 93.3406 265.821 91.3263 265.04 89.0152L264.093 89.3351ZM268.229 95.7868C270.114 97.5828 272.251 99.3185 274.637 100.995L275.212 100.176C272.861 98.5253 270.764 96.8206 268.919 95.0628L268.229 95.7868ZM274.64 100.996C277.06 102.672 279.421 104.43 281.725 106.27L282.349 105.489C280.028 103.635 277.648 101.863 275.209 100.174L274.64 100.996ZM281.736 106.278C284.098 108.061 286.141 110.008 287.866 112.119L288.641 111.486C286.861 109.309 284.759 107.307 282.338 105.48L281.736 106.278ZM287.872 112.126C289.579 114.133 290.701 116.611 291.227 119.58L292.211 119.405C291.659 116.285 290.47 113.637 288.634 111.478L287.872 112.126ZM291.228 119.589C291.81 122.553 291.551 125.865 290.425 129.538L291.381 129.832C292.544 126.04 292.829 122.557 292.21 119.396L291.228 119.589ZM290.425 129.538C288.456 135.957 284.693 140.127 279.142 142.128L279.481 143.068C285.369 140.946 289.334 136.507 291.381 129.832L290.425 129.538ZM279.142 142.128C273.544 144.145 267.279 144.109 260.323 141.975L260.03 142.932C267.148 145.114 273.639 145.174 279.481 143.068L279.142 142.128ZM260.323 141.975C253.433 139.863 247.979 136.274 243.935 131.217L243.154 131.841C247.336 137.072 252.97 140.766 260.03 142.932L260.323 141.975ZM243.94 131.222C239.988 126.14 238.856 121.021 240.451 115.82L239.495 115.526C237.787 121.094 239.037 126.546 243.15 131.836L243.94 131.222ZM240.451 115.82C241.203 113.365 242.25 111.664 243.551 110.643L242.934 109.856C241.414 111.049 240.281 112.963 239.495 115.526L240.451 115.82ZM243.559 110.636C244.904 109.537 246.121 109.245 247.259 109.594L247.552 108.638C245.998 108.161 244.44 108.625 242.926 109.862L243.559 110.636ZM247.259 109.594C248.43 109.953 249.335 110.338 249.989 110.741C250.648 111.146 251.011 111.545 251.169 111.913L252.089 111.52C251.817 110.886 251.263 110.351 250.514 109.889C249.76 109.425 248.768 109.011 247.552 108.638L247.259 109.594ZM251.144 111.837L251.278 112.38L252.249 112.14L252.114 111.596L251.144 111.837ZM251.363 111.96C250.299 113.38 249.429 115.219 248.743 117.459L249.699 117.752C250.363 115.586 251.188 113.861 252.164 112.56L251.363 111.96ZM248.743 117.459C247.421 121.767 248.017 126.067 250.487 130.326L251.352 129.824C249.005 125.778 248.468 121.765 249.699 117.752L248.743 117.459ZM250.489 130.33C253.034 134.628 257.135 137.626 262.737 139.344L263.03 138.387C257.619 136.728 253.744 133.865 251.349 129.821L250.489 130.33ZM262.737 139.344C266.838 140.601 270.819 140.264 274.655 138.334L274.205 137.441C270.6 139.255 266.884 139.569 263.03 138.387L262.737 139.344ZM274.659 138.332C278.514 136.339 281.076 133.31 282.318 129.261L281.362 128.968C280.201 132.752 277.823 135.571 274.2 137.444L274.659 138.332Z" fill="black"/>
</g>
</g>
<defs>
<filter id="filter0_d_1_8751" x="1.85205" y="25.6844" width="308.953" height="132.284" filterUnits="userSpaceOnUse" color-interpolation-filters="sRGB">
<feFlood flood-opacity="0" result="BackgroundImageFix"/>
<feColorMatrix in="SourceAlpha" type="matrix" values="0 0 0 0 0 0 0 0 0 0 0 0 0 0 0 0 0 0 127 0" result="hardAlpha"/>
<feOffset dy="4"/>
<feGaussianBlur stdDeviation="2"/>
<feComposite in2="hardAlpha" operator="out"/>
<feColorMatrix type="matrix" values="0 0 0 0 0 0 0 0 0 0 0 0 0 0 0 0 0 0 0.25 0"/>
<feBlend mode="normal" in2="BackgroundImageFix" result="effect1_dropShadow_1_8751"/>
<feBlend mode="normal" in="SourceGraphic" in2="effect1_dropShadow_1_8751" result="shape"/>
</filter>
</defs>
</svg>
